<svg width="230" height="52" viewBox="0 0 230 52" fill="none" xmlns="http://www.w3.org/2000/svg">
<g clip-path="url(#clip0_6_7350)">
<path d="M71.6418 8.03905C71.2216 6.48541 70.4018 5.06903 69.2642 3.93096C68.1266 2.79289 66.7108 1.97285 65.1578 1.5525C59.4723 0.00146484 36.592 0.00146484 36.592 0.00146484C36.592 0.00146484 13.7109 0.0485338 8.02623 1.59957C6.47335 2.01998 5.05766 2.84005 3.92011 3.97812C2.78257 5.11618 1.96288 6.53253 1.54266 8.08612C-0.177037 18.1925 -0.844213 33.5912 1.5897 43.2928C2.00992 44.8464 2.82962 46.2627 3.96716 47.4008C5.1047 48.5389 6.5204 49.3589 8.07327 49.7794C13.7584 51.3304 36.6391 51.3304 36.6391 51.3304C36.6391 51.3304 59.5198 51.3304 65.2049 49.7794C66.7578 49.3589 68.1734 48.5389 69.311 47.4008C70.4485 46.2627 71.2682 44.8464 71.6884 43.2928C73.5018 33.1725 74.061 17.7832 71.6414 8.0395" fill="#FF0000"/>
<path d="M29.3097 36.6667L48.2908 25.6678L29.3097 14.6685V36.6667Z" fill="white"/>
<path d="M220.107 14.9004C222.597 14.9004 224.476 15.3702 225.792 16.2632C227.107 17.1566 228.047 18.5664 228.611 20.494C229.174 22.4211 229.409 25.053 229.409 28.4374V33.9373H217.335V35.6291L217.523 40.2827C217.664 41.3169 217.899 42.0691 218.274 42.5389C218.651 43.0091 219.261 43.244 220.06 43.244C221.141 43.244 221.892 42.8213 222.268 41.9754C222.691 41.129 222.879 39.7188 222.926 37.7916L229.174 38.1677C229.221 38.4497 229.221 38.8258 229.221 39.2956C229.221 42.2569 228.423 44.4664 226.778 45.9233C225.134 47.3802 222.879 48.1324 219.919 48.1324C216.348 48.1324 213.858 47.0046 212.448 44.7955C211.039 42.5859 210.287 39.1073 210.287 34.4542V28.7665C210.447 20.776 211.852 14.9237 220.107 14.9004ZM133.235 15.5114V39.0607C133.235 40.471 133.376 41.5051 133.705 42.1161C134.372 43.4229 136.101 43.0889 137.041 42.4452C137.583 42.0783 138.02 41.5761 138.309 40.9883V15.511H145.497V47.6151H139.859L139.249 43.6667H139.108C137.558 46.628 135.255 48.132 132.201 48.132C127.501 48.1203 126.351 44.7323 126.077 41.2913L126.059 41.0488C126.025 40.5276 126.006 40.0056 126 39.4834V15.5114H133.235ZM170.305 15.5114V39.0607C170.305 40.471 170.445 41.5051 170.774 42.1161C171.442 43.4229 173.171 43.0889 174.11 42.4452C174.653 42.0783 175.09 41.5761 175.379 40.9883V15.511H182.567V47.6151H176.929L176.318 43.6667H176.178C174.627 46.628 172.325 48.132 169.271 48.132C164.571 48.1203 163.421 44.7323 163.147 41.2913L163.129 41.0488C163.095 40.5276 163.075 40.0056 163.069 39.4834V15.5114H170.305ZM112.374 14.9004C114.723 14.9004 116.65 15.3702 118.059 16.3573C119.469 17.3444 120.549 18.8488 121.207 20.9167C121.865 22.9851 122.194 25.7581 122.194 29.1897V33.8428C122.194 37.2743 121.865 40.0007 121.207 42.0686C120.549 44.1374 119.516 45.6414 118.059 46.6285C116.603 47.5685 114.629 48.0854 112.187 48.0854C109.649 48.1324 107.676 47.6156 106.22 46.6755C104.763 45.6884 103.729 44.184 103.119 42.1161C102.508 40.0478 102.226 37.3214 102.226 33.8903V29.2363C102.226 25.8047 102.555 22.9846 103.26 20.9163C103.964 18.8013 105.045 17.2969 106.548 16.3573C108.052 15.4168 109.978 14.9 112.374 14.9M193.843 2.021V18.9425H193.89C194.548 17.7205 195.394 16.7334 196.568 15.9812C197.665 15.2432 198.958 14.8504 200.28 14.8533C202.018 14.8533 203.334 15.3231 204.32 16.2161C205.307 17.1566 206.012 18.6135 206.434 20.6348C206.844 22.5928 207.077 25.3009 207.092 28.7158L207.092 29.0489V34.1252C207.092 38.8724 206.481 42.3981 205.354 44.6543C204.18 46.9104 202.394 48.0388 199.951 48.0388C198.589 48.0388 197.367 47.7097 196.24 47.0987C195.242 46.5174 194.416 45.6838 193.842 44.6816L193.749 44.5131H193.608L192.857 47.5685H186.89V2.02144L193.843 2.021ZM165.089 3.66617V9.4942H157.948V47.6151H150.901V9.49465H143.712V3.66662L165.089 3.66617ZM87.6139 3.66617L87.6184 3.6841C87.687 3.98938 88.6369 8.21438 89.6818 13.1369L89.7642 13.5269L89.8888 14.1164L89.9721 14.5122L90.0138 14.7108L90.0971 15.1089L90.1388 15.3083L90.2217 15.7078L90.3427 16.2919C91.0484 19.7006 91.7218 23.1191 92.1246 25.5703H92.3128C92.6986 23.3715 93.2592 20.5577 93.8569 17.6847L94.0137 16.9342C94.0926 16.5586 94.1714 16.1829 94.2512 15.8082L94.374 15.2268C95.1856 11.4195 96.0216 7.61742 96.8818 3.82082L96.8952 3.76031L96.9168 3.66617H104.105L95.789 33.3263V47.5685H88.6947V33.373H88.6476L80.4255 3.66572L87.6139 3.66617ZM112.233 19.8825C111.246 19.8825 110.589 20.3999 110.166 21.4811C109.743 22.5619 109.555 24.2071 109.555 26.5108V36.5225C109.555 38.8729 109.743 40.6117 110.119 41.6463C110.495 42.6801 111.2 43.1974 112.233 43.1974C113.22 43.1974 113.925 42.6801 114.348 41.6463C114.771 40.6117 114.958 38.8729 114.958 36.5225V26.5103C114.958 24.2071 114.77 22.5148 114.348 21.4807C113.925 20.3999 113.22 19.8825 112.233 19.8825ZM195.112 20.823C194.539 21.352 194.132 22.0042 193.889 22.8197L193.843 22.9851V41.2227C194.426 42.2098 195.253 42.8679 196.709 42.915C197.461 42.915 198.071 42.633 198.542 42.0691C199.011 41.5051 199.34 40.5647 199.528 39.2485C199.708 37.9853 199.803 36.2451 199.81 34.0288V29.5658C199.81 27.0276 199.716 25.1005 199.575 23.7373C199.387 22.3741 199.152 21.387 198.729 20.823C197.912 19.6477 196.145 19.662 195.112 20.823ZM219.966 19.7418C219.167 19.7889 218.603 20.0238 218.274 20.4469C217.899 20.9167 217.664 21.6219 217.523 22.656C217.384 23.6691 217.337 27.2105 217.335 27.3522V29.6599H222.597V27.6247V27.6637C222.594 28.3751 222.579 27.2509 222.547 25.8706L222.542 25.685C222.513 24.472 222.47 23.1195 222.409 22.656C222.268 21.5748 222.033 20.8226 221.657 20.3999C221.281 19.9767 220.718 19.7418 219.966 19.7418" fill="#292F3B"/>
</g>
<defs>
<clipPath id="clip0_6_7350">
<rect width="229.412" height="52" fill="white" transform="translate(0 0.00146484)"/>
</clipPath>
</defs>
</svg>
