<svg width="48" height="48" viewBox="0 0 48 48" fill="none" xmlns="http://www.w3.org/2000/svg">
<path d="M37.5 0H10.5C8.847 0 7.5 1.347 7.5 3V45C7.5 46.656 8.847 48 10.5 48H37.5C39.156 48 40.5 46.656 40.5 45V3C40.5 1.347 39.156 0 37.5 0ZM37.5 39H10.5V6H37.5V39Z" fill="#10B981"/>
<path d="M21 12H15C14.172 12 13.5 12.672 13.5 13.5V19.5C13.5 20.328 14.172 21 15 21H21C21.828 21 22.5 20.328 22.5 19.5V13.5C22.5 12.672 21.828 12 21 12Z" fill="#10B981"/>
<path d="M21 24H15C14.172 24 13.5 24.672 13.5 25.5V31.5C13.5 32.328 14.172 33 15 33H21C21.828 33 22.5 32.328 22.5 31.5V25.5C22.5 24.672 21.828 24 21 24Z" fill="#10B981"/>
<path d="M33 12H27C26.172 12 25.5 12.672 25.5 13.5V19.5C25.5 20.328 26.172 21 27 21H33C33.828 21 34.5 20.328 34.5 19.5V13.5C34.5 12.672 33.828 12 33 12Z" fill="#10B981"/>
</svg>
