<svg width="100" height="100" viewBox="0 0 100 100" fill="none" xmlns="http://www.w3.org/2000/svg">
<rect x="0.5" y="0.5" width="99" height="99" rx="49.5" fill="#F0F6FE"/>
<rect x="0.5" y="0.5" width="99" height="99" rx="49.5" stroke="#DCEBFD"/>
<path d="M31.9545 30.1367C31.9531 30.1367 31.9515 30.1367 31.9501 30.1367C31.4583 30.1367 30.9957 30.3284 30.6464 30.6769C30.2933 31.0291 30.0988 31.4982 30.0988 31.9975V59.8999C30.0988 60.9231 30.9344 61.7576 31.9618 61.7602C36.2931 61.7705 43.5496 62.6732 48.5557 67.912V38.7113C48.5557 38.3645 48.4671 38.0386 48.2999 37.769C44.1912 31.1522 36.2955 30.1469 31.9545 30.1367Z" fill="#428AEF"/>
<path d="M69.9014 59.8998V31.9973C69.9014 31.4979 69.7069 31.0289 69.3538 30.6766C69.0045 30.3282 68.5416 30.1365 68.0503 30.1365C68.0487 30.1365 68.0471 30.1365 68.0457 30.1365C63.7048 30.1468 55.8092 31.1521 51.7003 37.7689C51.5331 38.0386 51.4447 38.3644 51.4447 38.7113V67.9117C56.4507 62.673 63.7073 61.7703 68.0385 61.7599C69.0658 61.7573 69.9014 60.9229 69.9014 59.8998Z" fill="#428AEF"/>
<path d="M74.1396 36.5713H72.7904V59.8998C72.7904 62.5122 70.6619 64.6425 68.0454 64.6489C64.3716 64.6577 58.314 65.3761 54.0239 69.4364C61.4437 67.6198 69.2654 68.8007 73.7231 69.8166C74.2797 69.9433 74.8548 69.8124 75.3008 69.4569C75.7451 69.1024 76 68.5724 76 68.0036V38.4317C76.0002 37.4059 75.1654 36.5713 74.1396 36.5713Z" fill="#428AEF"/>
<path d="M27.2097 59.8998V36.5713H25.8605C24.8348 36.5713 24 37.4059 24 38.4317V68.003C24 68.5721 24.2549 69.1019 24.6993 69.4564C25.1449 69.8117 25.7195 69.9431 26.277 69.816C30.7346 68.8 38.5565 67.6192 45.9759 69.4359C41.686 65.3757 35.6284 64.6575 31.9546 64.6488C29.3383 64.6425 27.2097 62.5122 27.2097 59.8998Z" fill="#428AEF"/>
</svg>
