<svg width="48" height="48" viewBox="0 0 48 48" fill="none" xmlns="http://www.w3.org/2000/svg">
<g clip-path="url(#clip0_6_6650)">
<path d="M14.1963 27.6726H-3.05176e-05V46.7363H14.1963V27.6726Z" fill="#2448A9"/>
<path d="M48 22.7744H33.8037V46.7363H48V22.7744Z" fill="#2448A9"/>
<path d="M31.1012 15.666H16.9008V46.7364H31.1012V15.666Z" fill="#FF9A00"/>
<path d="M41.011 8.33081L43.0213 12.4092L47.5241 13.0642L44.2696 16.2384L45.0358 20.7227L41.011 18.6052L36.9861 20.7227L37.7523 16.2384L34.4978 13.0642L38.9965 12.4091L41.011 8.33081Z" fill="#2448A9"/>
<path d="M24.0772 1.26367L26.0897 5.3442L30.5925 5.99927L27.338 9.1755L28.1063 13.6556L24.0793 11.5402L20.0524 13.6556L20.8186 9.1755L17.5641 5.99927L22.0647 5.3442L24.0772 1.26367Z" fill="#FF9A00"/>
<path d="M6.8509 13.0869L8.86128 17.1674L13.3641 17.8245L10.1116 20.9966L10.8779 25.4788L6.8509 23.3634L2.82394 25.4809L3.59227 20.9987L0.33783 17.8265L4.83852 17.1694L6.8509 13.0869Z" fill="#2448A9"/>
</g>
<defs>
<clipPath id="clip0_6_6650">
<rect width="48" height="48" fill="white"/>
</clipPath>
</defs>
</svg>
