<svg width="48" height="48" viewBox="0 0 48 48" fill="none" xmlns="http://www.w3.org/2000/svg">
<path d="M16.2737 16.5584C16.2737 16.1282 16.1028 15.7156 15.7985 15.4114L13.504 13.1168C13.1997 12.8126 12.7868 12.6417 12.3565 12.6417C11.9262 12.6417 11.5132 12.8126 11.2091 13.1168L1.81794 22.5079C0.993951 23.3319 0.993954 24.6679 1.81795 25.4919L11.2091 34.8829C11.5132 35.1871 11.9262 35.3583 12.3565 35.3583C12.7868 35.3583 13.1993 35.1877 13.5035 34.8835L15.7981 32.5889C16.1023 32.2846 16.2733 31.8717 16.2733 31.4415C16.2733 31.0112 16.1023 30.5983 15.7981 30.294L9.5041 24L15.7985 17.7059C16.1028 17.4017 16.2737 16.9891 16.2737 16.5584Z" fill="currentColor"/>
<path d="M35.6434 12.6411C35.213 12.6411 34.8006 12.812 34.4963 13.1163L32.2017 15.4108C31.8975 15.7151 31.7265 16.128 31.7265 16.5583C31.7265 16.9886 31.8975 17.4015 32.2017 17.7057L38.4957 23.9998L32.2013 30.2938C31.897 30.598 31.7261 31.0106 31.7261 31.4413C31.7261 31.8715 31.897 32.2841 32.2013 32.5883L34.4958 34.8829C34.8001 35.1872 35.213 35.3585 35.6434 35.3585C36.0736 35.3585 36.4866 35.1875 36.7909 34.8832L46.1819 25.4922C47.0059 24.6682 47.0059 23.3323 46.182 22.5083L36.7909 13.1163C36.4866 12.812 36.074 12.6411 35.6434 12.6411Z" fill="currentColor"/>
<path d="M28.5311 4.52783H25.4193C25.0351 4.52783 24.6634 4.664 24.3705 4.91245C24.0774 5.16056 23.8819 5.50465 23.8188 5.88361L17.8689 41.5824C17.7903 42.0528 17.9228 42.5342 18.2315 42.8982C18.5398 43.2622 18.9924 43.472 19.4695 43.472H22.5812C22.9655 43.472 23.3371 43.3358 23.6301 43.0872C23.9232 42.8391 24.1188 42.495 24.1818 42.1162L30.1317 6.4174C30.2102 5.94688 30.0777 5.4656 29.7691 5.10159C29.4608 4.73757 29.0081 4.52783 28.5311 4.52783Z" fill="currentColor"/>
</svg>
