<svg width="28" height="28" viewBox="0 0 28 28" fill="none" xmlns="http://www.w3.org/2000/svg">
<path d="M7 5.25146C6.07174 5.25146 5.1815 5.62021 4.52513 6.27659C3.86875 6.93297 3.5 7.82321 3.5 8.75146V9.10322L14 14.7575L24.5 9.10497V8.75146C24.5 7.82321 24.1313 6.93297 23.4749 6.27659C22.8185 5.62021 21.9283 5.25146 21 5.25146H7ZM24.5 11.0912L14.4148 16.5215C14.2873 16.5901 14.1448 16.626 14 16.626C13.8552 16.626 13.7127 16.5901 13.5853 16.5215L3.5 11.0912V19.2515C3.5 20.1797 3.86875 21.07 4.52513 21.7263C5.1815 22.3827 6.07174 22.7515 7 22.7515H21C21.9283 22.7515 22.8185 22.3827 23.4749 21.7263C24.1313 21.07 24.5 20.1797 24.5 19.2515V11.0912Z" fill="#6B7280"/>
</svg>
