<svg width="100" height="100" viewBox="0 0 100 100" fill="none" xmlns="http://www.w3.org/2000/svg">
<rect x="0.5" y="0.5" width="99" height="99" rx="49.5" fill="#ECFDF5"/>
<rect x="0.5" y="0.5" width="99" height="99" rx="49.5" stroke="#A7F3D0"/>
<g clip-path="url(#clip0_66_4359)">
<path d="M52.302 24C36.6604 24 24 36.6583 24 52.302C24 53.1441 24.6827 53.8268 25.5249 53.8268H52.302C53.1441 53.8268 53.8268 53.1441 53.8268 52.302V25.5249C53.8268 24.6827 53.1441 24 52.302 24Z" fill="#10B981"/>
<path d="M41.4531 58.2353C41.1856 57.7468 40.6728 57.4431 40.1158 57.4431H31.0977C30.6123 57.4431 30.1558 57.6742 29.8686 58.0656C29.5812 58.457 29.4975 58.9616 29.6429 59.4247C32.515 68.5724 40.799 75.3734 50.7771 75.9999V64.5701C46.8634 64.0844 43.3787 61.7508 41.4531 58.2353Z" fill="#10B981"/>
<path d="M59.4248 29.6432C58.9617 29.4979 58.4569 29.5817 58.0657 29.8688C57.6742 30.1562 57.4432 30.6126 57.4432 31.098V40.1161C57.4432 40.673 57.7469 41.1857 58.2354 41.4533C61.7507 43.3791 64.0844 46.8637 64.57 50.7772H76C75.3719 40.7776 68.5508 32.5085 59.4248 29.6432Z" fill="#10B981"/>
<path d="M64.5719 53.8267C63.8802 59.4276 59.4278 63.88 53.8268 64.5718V75.9988C65.7252 75.2499 75.2489 65.7413 75.9988 53.8267H64.5719Z" fill="#10B981"/>
</g>
<defs>
<clipPath id="clip0_66_4359">
<rect width="52" height="52" fill="white" transform="translate(24 24)"/>
</clipPath>
</defs>
</svg>
