<svg width="100" height="100" viewBox="0 0 100 100" fill="none" xmlns="http://www.w3.org/2000/svg">
<rect x="0.5" y="0.5" width="99" height="99" rx="49.5" fill="#FEF7EC"/>
<rect x="0.5" y="0.5" width="99" height="99" rx="49.5" stroke="#FCDCBF"/>
<g clip-path="url(#clip0_66_4353)">
<path d="M75.3541 67.6028L75.2616 67.4779C73.3563 65.272 71.0153 63.6561 68.7515 62.0951C67.8273 61.4573 66.185 60.4295 65.0231 59.6027C67.7195 55.7953 69.1639 51.2429 69.1557 46.5773C69.1557 34.1085 59.0472 24 46.5773 24C34.1075 24 24 34.1085 24 46.5773C24 59.0462 34.1085 69.1557 46.5773 69.1557C51.2371 69.1627 55.7838 67.7214 59.5885 65.0312C60.4163 66.1921 61.443 67.8313 62.0819 68.7555C63.647 71.0234 65.2648 73.3594 67.4688 75.2627L67.5937 75.3541C68.2965 75.7838 69.1059 76.0076 69.9296 76C71.1748 75.9962 72.3744 75.5308 73.2964 74.6939L74.6594 73.334L74.6919 73.3005C76.1432 71.712 76.4215 69.3162 75.3541 67.6028ZM46.5773 63.2651C42.716 63.2655 38.974 61.927 35.9889 59.4777C33.0038 57.0283 30.9603 53.6197 30.2067 49.8326C29.4531 46.0455 30.036 42.1143 31.856 38.7087C33.676 35.3032 36.6205 32.6341 40.1879 31.1563C43.7552 29.6784 47.7247 29.4833 51.4198 30.604C55.1149 31.7248 58.3071 34.0922 60.4524 37.3027C62.5977 40.5133 63.5634 44.3684 63.185 48.2111C62.8065 52.0539 61.1073 55.6465 58.3769 58.3769C56.831 59.9314 54.9921 61.1638 52.9667 62.0029C50.9414 62.842 48.7697 63.271 46.5773 63.2651Z" fill="#F59E0B"/>
<path d="M46.5774 48.6604C50.2374 48.6604 53.2043 45.6934 53.2043 42.0334C53.2043 38.3735 50.2374 35.4065 46.5774 35.4065C42.9174 35.4065 39.9504 38.3735 39.9504 42.0334C39.9504 45.6934 42.9174 48.6604 46.5774 48.6604Z" fill="#F59E0B"/>
<path d="M57.4943 54.1245C57.3948 53.1951 56.9789 52.328 56.3162 51.6687C55.6508 51.0019 54.7783 50.5814 53.8421 50.4764C52.472 50.3312 49.0687 50.252 46.9491 50.252C44.8294 50.252 40.6583 50.3312 39.2872 50.4764C38.3513 50.5815 37.4789 51.0016 36.8131 51.6677C36.1507 52.3271 35.7351 53.1941 35.636 54.1235V54.152C35.6035 54.4668 35.5842 54.74 35.572 54.9736C35.9473 55.4643 36.3544 55.9298 36.7908 56.367C39.3871 58.963 42.9083 60.4213 46.5799 60.4213C50.2514 60.4213 53.7726 58.963 56.369 56.367C56.7985 55.9367 57.1999 55.479 57.5705 54.997C57.5552 54.7583 57.5329 54.478 57.4994 54.153L57.4943 54.1245Z" fill="#F59E0B"/>
</g>
<defs>
<clipPath id="clip0_66_4353">
<rect width="52" height="52" fill="white" transform="translate(24 24)"/>
</clipPath>
</defs>
</svg>
