<svg width="28" height="28" viewBox="0 0 28 28" fill="none" xmlns="http://www.w3.org/2000/svg">
<path d="M8.09831 5.83597C8.098 6.4548 7.85187 7.04817 7.41407 7.48554C6.97626 7.92291 6.38265 8.16844 5.76381 8.16813C5.14497 8.16782 4.5516 7.92169 4.11423 7.48389C3.67687 7.04609 3.43133 6.45247 3.43164 5.83363C3.43195 5.21479 3.67808 4.62142 4.11588 4.18406C4.55369 3.74669 5.1473 3.50116 5.76614 3.50147C6.38498 3.50177 6.97835 3.7479 7.41572 4.18571C7.85308 4.62351 8.09862 5.21713 8.09831 5.83597ZM8.16831 9.89597H3.50164V24.5026H8.16831V9.89597ZM15.5416 9.89597H10.8983V24.5026H15.495V16.8376C15.495 12.5676 21.06 12.171 21.06 16.8376V24.5026H25.6683V15.251C25.6683 8.05263 17.4316 8.32097 15.495 11.856L15.5416 9.89597Z" fill="#6B7280"/>
</svg>
