<svg width="28" height="28" viewBox="0 0 28 28" fill="none" xmlns="http://www.w3.org/2000/svg">
<g clip-path="url(#clip0_86_834)">
<path d="M21.3813 26.251C20.3138 26.251 18.8143 25.8649 16.5688 24.6103C13.8383 23.0791 11.7263 21.6654 9.01049 18.9567C6.39205 16.3399 5.11783 14.6457 3.33447 11.4006C1.31979 7.7365 1.66322 5.81588 2.04713 4.99502C2.50432 4.01393 3.17916 3.42713 4.05143 2.84471C4.54687 2.5201 5.07117 2.24184 5.61768 2.01346C5.67236 1.98994 5.72322 1.96752 5.76861 1.94729C6.03932 1.82533 6.44947 1.64104 6.96901 1.83791C7.31572 1.96807 7.62526 2.23439 8.10979 2.71291C9.10346 3.69291 10.4613 5.87549 10.9623 6.94736C11.2986 7.66979 11.5212 8.14666 11.5217 8.6815C11.5217 9.30768 11.2067 9.79057 10.8245 10.3117C10.7528 10.4096 10.6817 10.5031 10.6128 10.5939C10.1967 11.1408 10.1053 11.2988 10.1655 11.581C10.2874 12.1481 11.1969 13.8363 12.6915 15.3277C14.1861 16.819 15.8256 17.671 16.3949 17.7924C16.6892 17.8553 16.8505 17.7602 17.4149 17.3292C17.4958 17.2674 17.5789 17.2035 17.6659 17.1395C18.2488 16.7058 18.7093 16.399 19.3207 16.399H19.324C19.8561 16.399 20.3117 16.6298 21.0663 17.0104C22.0507 17.507 24.2989 18.8474 25.2849 19.8421C25.7646 20.3256 26.032 20.634 26.1627 20.9802C26.3596 21.5013 26.1742 21.9099 26.0533 22.1833C26.0331 22.2287 26.0106 22.2785 25.9871 22.3337C25.7569 22.8792 25.477 23.4024 25.151 23.8967C24.5696 24.7662 23.9806 25.4394 22.9974 25.8971C22.4924 26.136 21.9399 26.2569 21.3813 26.251Z" fill="#6B7280"/>
<path d="M21.9806 2.13183V11.4409H19.4534V4.4591H19.3988L17.3625 5.67728V3.53183L19.6534 2.13183H21.9806Z" fill="#6B7280"/>
</g>
<defs>
<clipPath id="clip0_86_834">
<rect width="28" height="28" fill="white" transform="translate(0 0.00146484)"/>
</clipPath>
</defs>
</svg>
