<svg width="48" height="48" viewBox="0 0 48 48" fill="none" xmlns="http://www.w3.org/2000/svg">
<g clip-path="url(#clip0_6_6635)">
<path d="M9.9375 26.4375H1.5C0.723375 26.4375 0.09375 27.0671 0.09375 27.8438V46.5938C0.09375 47.3704 0.723375 48 1.5 48H9.9375C10.7141 48 11.3438 47.3704 11.3438 46.5938V27.8438C11.3438 27.0671 10.7141 26.4375 9.9375 26.4375Z" fill="#2448A9"/>
<path d="M45.7305 28.2161C44.3166 27.5698 42.6502 27.8701 41.5509 28.9694C40.2297 30.2908 38.4012 32.1194 36.7891 33.7318C36.774 37.2093 33.941 40.034 30.46 40.034H23.25C22.4734 40.034 21.8438 39.4043 21.8438 38.6277C21.8438 37.8511 22.4734 37.2215 23.25 37.2215H30.4601C32.4025 37.2215 33.9772 35.6468 33.9772 33.7043C33.9772 31.7615 32.4022 30.1866 30.4593 30.1868L25.4571 30.1875C21.9717 28.1862 17.8324 27.8994 14.1562 29.331V44.7283C17.4445 45.4934 20.815 45.8813 24.1864 45.8813C27.4275 45.8813 30.6773 45.522 33.8464 44.8132C35.8405 44.3663 37.6593 43.3676 39.1061 41.9249L46.8121 34.2368C48.651 32.4023 48.0929 29.2959 45.7305 28.2161Z" fill="#2448A9"/>
<path d="M16.3666 21.9348L17.5246 21.2662C18.2268 21.7986 18.981 22.2373 19.7812 22.5787V23.9062C19.7812 24.6829 20.4108 25.3125 21.1874 25.3125H26.8124C27.589 25.3125 28.2187 24.6829 28.2187 23.9062V22.5787C29.0188 22.2373 29.773 21.7986 30.4752 21.2662L31.6332 21.9348C32.3058 22.3231 33.1658 22.0927 33.5542 21.4201L36.3667 16.5487C36.755 15.8761 36.5245 15.016 35.852 14.6277L34.6988 13.9619C34.7537 13.524 34.7813 13.0875 34.7813 12.6562C34.7813 12.225 34.7537 11.7885 34.699 11.3506L35.8522 10.6848C36.5247 10.2965 36.7552 9.43641 36.3668 8.76384L33.5543 3.89241C33.166 3.21984 32.306 2.98931 31.6334 3.37772L30.4753 4.04625C29.7733 3.51394 29.0189 3.07509 28.2188 2.73375V1.40625C28.2188 0.629625 27.5891 0 26.8125 0H21.1875C20.4109 0 19.7813 0.629625 19.7813 1.40625V2.73375C18.9811 3.07509 18.2267 3.51394 17.5247 4.04625L16.3667 3.37762C15.6941 2.98931 14.8341 3.21975 14.4458 3.89231L11.6333 8.76375C11.2449 9.43631 11.4754 10.2964 12.1479 10.6847L13.3011 11.3505C13.2463 11.7885 13.2188 12.225 13.2188 12.6562C13.2188 13.0875 13.2463 13.524 13.301 13.9619L12.1478 14.6277C11.4753 15.016 11.2448 15.8761 11.6332 16.5487L14.4457 21.4201C14.834 22.0928 15.694 22.3232 16.3666 21.9348ZM24 8.4375C26.3262 8.4375 28.2188 10.33 28.2188 12.6562C28.2188 14.9825 26.3262 16.875 24 16.875C21.6738 16.875 19.7813 14.9825 19.7813 12.6562C19.7813 10.33 21.6738 8.4375 24 8.4375Z" fill="#FF9A00"/>
</g>
<defs>
<clipPath id="clip0_6_6635">
<rect width="48" height="48" fill="white"/>
</clipPath>
</defs>
</svg>
