<svg width="48" height="48" viewBox="0 0 48 48" fill="none" xmlns="http://www.w3.org/2000/svg">
<path d="M33.5999 41.6C31.5523 41.6 29.6017 41.1906 27.8192 40.4555C27.6675 40.393 27.4925 40.4259 27.3764 40.5419L23.9719 43.9465C23.6569 44.2614 23.88 44.8 24.3254 44.8H37.5999C38.4831 44.8 39.1999 44.0832 39.1999 43.2V41.1103C39.1999 40.8277 38.9146 40.6338 38.6482 40.7282C37.0681 41.288 35.3718 41.6 33.5999 41.6Z" fill="#2448A9"/>
<path d="M37.6 4H5.6C4.7168 4 4 4.7168 4 5.6V43.2C4 44.0832 4.7168 44.8 5.6 44.8H7.0737C7.20631 44.8 7.33348 44.7473 7.42724 44.6536L19.41 32.6716C19.5551 32.5265 19.5961 32.3078 19.5187 32.1178C18.7998 30.3524 18.4 28.4236 18.4 26.4C18.4 18.0056 25.2056 11.2 33.6 11.2C35.32 11.2 36.9688 11.494 38.5091 12.0233C38.8432 12.1381 39.2 11.8956 39.2 11.5423V5.6C39.2 4.7168 38.4832 4 37.6 4ZM16.8 19.2H7.2V16H16.8V19.2ZM22.4 12.8H7.2V9.6H22.4V12.8Z" fill="#2448A9"/>
<path d="M33.5999 14.3999C26.9727 14.3999 21.5999 19.7727 21.5999 26.3999C21.5999 28.8455 22.3359 31.1167 23.5919 33.0143L15.7173 40.8889C14.9363 41.6699 14.9363 42.9363 15.7173 43.7173L16.2825 44.2825C17.0636 45.0635 18.3299 45.0635 19.1109 44.2825L26.9855 36.4079C28.8831 37.6639 31.1543 38.3999 33.5999 38.3999C40.2271 38.3999 45.5999 33.0271 45.5999 26.3999C45.5999 19.7727 40.2271 14.3999 33.5999 14.3999ZM29.5999 31.1999H26.3999V24.7999H29.5999V31.1999ZM35.1999 31.1999H31.9999V22.3999H35.1999V31.1999ZM40.7999 31.1999H37.5999V19.9999H40.7999V31.1999Z" fill="#FF9A00"/>
</svg>
