<svg width="48" height="48" viewBox="0 0 48 48" fill="none" xmlns="http://www.w3.org/2000/svg">
<path d="M45.804 28.856C45.8 28.852 45.796 28.848 45.792 28.844L42.98 26.26C43.066 25.5 43.108 24.742 43.108 24C43.108 23.258 43.066 22.5 42.98 21.74L45.804 19.144C46.974 18.044 47.244 16.296 46.448 14.874L43.132 9.138C42.344 7.74 40.644 7.076 39.084 7.562L35.44 8.712C34.214 7.786 32.904 7.026 31.532 6.444L30.688 2.698C30.332 1.11 28.95 0 27.326 0H20.674C19.05 0 17.668 1.11 17.312 2.698L16.468 6.444C15.096 7.026 13.788 7.786 12.56 8.712L8.91004 7.56C7.35204 7.072 5.65204 7.74 4.87604 9.122L1.54204 14.894C0.756044 16.296 1.02604 18.044 2.20804 19.156L5.02004 21.74C4.93404 22.5 4.89004 23.258 4.89004 24C4.89004 24.742 4.93204 25.5 5.01804 26.26L2.19404 28.856C1.02404 29.956 0.754044 31.704 1.55004 33.126L4.86604 38.862C5.65204 40.26 7.35004 40.92 8.91404 40.438L12.558 39.288C13.784 40.214 15.094 40.974 16.466 41.556L17.31 45.302C17.668 46.89 19.05 48 20.674 48H27.326C28.95 48 30.332 46.89 30.688 45.302L31.532 41.554C32.906 40.972 34.214 40.212 35.44 39.286L39.09 40.438C40.646 40.922 42.346 40.256 43.124 38.876L46.46 33.106C47.244 31.704 46.974 29.956 45.804 28.856ZM28.08 33.782C28.08 35.002 27.08 36.002 25.84 36.002H22.16C21.08 36.002 19.92 35.202 19.92 33.422V32.342H28.08V33.782ZM29.7 27.862C28.86 28.542 28.32 29.422 28.14 30.342H19.88C19.74 29.442 19.24 28.602 18.42 27.962C16.2 26.222 14.94 23.602 15 20.762C15.1 16.002 19.08 12.062 23.86 12.002C26.28 11.942 28.6 12.882 30.34 14.602C32.06 16.282 33 18.542 33 20.942C33 23.642 31.802 26.162 29.7 27.862Z" fill="#EC4899"/>
</svg>
