<svg width="48" height="48" viewBox="0 0 48 48" fill="none" xmlns="http://www.w3.org/2000/svg">
<path fill-rule="evenodd" clip-rule="evenodd" d="M30.958 45.5H8C6.542 45.5 5.142 44.92 4.11 43.89C3.08 42.858 2.5 41.458 2.5 40V8C2.5 6.542 3.08 5.142 4.11 4.11C5.142 3.08 6.542 2.5 8 2.5H25.172C26.1 2.5 26.99 2.868 27.646 3.526L36.474 12.354C37.132 13.01 37.5 13.9 37.5 14.828V23.13C36.126 22.928 34.728 22.962 33.364 23.23C32.214 23.454 31.254 24.24 30.804 25.322L30.464 26.142C30.016 26.084 29.582 26.028 29.582 26.028C28.42 25.876 27.26 26.314 26.49 27.198C25.448 28.394 24.646 29.78 24.132 31.282C23.752 32.39 23.952 33.614 24.664 34.544L25.206 35.25C24.932 35.608 24.664 35.956 24.664 35.956C23.952 36.886 23.752 38.11 24.132 39.218C24.646 40.72 25.448 42.106 26.49 43.302C27.26 44.186 28.42 44.624 29.582 44.472L30.464 44.358C30.636 44.774 30.804 45.178 30.804 45.178C30.85 45.288 30.902 45.396 30.958 45.5ZM11 29.5H20C20.828 29.5 21.5 28.828 21.5 28C21.5 27.172 20.828 26.5 20 26.5H11C10.172 26.5 9.5 27.172 9.5 28C9.5 28.828 10.172 29.5 11 29.5ZM25 6V13C25 14.104 25.896 15 27 15H34L25 6ZM11 22.5H27C27.828 22.5 28.5 21.828 28.5 21C28.5 20.172 27.828 19.5 27 19.5H11C10.172 19.5 9.5 20.172 9.5 21C9.5 21.828 10.172 22.5 11 22.5ZM11 36.5H20C20.828 36.5 21.5 35.828 21.5 35C21.5 34.172 20.828 33.5 20 33.5H11C10.172 33.5 9.5 34.172 9.5 35C9.5 35.828 10.172 36.5 11 36.5Z" fill="#2448A9"/>
<path fill-rule="evenodd" clip-rule="evenodd" d="M38.792 26.088C38.792 26.088 39.502 27.798 39.5 27.798C39.77 27.934 40.032 28.086 40.286 28.25L42.122 28.01C42.618 27.946 43.116 28.134 43.446 28.512C44.318 29.512 44.988 30.674 45.42 31.93C45.582 32.404 45.496 32.93 45.19 33.328C45.19 33.328 44.066 34.798 44.066 34.796C44.082 35.098 44.082 35.402 44.066 35.702L45.19 37.172C45.496 37.57 45.582 38.096 45.42 38.57C44.988 39.826 44.318 40.988 43.446 41.988C43.116 42.366 42.618 42.554 42.122 42.49C42.122 42.49 40.286 42.25 40.288 42.248C40.034 42.414 39.77 42.566 39.502 42.702L38.792 44.412C38.6 44.876 38.188 45.212 37.696 45.308C36.392 45.564 35.052 45.564 33.748 45.308C33.256 45.212 32.844 44.876 32.652 44.412C32.652 44.412 31.942 42.702 31.944 42.702C31.674 42.566 31.41 42.414 31.158 42.25L29.322 42.49C28.824 42.554 28.328 42.366 27.998 41.988C27.124 40.988 26.454 39.826 26.024 38.57C25.862 38.096 25.948 37.57 26.252 37.172C26.252 37.172 27.378 35.702 27.378 35.704C27.362 35.402 27.362 35.098 27.378 34.798L26.252 33.328C25.948 32.93 25.862 32.404 26.024 31.93C26.454 30.674 27.124 29.512 27.998 28.512C28.328 28.134 28.824 27.946 29.322 28.01C29.322 28.01 31.158 28.25 31.156 28.252C31.41 28.086 31.672 27.934 31.942 27.798L32.652 26.088C32.844 25.624 33.256 25.288 33.748 25.192C35.052 24.936 36.392 24.936 37.696 25.192C38.188 25.288 38.6 25.624 38.792 26.088ZM35.722 32.25C34.066 32.25 32.722 33.594 32.722 35.25C32.722 36.906 34.066 38.25 35.722 38.25C37.378 38.25 38.722 36.906 38.722 35.25C38.722 33.594 37.378 32.25 35.722 32.25Z" fill="#FF9A00"/>
</svg>
