<svg width="16" height="16" viewBox="0 0 16 16" fill="none" xmlns="http://www.w3.org/2000/svg">
<g id="star" clip-path="url(#clip0_127_9068)">
<path id="Vector" opacity="0.24" d="M9.15165 2.29628L10.3249 4.66208C10.4849 4.99141 10.9115 5.30729 11.2715 5.36778L13.3979 5.72399C14.7577 5.95251 15.0777 6.94723 14.0978 7.92849L12.4447 9.59529C12.1647 9.87756 12.0114 10.422 12.098 10.8118L12.5713 12.8752C12.9446 14.5084 12.0847 15.1402 10.6515 14.2866L8.65839 13.097C8.29845 12.8819 7.70519 12.8819 7.33852 13.097L5.34543 14.2866C3.91892 15.1402 3.05235 14.5016 3.42564 12.8752L3.89892 10.8118C3.98558 10.422 3.83226 9.87756 3.55229 9.59529L1.89914 7.92849C0.925918 6.94723 1.23922 5.95251 2.59906 5.72399L4.7255 5.36778C5.07879 5.30729 5.50541 4.99141 5.66539 4.66208L6.83859 2.29628C7.47852 1.01257 8.51838 1.01257 9.15165 2.29628Z" fill="#3C6BC3"/>
<path id="Vector_2" d="M9.15165 2.29628L10.3249 4.66208C10.4849 4.99141 10.9115 5.30729 11.2715 5.36778L13.3979 5.72399C14.7577 5.95251 15.0777 6.94723 14.0978 7.92849L12.4447 9.59529C12.1647 9.87756 12.0114 10.422 12.098 10.8118L12.5713 12.8752C12.9446 14.5084 12.0847 15.1402 10.6515 14.2866L8.65839 13.097C8.29845 12.8819 7.70519 12.8819 7.33852 13.097L5.34543 14.2866C3.91892 15.1402 3.05235 14.5016 3.42564 12.8752L3.89892 10.8118C3.98558 10.422 3.83226 9.87756 3.55229 9.59529L1.89914 7.92849C0.925918 6.94723 1.23922 5.95251 2.59906 5.72399L4.7255 5.36778C5.07879 5.30729 5.50541 4.99141 5.66539 4.66208L6.83859 2.29628C7.47852 1.01257 8.51838 1.01257 9.15165 2.29628Z" stroke="#3C6BC3" stroke-linecap="round" stroke-linejoin="round"/>
</g>
<defs>
<clipPath id="clip0_127_9068">
<rect width="16" height="16" fill="white"/>
</clipPath>
</defs>
</svg>
