<svg width="48" height="48" viewBox="0 0 48 48" fill="none" xmlns="http://www.w3.org/2000/svg">
<path d="M21.039 1.5083C10.2703 1.5083 1.49658 10.2703 1.49658 21.039C1.49658 31.8078 10.2703 40.5668 21.039 40.5668C25.8823 40.5668 30.3101 38.7867 33.7269 35.8572L35.4318 37.5621L34.3696 38.6243C34.0879 38.906 33.9297 39.2881 33.9297 39.6865C33.9297 40.0849 34.0879 40.467 34.3696 40.7487L38.8737 45.2558C39.8591 46.2418 41.1268 46.7205 42.3039 46.6672C43.481 46.6161 44.531 46.087 45.3057 45.3145C46.0804 44.542 46.6088 43.4956 46.6643 42.3186C46.7198 41.1415 46.2412 39.8715 45.2558 38.8854L40.7458 34.3725C40.6039 34.2305 40.4349 34.1184 40.249 34.0428C40.063 33.9672 39.8638 33.9296 39.663 33.9323C39.2717 33.9378 38.898 34.0957 38.6214 34.3725L37.5562 35.4376L35.8514 33.7328C38.7848 30.3157 40.5697 25.8853 40.5697 21.039C40.5697 10.2703 31.8077 1.5083 21.039 1.5083ZM24.032 13.5184H30.0444C30.2427 13.5176 30.4391 13.5561 30.6225 13.6317C30.8058 13.7072 30.9724 13.8183 31.1126 13.9585C31.2528 14.0987 31.3638 14.2652 31.4394 14.4486C31.5149 14.6319 31.5534 14.8284 31.5526 15.0266V21.039C31.5571 21.2391 31.5215 21.4381 31.448 21.6242C31.3745 21.8104 31.2645 21.98 31.1246 22.1231C30.9846 22.2662 30.8175 22.3798 30.633 22.4575C30.4485 22.5351 30.2504 22.5751 30.0503 22.5751C29.8501 22.5751 29.652 22.5351 29.4675 22.4575C29.283 22.3798 29.1159 22.2662 28.976 22.1231C28.836 21.98 28.7261 21.8104 28.6525 21.6242C28.579 21.4381 28.5435 21.2391 28.5479 21.039V18.6505L22.0924 25.0971C21.5064 25.6795 20.5599 25.6795 19.9739 25.0971L18.0343 23.1546L13.0871 28.1019C11.6759 29.6147 9.45131 27.4024 10.9568 25.9833L16.9692 19.9739C17.5552 19.3915 18.5017 19.3915 19.0877 19.9739L21.0273 21.9252L26.4293 16.5231H24.032C23.8319 16.5276 23.6329 16.4921 23.4467 16.4186C23.2605 16.3451 23.0908 16.2352 22.9477 16.0952C22.8046 15.9553 22.6908 15.7881 22.6132 15.6036C22.5355 15.4191 22.4955 15.2209 22.4955 15.0208C22.4955 14.8206 22.5355 14.6224 22.6132 14.4379C22.6908 14.2534 22.8046 14.0863 22.9477 13.9463C23.0908 13.8064 23.2605 13.6964 23.4467 13.6229C23.6329 13.5494 23.8319 13.5139 24.032 13.5184Z" fill="#F97316"/>
</svg>
