<svg width="28" height="28" viewBox="0 0 28 28" fill="none" xmlns="http://www.w3.org/2000/svg">
<path d="M26.2016 7.00081C25.3033 7.40915 24.3349 7.67748 23.3316 7.80581C24.3583 7.18748 25.1516 6.20748 25.5249 5.02915C24.5566 5.61248 23.4833 6.02081 22.3516 6.25415C21.4299 5.25081 20.1349 4.66748 18.6649 4.66748C15.9233 4.66748 13.6833 6.90748 13.6833 9.67248C13.6833 10.0691 13.7299 10.4541 13.8116 10.8158C9.65826 10.6058 5.95992 8.61081 3.49826 5.58915C3.06659 6.32415 2.82159 7.18748 2.82159 8.09748C2.82159 9.83581 3.69659 11.3758 5.04992 12.2508C4.22159 12.2508 3.45159 12.0175 2.77492 11.6675V11.7025C2.77492 14.1291 4.50159 16.1591 6.78826 16.6141C6.0541 16.8151 5.28337 16.843 4.53659 16.6958C4.85346 17.6904 5.47405 18.5606 6.31111 19.1842C7.14817 19.8078 8.15961 20.1535 9.20325 20.1725C7.43416 21.573 5.24125 22.33 2.98492 22.3191C2.58826 22.3191 2.19159 22.2958 1.79492 22.2491C4.01159 23.6725 6.64825 24.5008 9.47159 24.5008C18.6649 24.5008 23.7166 16.8708 23.7166 10.2558C23.7166 10.0341 23.7166 9.82415 23.7049 9.60248C24.6849 8.90248 25.5249 8.01581 26.2016 7.00081Z" fill="#6B7280"/>
</svg>
