<svg width="100" height="100" viewBox="0 0 100 100" fill="none" xmlns="http://www.w3.org/2000/svg">
<rect x="0.5" y="0.5" width="99" height="99" rx="49.5" fill="#FDF4FF"/>
<rect x="0.5" y="0.5" width="99" height="99" rx="49.5" stroke="#F5D0FE"/>
<path d="M72.192 58.125C72.5741 57.844 72.8753 57.4672 73.0653 57.0326C73.2552 56.598 73.3272 56.121 73.2739 55.6497C73.2206 55.1784 73.0439 54.7295 72.7617 54.3483C72.4795 53.9671 72.1018 53.6671 71.6666 53.4785V49.7725L69.4999 50.6933V53.4785C69.0645 53.667 68.6865 53.9671 68.4041 54.3484C68.1218 54.7297 67.945 55.1787 67.8917 55.6502C67.8384 56.1216 67.9105 56.5988 68.1006 57.0335C68.2907 57.4683 68.5922 57.8451 68.9745 58.126C68.6344 58.3759 68.3577 58.7021 68.1667 59.0784C67.9757 59.4548 67.8758 59.8707 67.8749 60.2927V63C67.8749 63.2873 67.9891 63.5628 68.1922 63.766C68.3954 63.9692 68.6709 64.0833 68.9583 64.0833H72.2083C72.4956 64.0833 72.7711 63.9692 72.9743 63.766C73.1775 63.5628 73.2916 63.2873 73.2916 63V60.2916C73.2907 59.8696 73.1908 59.4537 72.9998 59.0774C72.8088 58.701 72.5321 58.3748 72.192 58.125Z" fill="#D946EF"/>
<path d="M66.25 52.0691V60.0858C66.2558 61.0177 66.0192 61.9352 65.5634 62.7481C65.1076 63.5609 64.4482 64.2413 63.65 64.7224C59.5077 67.1416 54.7969 68.4165 50 68.4165C45.203 68.4165 40.4922 67.1416 36.35 64.7224C35.5518 64.2413 34.8924 63.5609 34.4366 62.7481C33.9808 61.9352 33.7441 61.0177 33.75 60.0858V52.0691L47.0425 57.6916C47.9789 58.0849 48.9843 58.2875 50 58.2875C51.0156 58.2875 52.0211 58.0849 52.9575 57.6916L66.25 52.0691Z" fill="#D946EF"/>
<path d="M73.8723 40.5066L52.1103 31.2983C51.4416 31.017 50.7234 30.8721 49.9978 30.8721C49.2723 30.8721 48.5541 31.017 47.8853 31.2983L26.1233 40.5066C25.5351 40.7554 25.0333 41.172 24.6804 41.7044C24.3276 42.2367 24.1394 42.8612 24.1394 43.4999C24.1394 44.1386 24.3276 44.7631 24.6804 45.2954C25.0333 45.8278 25.5351 46.2443 26.1233 46.4931L47.8853 55.7015C48.554 55.9831 49.2723 56.1282 49.9978 56.1282C50.7234 56.1282 51.4416 55.9831 52.1103 55.7015L73.8723 46.4931C74.4605 46.2443 74.9624 45.8278 75.3152 45.2954C75.6681 44.7631 75.8562 44.1386 75.8562 43.4999C75.8562 42.8612 75.6681 42.2367 75.3152 41.7044C74.9624 41.172 74.4605 40.7554 73.8723 40.5066Z" fill="#D946EF"/>
</svg>
