<svg width="48" height="48" viewBox="0 0 48 48" fill="none" xmlns="http://www.w3.org/2000/svg">
<path d="M9.65998 11.1271C10.326 11.1271 10.866 10.5872 10.866 9.92112C10.866 9.25506 10.326 8.71512 9.65998 8.71512C8.99392 8.71512 8.45398 9.25506 8.45398 9.92112C8.45398 10.5872 8.99392 11.1271 9.65998 11.1271Z" fill="#8B5CF6"/>
<path d="M13.908 11.1271C14.574 11.1271 15.114 10.5872 15.114 9.92112C15.114 9.25506 14.574 8.71512 13.908 8.71512C13.2419 8.71512 12.702 9.25506 12.702 9.92112C12.702 10.5872 13.2419 11.1271 13.908 11.1271Z" fill="#8B5CF6"/>
<path d="M18.156 11.1271C18.822 11.1271 19.362 10.5872 19.362 9.92112C19.362 9.25506 18.822 8.71512 18.156 8.71512C17.4899 8.71512 16.95 9.25506 16.95 9.92112C16.95 10.5872 17.4899 11.1271 18.156 11.1271Z" fill="#8B5CF6"/>
<path d="M30.1065 30.2866L34.041 43.2196C34.422 44.4721 36.186 44.4991 36.6045 43.2571L38.4465 37.7911C38.5815 37.3921 38.8935 37.0801 39.2925 36.9451L44.7585 35.1031C45.999 34.6846 45.9735 32.9206 44.721 32.5396L31.788 28.6051C30.7575 28.2931 29.7945 29.2561 30.1065 30.2866Z" fill="#8B5CF6"/>
<path d="M27.9555 30.9407C27.6195 29.8397 27.8205 28.6772 28.5045 27.7547C29.1825 26.8412 30.2595 26.2952 31.389 26.2952C31.7445 26.2952 32.0985 26.3477 32.4435 26.4527L44.0715 29.9882V9.40666C44.0715 6.33166 41.5665 3.82666 38.4915 3.82666H7.90495C4.82995 3.82666 2.32495 6.33166 2.32495 9.40666V34.3817C2.32495 37.4717 4.82995 39.9767 7.91995 39.9767H30.702L27.9555 30.9407ZM5.02495 13.3367V9.40816C5.02495 7.81966 6.31645 6.52816 7.90495 6.52816H38.49C40.0785 6.52816 41.37 7.81966 41.37 9.40816V13.3367H5.02495Z" fill="#8B5CF6"/>
</svg>
