<svg width="28" height="28" viewBox="0 0 28 28" fill="none" xmlns="http://www.w3.org/2000/svg">
<path d="M14.2853 4.66748C14.9083 4.67098 16.467 4.68615 18.1237 4.75265L18.7117 4.77831C20.3788 4.85648 22.0448 4.99181 22.872 5.22165C23.9745 5.53198 24.8402 6.43498 25.133 7.58065C25.5997 9.40065 25.658 12.9496 25.665 13.8095L25.6662 13.9868V14.1898C25.658 15.0496 25.5997 18.5998 25.133 20.4186C24.8367 21.5678 23.9698 22.472 22.872 22.7776C22.0448 23.0075 20.3788 23.1428 18.7117 23.221L18.1237 23.2478C16.467 23.3131 14.9083 23.3295 14.2853 23.3318L14.0112 23.333H13.7137C12.3953 23.3248 6.88165 23.2653 5.12698 22.7776C4.02565 22.4673 3.15882 21.5643 2.86598 20.4186C2.39932 18.5986 2.34098 15.0496 2.33398 14.1898V13.8095C2.34098 12.9496 2.39932 9.39948 2.86598 7.58065C3.16232 6.43148 4.02915 5.52731 5.12815 5.22281C6.88165 4.73398 12.3965 4.67448 13.7148 4.66748H14.2853ZM11.6662 9.91748V18.0841L18.6662 14.0008L11.6662 9.91748Z" fill="#6B7280"/>
</svg>
