<svg width="1441" height="1598" viewBox="0 0 1441 1598" fill="none" xmlns="http://www.w3.org/2000/svg">
<path opacity="0.06" d="M1194.07 1597.88C1122.23 1597.06 1052.39 1575.44 984.24 1552.69C808.763 1494.11 635.232 1426.38 476.7 1331.05C318.167 1235.72 174.386 1111.39 74.6397 955.626C24.9331 878.047 -14.4412 785.57 5.24781 695.604C27.1576 595.55 115.926 524.78 205.642 475.42C295.377 426.038 394.099 387.666 465.648 314.397C519.336 259.398 553.901 188.38 605.478 131.369C699.873 27.0615 851.822 -21.4152 989.212 8.93604C1071.68 27.1501 1146.99 73.3259 1203.04 136.443C1249.89 189.172 1257.07 266.754 1220.46 327.02C1220.26 327.365 1220.05 327.71 1219.83 328.077C1165.47 416.516 1060.94 468.742 1018.68 563.567C980.495 649.278 1003.36 752.018 1052.55 831.927C1101.74 911.836 1174.19 974.176 1243.1 1037.88C1312.01 1101.58 1380.12 1170.34 1416.55 1256.8C1452.97 1343.27 1451.11 1452.01 1388.82 1522.18C1341.14 1575.89 1265.89 1598.73 1194.05 1597.91L1194.07 1597.88Z" fill="#3B76E5"/>
</svg>
