<svg width="20" height="20" viewBox="0 0 20 20" fill="none" xmlns="http://www.w3.org/2000/svg">
<g clip-path="url(#clip0_127_810)">
<g opacity="0.24">
<path d="M10.2717 7.9165H9.58342C8.79775 7.9165 8.40491 7.9165 8.16082 8.16058C7.91675 8.40467 7.91675 8.7975 7.91675 9.58317V16.6665C7.91675 17.4522 7.91675 17.845 8.16082 18.0891C8.40491 18.3332 8.79775 18.3332 9.58342 18.3332H10.0001C10.7857 18.3332 11.1786 18.3332 11.4227 18.0891C11.6667 17.845 11.6667 17.4522 11.6667 16.6665L11.6668 13.7499C11.6668 12.3693 12.1068 11.2499 13.4067 11.2499C14.0565 11.2499 14.5834 11.8096 14.5834 12.4999V16.2499C14.5834 17.0356 14.5834 17.4284 14.8275 17.6725C15.0715 17.9166 15.4644 17.9166 16.2501 17.9166H16.6657C17.4512 17.9166 17.8439 17.9166 18.088 17.6726C18.3321 17.4286 18.3322 17.0358 18.3323 16.2503L18.3335 11.6667C18.3335 9.59567 16.3637 7.9167 14.4141 7.9167C13.3042 7.9167 12.314 8.46075 11.6668 9.3115C11.6667 8.78642 11.6667 8.52392 11.5527 8.329C11.4805 8.20555 11.3777 8.10278 11.2542 8.03056C11.0593 7.9165 10.7968 7.9165 10.2717 7.9165Z" fill="white"/>
<path d="M3.75008 7.9165H3.33341C2.54774 7.9165 2.15491 7.9165 1.91082 8.16058C1.66675 8.40467 1.66675 8.7975 1.66675 9.58317V16.6665C1.66675 17.4522 1.66675 17.845 1.91082 18.0891C2.15491 18.3332 2.54774 18.3332 3.33341 18.3332H3.75008C4.53576 18.3332 4.92859 18.3332 5.17267 18.0891C5.41675 17.845 5.41675 17.4522 5.41675 16.6665V9.58317C5.41675 8.7975 5.41675 8.40467 5.17267 8.16058C4.92859 7.9165 4.53576 7.9165 3.75008 7.9165Z" fill="white"/>
</g>
<g filter="url(#filter0_d_127_810)">
<path d="M1.91082 8.16058L1.55728 7.80702L1.55726 7.80704L1.91082 8.16058ZM1.91082 18.0891L1.55726 18.4426L1.55727 18.4426L1.91082 18.0891ZM5.17267 18.0891L5.52623 18.4426L5.52623 18.4426L5.17267 18.0891ZM5.17267 8.16058L5.52624 7.80704L5.52622 7.80702L5.17267 8.16058ZM8.16082 8.16058L7.80728 7.80701L7.80726 7.80704L8.16082 8.16058ZM8.16082 18.0891L7.80726 18.4426L7.80728 18.4426L8.16082 18.0891ZM11.6667 16.6665L11.1667 16.6665V16.6665H11.6667ZM11.6668 13.7499L12.1668 13.7499V13.7499H11.6668ZM14.8275 17.6725L15.1811 17.319L15.1811 17.319L14.8275 17.6725ZM18.3323 16.2503L17.8323 16.2502L17.8323 16.2502L18.3323 16.2503ZM18.3335 11.6667L18.8335 11.6668V11.6667H18.3335ZM11.6668 9.3115L11.1668 9.31158C11.1669 9.52616 11.3038 9.71679 11.5071 9.78532C11.7105 9.85385 11.9349 9.785 12.0648 9.61422L11.6668 9.3115ZM11.5527 8.329L11.9844 8.07658L11.9843 8.07645L11.5527 8.329ZM11.2542 8.03056L11.0017 8.46211L11.0017 8.46211L11.2542 8.03056ZM3.75008 7.4165H3.33341V8.4165H3.75008V7.4165ZM3.33341 7.4165C2.95471 7.4165 2.62039 7.41544 2.3524 7.45147C2.07003 7.48944 1.7877 7.5766 1.55728 7.80702L2.26437 8.51414C2.27803 8.50048 2.31416 8.46561 2.48565 8.44255C2.67151 8.41757 2.92644 8.4165 3.33341 8.4165V7.4165ZM1.55726 7.80704C1.32685 8.03746 1.23968 8.31979 1.20172 8.60216C1.16569 8.87015 1.16675 9.20447 1.16675 9.58317H2.16675C2.16675 9.1762 2.16781 8.92128 2.1928 8.73541C2.21585 8.56392 2.25072 8.52779 2.26439 8.51412L1.55726 7.80704ZM1.16675 9.58317V16.6665H2.16675V9.58317H1.16675ZM1.16675 16.6665C1.16675 17.0452 1.16569 17.3795 1.20172 17.6475C1.23968 17.9299 1.32685 18.2122 1.55726 18.4426L2.26438 17.7355C2.25072 17.7219 2.21585 17.6857 2.1928 17.5143C2.16781 17.3284 2.16675 17.0735 2.16675 16.6665H1.16675ZM1.55727 18.4426C1.78769 18.6731 2.07002 18.7602 2.3524 18.7982C2.62039 18.8342 2.95471 18.8332 3.33341 18.8332V17.8332C2.92644 17.8332 2.67151 17.8321 2.48565 17.8071C2.31417 17.7841 2.27804 17.7492 2.26438 17.7355L1.55727 18.4426ZM3.33341 18.8332H3.75008V17.8332H3.33341V18.8332ZM3.75008 18.8332C4.12878 18.8332 4.46311 18.8342 4.7311 18.7982C5.01348 18.7602 5.2958 18.6731 5.52623 18.4426L4.81912 17.7355C4.80546 17.7492 4.76933 17.7841 4.59785 17.8071C4.41198 17.8321 4.15705 17.8332 3.75008 17.8332V18.8332ZM5.52623 18.4426C5.75665 18.2122 5.84382 17.9299 5.88178 17.6475C5.91781 17.3795 5.91675 17.0452 5.91675 16.6665H4.91675C4.91675 17.0735 4.91569 17.3284 4.8907 17.5143C4.86764 17.6857 4.83277 17.7219 4.81911 17.7355L5.52623 18.4426ZM5.91675 16.6665V9.58317H4.91675V16.6665H5.91675ZM5.91675 9.58317C5.91675 9.20447 5.91781 8.87015 5.88178 8.60216C5.84382 8.31979 5.75665 8.03746 5.52624 7.80704L4.81911 8.51412C4.83277 8.52779 4.86764 8.56392 4.8907 8.73541C4.91569 8.92128 4.91675 9.1762 4.91675 9.58317H5.91675ZM5.52622 7.80702C5.2958 7.5766 5.01347 7.48944 4.7311 7.45147C4.46311 7.41544 4.12878 7.4165 3.75008 7.4165V8.4165C4.15705 8.4165 4.41198 8.41757 4.59785 8.44255C4.76933 8.46561 4.80547 8.50048 4.81913 8.51414L5.52622 7.80702ZM4.91675 3.5415C4.91675 4.3009 4.30114 4.9165 3.54175 4.9165V5.9165C4.85342 5.9165 5.91675 4.85318 5.91675 3.5415H4.91675ZM3.54175 4.9165C2.78236 4.9165 2.16675 4.3009 2.16675 3.5415H1.16675C1.16675 4.85318 2.23007 5.9165 3.54175 5.9165V4.9165ZM2.16675 3.5415C2.16675 2.78211 2.78236 2.1665 3.54175 2.1665V1.1665C2.23007 1.1665 1.16675 2.22983 1.16675 3.5415H2.16675ZM3.54175 2.1665C4.30114 2.1665 4.91675 2.78211 4.91675 3.5415H5.91675C5.91675 2.22983 4.85342 1.1665 3.54175 1.1665V2.1665ZM10.2717 7.4165H9.58342V8.4165H10.2717V7.4165ZM9.58342 7.4165C9.20472 7.4165 8.87039 7.41544 8.60241 7.45147C8.32003 7.48944 8.03771 7.5766 7.80728 7.80701L8.51436 8.51414C8.52803 8.50048 8.56417 8.46561 8.73565 8.44255C8.92152 8.41757 9.17645 8.4165 9.58342 8.4165V7.4165ZM7.80726 7.80704C7.57685 8.03746 7.48968 8.31979 7.45172 8.60216C7.41569 8.87015 7.41675 9.20447 7.41675 9.58317H8.41675C8.41675 9.1762 8.41781 8.92128 8.4428 8.73541C8.46585 8.56392 8.50072 8.52779 8.51439 8.51412L7.80726 7.80704ZM7.41675 9.58317V16.6665H8.41675V9.58317H7.41675ZM7.41675 16.6665C7.41675 17.0452 7.41569 17.3795 7.45172 17.6475C7.48968 17.9299 7.57685 18.2122 7.80726 18.4426L8.51438 17.7355C8.50072 17.7219 8.46585 17.6857 8.4428 17.5143C8.41781 17.3284 8.41675 17.0735 8.41675 16.6665H7.41675ZM7.80728 18.4426C8.0377 18.6731 8.32003 18.7602 8.6024 18.7982C8.87039 18.8342 9.20472 18.8332 9.58342 18.8332V17.8332C9.17645 17.8332 8.92152 17.8321 8.73565 17.8071C8.56417 17.7841 8.52804 17.7492 8.51437 17.7355L7.80728 18.4426ZM9.58342 18.8332H10.0001V17.8332H9.58342V18.8332ZM10.0001 18.8332C10.3788 18.8332 10.7131 18.8342 10.9811 18.7982C11.2635 18.7602 11.5458 18.6731 11.7762 18.4426L11.0691 17.7355C11.0555 17.7492 11.0193 17.7841 10.8478 17.8071C10.662 17.8321 10.4071 17.8332 10.0001 17.8332V18.8332ZM11.7762 18.4426C12.0066 18.2122 12.0938 17.9299 12.1318 17.6475C12.1678 17.3795 12.1667 17.0452 12.1667 16.6665H11.1667C11.1667 17.0735 11.1657 17.3284 11.1407 17.5143C11.1176 17.6857 11.0828 17.7219 11.0691 17.7355L11.7762 18.4426ZM12.1667 16.6665L12.1668 13.7499L11.1668 13.7499L11.1667 16.6665L12.1667 16.6665ZM12.1668 13.7499C12.1668 13.0977 12.2734 12.5793 12.4776 12.2401C12.6595 11.9381 12.9318 11.7499 13.4067 11.7499V10.7499C12.5817 10.7499 11.9841 11.1214 11.621 11.7242C11.2803 12.2899 11.1668 13.0215 11.1668 13.7499H12.1668ZM13.4067 11.7499C13.7524 11.7499 14.0834 12.0569 14.0834 12.4999H15.0834C15.0834 11.5623 14.3606 10.7499 13.4067 10.7499V11.7499ZM14.0834 12.4999V16.2499H15.0834V12.4999H14.0834ZM14.0834 16.2499C14.0834 16.6286 14.0824 16.9629 14.1184 17.2309C14.1564 17.5133 14.2435 17.7956 14.4739 18.0261L15.1811 17.319C15.1674 17.3053 15.1325 17.2692 15.1095 17.0977C15.0845 16.9118 15.0834 16.6569 15.0834 16.2499H14.0834ZM14.4739 18.026C14.7043 18.2565 14.9867 18.3437 15.269 18.3816C15.537 18.4176 15.8714 18.4166 16.2501 18.4166V17.4166C15.8431 17.4166 15.5882 17.4155 15.4023 17.3905C15.2308 17.3675 15.1947 17.3326 15.1811 17.319L14.4739 18.026ZM16.2501 18.4166H16.6657V17.4166H16.2501V18.4166ZM16.6657 18.4166C17.0443 18.4166 17.3785 18.4176 17.6465 18.3816C17.9288 18.3437 18.2111 18.2565 18.4415 18.0262L17.7345 17.319C17.7208 17.3326 17.6847 17.3675 17.5132 17.3905C17.3274 17.4155 17.0725 17.4166 16.6657 17.4166V18.4166ZM18.4415 18.0262C18.6719 17.7958 18.7591 17.5136 18.7972 17.2313C18.8332 16.9633 18.8323 16.6291 18.8323 16.2504L17.8323 16.2502C17.8322 16.6571 17.8311 16.912 17.8061 17.0978C17.783 17.2692 17.7482 17.3053 17.7345 17.319L18.4415 18.0262ZM18.8323 16.2505L18.8335 11.6668L17.8335 11.6665L17.8323 16.2502L18.8323 16.2505ZM18.8335 11.6667C18.8335 9.282 16.6008 7.4167 14.4141 7.4167V8.4167C16.1267 8.4167 17.8335 9.90934 17.8335 11.6667H18.8335ZM14.4141 7.4167C13.1346 7.4167 12.0022 8.04477 11.2689 9.00879L12.0648 9.61422C12.6258 8.87673 13.4737 8.4167 14.4141 8.4167V7.4167ZM12.1668 9.31142C12.1668 9.0582 12.1673 8.83451 12.1504 8.65082C12.133 8.46014 12.0937 8.26348 11.9844 8.07658L11.1211 8.58143C11.1258 8.58944 11.1435 8.62149 11.1546 8.74207C11.1663 8.86962 11.1668 9.03972 11.1668 9.31158L12.1668 9.31142ZM11.9843 8.07645C11.8687 7.8789 11.7042 7.71452 11.5068 7.59901L11.0017 8.46211C11.0512 8.49104 11.0923 8.5322 11.1212 8.58156L11.9843 8.07645ZM11.5068 7.59902C11.3198 7.48963 11.1232 7.45032 10.9324 7.43285C10.7487 7.41601 10.525 7.4165 10.2717 7.4165V8.4165C10.5436 8.4165 10.7137 8.41699 10.8412 8.42868C10.9617 8.43972 10.9937 8.45744 11.0017 8.46211L11.5068 7.59902Z" fill="white"/>
</g>
</g>
<defs>
<filter id="filter0_d_127_810" x="-2.83325" y="1.1665" width="25.6667" height="25.6665" filterUnits="userSpaceOnUse" color-interpolation-filters="sRGB">
<feFlood flood-opacity="0" result="BackgroundImageFix"/>
<feColorMatrix in="SourceAlpha" type="matrix" values="0 0 0 0 0 0 0 0 0 0 0 0 0 0 0 0 0 0 127 0" result="hardAlpha"/>
<feOffset dy="4"/>
<feGaussianBlur stdDeviation="2"/>
<feComposite in2="hardAlpha" operator="out"/>
<feColorMatrix type="matrix" values="0 0 0 0 0 0 0 0 0 0 0 0 0 0 0 0 0 0 0.25 0"/>
<feBlend mode="normal" in2="BackgroundImageFix" result="effect1_dropShadow_127_810"/>
<feBlend mode="normal" in="SourceGraphic" in2="effect1_dropShadow_127_810" result="shape"/>
</filter>
<clipPath id="clip0_127_810">
<rect width="20" height="20" fill="white"/>
</clipPath>
</defs>
</svg>
