<svg width="1234" height="1217" viewBox="0 0 1234 1217" fill="none" xmlns="http://www.w3.org/2000/svg">
<path opacity="0.06" d="M1051.77 162.568C908.919 47.1469 718.93 6.20024 535.349 0.629606C420.965 -2.83252 303.039 6.90306 200.193 57.0648C97.3727 107.253 11.9234 204.4 1.21944 318.26C-5.49982 389.637 16.7415 460.207 38.6963 528.46C80.887 659.552 123.104 790.644 165.294 921.736C189.515 996.966 215.533 1075.22 271.448 1131.08C325.88 1185.43 403.75 1212.14 480.657 1215.5C542.589 1218.2 617.777 1224.68 735.963 1155.55C783.545 1127.72 827.089 1093.54 866.051 1054.6C922.201 998.476 978.351 942.379 1034.5 886.256C1104.12 816.675 1175.63 744.231 1210.95 652.394C1276.84 481.006 1194.59 277.964 1051.72 162.542L1051.77 162.568Z" fill="#0040FF" fill-opacity="0.4"/>
</svg>
