<svg width="1374" height="1249" viewBox="0 0 1374 1249" fill="none" xmlns="http://www.w3.org/2000/svg">
<path opacity="0.06" d="M1297.99 949.435C1253.03 993.053 1197.05 1022.02 1141.45 1049.23C998.27 1119.28 850.902 1182.23 696.542 1218.16C542.182 1254.09 379.853 1262.26 226.238 1223.09C149.714 1203.59 70.7987 1168.14 29.9274 1098.01C-15.5195 1020.02 -2.30702 919.82 24.118 832.852C50.543 745.856 89.0238 660.441 90.1034 569.215C90.9003 500.748 70.4131 433.701 68.7165 365.235C65.6319 239.949 131.103 115.307 234.053 50.4553C295.848 11.5229 369.699 -4.97109 441.623 1.2945C501.721 6.51583 551.924 52.1422 564.802 113.513C564.879 113.861 564.956 114.209 565.034 114.584C583.541 205.034 549.636 302.954 579.403 390.083C606.316 468.831 681.067 521.045 758.645 542.358C836.224 563.672 917.838 559.361 998.064 558.103C1078.29 556.844 1161.01 559.334 1234.55 592.724C1308.09 626.114 1371.07 697.392 1373.9 780.933C1376.06 844.874 1342.95 905.843 1297.99 949.461V949.435Z" fill="#0040FF" fill-opacity="0.4"/>
</svg>
