<svg width="20" height="20" viewBox="0 0 20 20" fill="none" xmlns="http://www.w3.org/2000/svg">
<path opacity="0.24" fill-rule="evenodd" clip-rule="evenodd" d="M14.2946 16.661C12.9543 16.9342 11.5082 17.0832 10.0001 17.0832C8.492 17.0832 7.04582 16.9342 5.70555 16.661C4.03146 16.3198 3.19442 16.1491 2.43058 15.167C1.66675 14.1849 1.66675 13.0576 1.66675 10.8028V9.19692C1.66675 6.94211 1.66675 5.81473 2.43058 4.83265C3.19442 3.85057 4.03146 3.67995 5.70555 3.33869C7.04582 3.06548 8.492 2.9165 10.0001 2.9165C11.5082 2.9165 12.9543 3.06548 14.2946 3.33869C15.9687 3.67995 16.8057 3.85057 17.5696 4.83265C18.3334 5.81473 18.3334 6.94211 18.3334 9.19692V10.8028C18.3334 13.0576 18.3334 14.1849 17.5696 15.167C16.8057 16.1491 15.9687 16.3198 14.2946 16.661ZM11.2042 11.8533C12.5202 11.128 13.1782 10.7654 13.3018 10.2606C13.3439 10.0888 13.3439 9.91092 13.3018 9.73909C13.1782 9.23425 12.5202 8.87167 11.2042 8.14645C9.77275 7.35771 9.05708 6.96335 8.47742 7.11529C8.28108 7.16675 8.10025 7.25723 7.94841 7.37999C7.50008 7.74244 7.50008 8.49492 7.50008 9.99984C7.50008 11.5048 7.50008 12.2573 7.94841 12.6197C8.10025 12.7424 8.28108 12.8329 8.47742 12.8844C9.05708 13.0363 9.77275 12.6419 11.2042 11.8533Z" fill="white"/>
<path d="M10.0001 17.0832C11.5082 17.0832 12.9543 16.9342 14.2946 16.661C15.9687 16.3198 16.8057 16.1491 17.5696 15.167C18.3334 14.1849 18.3334 13.0576 18.3334 10.8028V9.19692C18.3334 6.94211 18.3334 5.81473 17.5696 4.83265C16.8057 3.85057 15.9687 3.67995 14.2946 3.33869C12.9543 3.06548 11.5082 2.9165 10.0001 2.9165C8.492 2.9165 7.04582 3.06548 5.70555 3.33869C4.03146 3.67995 3.19442 3.85057 2.43058 4.83265C1.66675 5.81473 1.66675 6.94211 1.66675 9.19692V10.8028C1.66675 13.0576 1.66675 14.1849 2.43058 15.167C3.19442 16.1491 4.03146 16.3198 5.70555 16.661C7.04582 16.9342 8.492 17.0832 10.0001 17.0832Z" stroke="white"/>
<path d="M13.3018 10.2609C13.1781 10.7657 12.5201 11.1283 11.2041 11.8536C9.77267 12.6422 9.057 13.0367 8.47733 12.8847C8.281 12.8332 8.10017 12.7427 7.94832 12.62C7.5 12.2576 7.5 11.5051 7.5 10.0002C7.5 8.49524 7.5 7.74276 7.94832 7.38031C8.10017 7.25754 8.281 7.16707 8.47733 7.11561C9.057 6.96367 9.77267 7.35804 11.2041 8.14677C12.5201 8.87199 13.1781 9.23458 13.3018 9.73941C13.3438 9.91124 13.3438 10.0891 13.3018 10.2609Z" stroke="white" stroke-linejoin="round"/>
</svg>
