<svg width="81" height="80" viewBox="0 0 81 80" fill="none" xmlns="http://www.w3.org/2000/svg">
<g clip-path="url(#clip0_47_4248)">
<path d="M29.9588 61.3281C29.9588 61.3281 26.9794 63.0618 32.0819 63.6468C38.2644 64.3531 41.4238 64.2518 48.2351 62.9643C48.2351 62.9643 50.0294 64.0862 52.5307 65.0587C37.2563 71.6025 17.9632 64.6794 29.9588 61.3281ZM28.0913 52.7875C28.0913 52.7875 24.7488 55.2619 29.8557 55.7906C36.4601 56.4725 41.6744 56.5281 50.7019 54.7906C50.7019 54.7906 51.9476 56.0562 53.9094 56.7475C35.4457 62.1475 14.8807 57.1725 28.0913 52.7875Z" fill="#0074BD"/>
<path d="M43.8233 38.2919C47.5889 42.6263 42.8358 46.5232 42.8358 46.5232C42.8358 46.5232 52.3914 41.5913 48.0039 35.4126C43.9045 29.6532 40.762 26.7925 57.7758 16.925C57.7758 16.9257 31.0689 23.5938 43.8233 38.2919Z" fill="#EA2D2E"/>
<path d="M64.0248 67.642C64.0248 67.642 66.2304 69.4608 61.5948 70.8664C52.781 73.5364 24.9035 74.3414 17.161 70.9733C14.3791 69.762 19.5979 68.0826 21.2398 67.7283C22.9516 67.3576 23.9291 67.4251 23.9291 67.4251C20.8335 65.2458 3.92101 71.7064 15.3398 73.5595C46.4779 78.607 72.1004 71.2864 64.0248 67.642ZM31.3929 43.9326C31.3929 43.9326 17.2141 47.3008 26.3723 48.5251C30.2398 49.0426 37.946 48.9239 45.1291 48.3214C50.9979 47.8283 56.8873 46.7751 56.8873 46.7751C56.8873 46.7751 54.8198 47.662 53.3223 48.6833C38.921 52.4714 11.1073 50.707 19.1154 46.8345C25.8854 43.5601 31.3929 43.9326 31.3929 43.9326ZM56.8285 58.1495C71.4666 50.5451 64.6979 43.237 59.9735 44.2214C58.8185 44.462 58.3004 44.6714 58.3004 44.6714C58.3004 44.6714 58.7304 43.997 59.5504 43.707C68.896 40.4226 76.0823 53.3964 56.536 58.5351C56.536 58.5339 56.7604 58.3308 56.8285 58.1495Z" fill="#0074BD"/>
<path d="M48.0039 0.993774C48.0039 0.993774 56.1089 9.10377 40.3146 21.5706C27.6483 31.5744 37.4264 37.2769 40.3102 43.795C32.9158 37.1244 27.4921 31.2513 31.1302 25.7856C36.4727 17.7644 51.2733 13.8738 48.0039 0.993774Z" fill="#EA2D2E"/>
<path d="M32.8299 78.7601C46.8774 79.6582 68.4549 78.26 68.9655 71.6125C68.9655 71.6125 67.9837 74.1326 57.3549 76.1319C45.3637 78.3894 30.5712 78.1263 21.8005 76.6782C21.8005 76.6788 23.5974 78.1663 32.8299 78.7601Z" fill="#0074BD"/>
</g>
<defs>
<clipPath id="clip0_47_4248">
<rect width="80" height="80" fill="white" transform="translate(0.197388)"/>
</clipPath>
</defs>
</svg>
