<svg width="81" height="80" viewBox="0 0 81 80" fill="none" xmlns="http://www.w3.org/2000/svg">
<g clip-path="url(#clip0_47_4314)">
<path d="M55.1029 28.2562L46.2678 31.1412L38.5817 34.5335L36.4315 35.1011C35.8835 35.622 35.3095 36.1496 34.6885 36.6841C34.0073 37.2716 33.3727 37.8057 32.8856 38.193C32.3444 38.6205 31.5431 39.4219 31.1358 39.9292C30.528 40.6903 30.0474 41.4987 29.8403 42.1197C29.473 43.2417 29.6533 44.3769 30.3613 45.4251C31.2695 46.7609 33.0791 48.123 35.1894 49.0512C36.2644 49.5254 38.074 50.1332 39.4365 50.4735C41.7001 51.0478 46.0811 51.6692 48.4915 51.7626C48.9789 51.7829 49.6334 51.7829 49.6601 51.7626C49.7136 51.7291 50.0877 51.0147 50.5216 50.1265C52.0042 47.1015 53.0727 44.2632 53.6538 41.8393C54.0009 40.3703 54.2745 38.4135 54.4548 36.0962C54.5018 35.4484 54.5218 33.2782 54.4819 32.5435C54.4213 31.3417 54.3144 30.3666 54.1477 29.4117C54.1209 29.2713 54.1142 29.1445 54.1277 29.1377C54.1544 29.1177 54.2346 29.0914 55.3231 28.7771L55.1029 28.2562ZM53.0862 29.4384C53.1661 29.4384 53.3798 31.4882 53.4333 32.7837C53.4468 33.0577 53.4401 33.238 53.4265 33.238C53.3731 33.238 52.2981 32.6038 51.5303 32.1231C50.8622 31.7023 49.5935 30.8608 49.3932 30.7004C49.3263 30.6537 49.333 30.647 49.8806 30.4603C50.8088 30.146 53.0128 29.4384 53.0862 29.4384ZM48.5852 30.921C48.6454 30.921 48.7989 31.0076 49.1663 31.2345C50.5416 32.096 52.4118 33.1378 53.2131 33.4852C53.46 33.5921 53.4867 33.5519 52.9188 33.9392C51.7038 34.7672 50.1878 35.582 48.3315 36.4033C48.1309 36.4949 47.9283 36.5818 47.7236 36.6638C47.7104 36.6638 47.7507 36.497 47.8038 36.2964C48.2513 34.6336 48.505 32.9511 48.5185 31.6019C48.5253 30.9342 48.5253 30.9342 48.5852 30.9142C48.5716 30.921 48.5784 30.921 48.5852 30.921ZM47.657 31.2748C47.6969 31.3147 47.6705 32.8104 47.6167 33.218C47.4971 34.2024 47.2916 35.1744 47.0025 36.1229C46.9291 36.3698 46.8621 36.5772 46.8489 36.5904C46.8219 36.6235 45.9072 35.7288 45.6069 35.3815C45.086 34.7807 44.6787 34.1797 44.378 33.5921C44.2244 33.2914 43.9843 32.7039 44.0042 32.6839C44.1111 32.6102 47.6303 31.248 47.657 31.2748ZM43.2895 32.991C43.2963 32.991 43.303 32.991 43.3098 32.9978C43.323 33.011 43.3697 33.1179 43.4099 33.238C43.6234 33.8191 44.1044 34.6738 44.5184 35.2215C44.9723 35.8225 45.5669 36.4635 46.0608 36.884C46.2211 37.0176 46.3679 37.1444 46.3879 37.1647C46.4285 37.2046 46.4417 37.1979 45.3528 37.6119C44.0912 38.0929 42.7152 38.5735 41.1393 39.0812C40.7628 39.2026 40.3866 39.3251 40.0109 39.4486C39.9506 39.4685 39.9706 39.435 40.1445 39.1611C40.9258 37.9393 42.1141 35.5418 42.7821 33.8458C42.8958 33.5515 43.0091 33.2579 43.0291 33.1913C43.0561 33.0976 43.0893 33.0644 43.1762 33.0174C43.2229 33.0042 43.2696 32.991 43.2895 32.991ZM41.9541 33.5451C41.9744 33.5586 41.6334 34.273 41.2996 34.9275C40.6518 36.1895 39.9439 37.4319 38.9958 38.9409C38.8354 39.2013 38.6819 39.4418 38.6619 39.4685C38.6284 39.5152 38.6152 39.502 38.5083 39.295C38.2814 38.8475 38.0943 38.2732 37.9942 37.7458C37.8937 37.2249 37.914 36.3164 38.0274 35.7556C38.1143 35.3415 38.1075 35.3483 38.3081 35.2482C39.1625 34.8139 41.927 33.5184 41.9541 33.5451ZM53.4735 34.0126V34.2933C53.4735 35.7823 53.3132 37.8257 53.0795 39.315C53.0392 39.5754 53.0057 39.7889 52.9993 39.7956C52.9993 39.7956 52.8055 39.7425 52.5785 39.6755C51.5143 39.3375 50.4855 38.8968 49.5065 38.3598C48.8588 38.0063 47.9174 37.4252 47.9438 37.3984C47.9506 37.3917 48.2313 37.2449 48.5584 37.071C49.8675 36.3901 51.1227 35.6554 52.2115 34.9275C52.6184 34.6535 53.233 34.2131 53.3667 34.0927L53.4735 34.0126ZM36.9121 35.9893C36.9389 35.9893 36.9324 36.0427 36.8918 36.2832C36.8585 36.5204 36.8341 36.7587 36.8188 36.9976C36.7653 37.9725 36.9257 38.6939 37.4063 39.682C37.5399 39.956 37.6468 40.1829 37.6401 40.1893C37.5934 40.2299 33.1728 41.5254 31.7836 41.906C31.3696 42.0193 31.009 42.1197 30.9819 42.1262C30.9356 42.1397 30.9288 42.1329 30.9488 42.0193C31.1024 41.0377 31.8502 39.7557 32.892 38.674C33.5865 37.9525 34.1409 37.5317 35.089 36.9909C35.7702 36.6036 36.8188 36.0228 36.8986 35.9961C36.8986 35.9893 36.9054 35.9893 36.9121 35.9893ZM47.3299 37.8524C47.3367 37.8456 47.4967 37.9325 47.6901 38.0462C49.1192 38.8742 51.1095 39.6421 52.8055 40.0361L52.9591 40.0696L52.7453 40.1897C51.8574 40.6835 48.939 41.8992 45.9542 43.0144C45.5199 43.1747 45.0927 43.3351 45.0122 43.3682C44.9324 43.4017 44.8587 43.4217 44.8587 43.4152C44.8587 43.4085 44.9791 43.1747 45.1326 42.8876C45.9674 41.3249 46.8087 39.4219 47.2362 38.0996C47.2897 37.9725 47.3228 37.8591 47.3299 37.8524ZM46.2678 38.1998C46.2746 38.2065 46.2211 38.3466 46.1545 38.5069C45.5734 39.916 44.812 41.452 43.8375 43.1747C43.5902 43.6155 43.3832 43.9696 43.3764 43.9696C43.3697 43.9696 43.1694 43.8492 42.9289 43.7024C41.513 42.8341 40.2578 41.7656 39.4365 40.7305L39.3161 40.5837L39.9239 40.4167C42.1009 39.8223 43.9504 39.1814 45.7871 38.3936C46.0476 38.2867 46.2614 38.1998 46.2678 38.1998ZM52.8657 40.5032C52.8725 40.6571 52.5319 42.0328 52.2514 43.0276C52.0177 43.8624 51.8171 44.5169 51.4498 45.672C51.2898 46.1798 51.1494 46.6005 51.1427 46.6005C51.1359 46.6005 51.096 46.5938 51.0561 46.5802C49.0726 46.2197 47.2964 45.7191 45.6272 45.0514C45.1594 44.8643 44.4916 44.5636 44.4514 44.5304C44.4382 44.5169 44.839 44.3299 45.3464 44.1097C48.3849 42.7803 51.5367 41.2714 52.6188 40.6237C52.7453 40.5435 52.8454 40.5032 52.8657 40.5032ZM37.6333 41.0245C37.6468 41.038 36.7988 42.2598 35.6099 43.9226C35.1959 44.5037 34.7152 45.1846 34.5349 45.4386C34.3263 45.7327 34.1236 46.031 33.9271 46.3333L33.6463 46.7673L33.346 46.5136C32.9922 46.2197 32.3779 45.5922 32.1043 45.2452C31.5299 44.5304 31.1426 43.7758 30.989 43.0881C30.9153 42.7675 30.9153 42.6072 30.9823 42.5872C31.0824 42.5601 32.8653 42.1397 34.5349 41.7524C35.3325 41.5688 36.1293 41.3818 36.9253 41.1916C37.313 41.0979 37.6269 41.0245 37.6333 41.0245ZM38.488 41.3516L38.7018 41.5921C39.6635 42.6674 40.6451 43.4619 41.834 44.1563C42.0475 44.2768 42.2078 44.3833 42.1943 44.3901C42.1476 44.4239 38.0676 45.8726 36.1775 46.5271C35.5313 46.756 34.8836 46.9807 34.2346 47.2013C34.2278 47.2013 34.1676 47.1614 34.1006 47.1147L33.9805 47.0277L34.1743 46.7473C34.8018 45.8391 35.5899 44.8443 37.3065 42.7739L38.488 41.3516ZM43.8172 45.1647C43.8239 45.1579 44.1175 45.2648 44.4781 45.3984C45.3464 45.7258 46.0341 45.9328 46.9558 46.1662C48.091 46.4537 49.7338 46.7341 50.7023 46.8143C50.8491 46.8275 50.9289 46.841 50.9025 46.861C50.8555 46.8877 49.8742 47.2148 49.1527 47.4421C48.004 47.8023 44.4984 48.8377 41.6402 49.659C41.1125 49.8126 40.6586 49.9397 40.6319 49.9462C40.5652 49.9597 40.3444 49.8991 40.3444 49.8728C40.3444 49.8592 40.505 49.6522 40.6985 49.4253C41.6602 48.2766 42.615 46.9946 43.4099 45.7789C43.6301 45.4451 43.8172 45.1714 43.8172 45.1647ZM42.6418 45.1985C42.6485 45.2049 42.1743 45.9663 41.3463 47.275C40.9925 47.8291 40.5984 48.4569 40.458 48.6774C40.3244 48.8908 40.1242 49.225 40.0109 49.4117L39.817 49.7523L39.7169 49.7256C39.4768 49.659 37.7869 49.0647 37.3397 48.8844C36.809 48.6732 36.2897 48.4346 35.7837 48.1697C35.2493 47.8825 34.5816 47.4553 34.635 47.4418C34.6486 47.435 35.5632 47.1881 36.6649 46.8877C39.5901 46.0928 41.2127 45.6321 42.2744 45.2983C42.4682 45.2381 42.635 45.1917 42.6418 45.1985ZM50.9559 47.1482H50.9627C50.9891 47.2148 49.9074 50.2198 49.5133 51.1683C49.4267 51.3817 49.3932 51.4355 49.3465 51.4287C49.2329 51.422 47.6638 51.2014 46.7085 51.0614C45.046 50.8077 42.2545 50.3199 41.5536 50.1599L41.3933 50.1261L42.3877 49.8995C44.5251 49.4185 45.5534 49.158 46.5952 48.8374C47.9405 48.4258 49.2548 47.9193 50.5284 47.3217C50.7354 47.228 50.9089 47.1546 50.9559 47.1482Z" fill="url(#paint0_linear_47_4314)"/>
<path d="M45.9948 7.66282C45.848 7.64286 43.4772 8.49762 41.948 9.11865C39.8847 9.96021 38.282 10.7615 37.2937 11.456C36.9263 11.7164 36.4653 12.1771 36.3922 12.3574C36.3647 12.43 36.3509 12.5071 36.3517 12.5847L37.247 13.4327L39.377 14.1139L44.4456 15.0221L50.2419 16.0169L50.3021 15.5163C50.2818 15.5163 50.2686 15.5095 50.2487 15.5095L49.4876 15.3891L49.3337 15.1155C48.5456 13.7266 47.6776 12.0036 47.1702 10.8417C46.7762 9.94025 46.4024 8.89845 46.1951 8.15058C46.0817 7.69631 46.0682 7.66958 45.9952 7.66316L45.9948 7.66282ZM45.8879 8.00344H45.8947C45.9015 8.0102 45.9282 8.19725 45.9549 8.41745C46.0682 9.35271 46.2752 10.2542 46.6027 11.229C46.8496 11.9637 46.8496 11.9234 46.5624 11.8365C45.8815 11.6498 42.8295 11.1221 40.6193 10.815C40.2652 10.7683 39.9648 10.7216 39.9648 10.7148C39.9378 10.6881 41.5607 9.84013 42.2751 9.50628C43.19 9.0855 45.7009 8.03692 45.8876 8.00344H45.8879ZM39.4504 10.9953L39.7108 11.0819C41.1267 11.5628 44.6858 12.2441 46.6493 12.4044C46.8695 12.4244 47.0566 12.4443 47.063 12.4443C47.0698 12.4511 46.8831 12.5512 46.6426 12.6649C45.6945 13.1387 44.6526 13.7199 43.9312 14.1674C43.7177 14.3006 43.5239 14.4075 43.4972 14.4075C43.4705 14.4075 43.3304 14.3808 43.1836 14.3608L42.9164 14.3209L42.2487 13.6664C41.4365 12.8756 40.6195 12.0897 39.7977 11.3088L39.4504 10.9953ZM39.1831 11.2023L40.1248 12.3777C40.639 13.0254 41.1599 13.6597 41.2735 13.8C41.3872 13.9401 41.4805 14.0537 41.4741 14.0605C41.447 14.0804 40.1116 13.82 39.404 13.6597C38.6758 13.4929 38.3754 13.4127 37.9279 13.2724L37.5606 13.1523V13.0586C37.5673 12.6111 38.1349 11.9434 39.0965 11.2625L39.1831 11.2023ZM47.1834 12.8049C47.2105 12.8049 47.2436 12.8651 47.3238 13.0451C47.5504 13.546 48.2587 14.8953 48.4323 15.1557C48.4857 15.2423 48.579 15.2491 47.6374 15.0955C45.3738 14.7282 44.6459 14.6081 44.6459 14.5949C44.6459 14.5881 44.7125 14.5411 44.7994 14.4945C45.5006 14.1072 46.2086 13.613 46.8364 13.0853C46.99 12.9585 47.13 12.8384 47.1567 12.8181C47.1635 12.8049 47.1767 12.7981 47.1834 12.8049Z" fill="url(#paint1_linear_47_4314)"/>
<path d="M36.4365 12.2625C36.4365 12.2625 36.2897 12.4965 36.4297 12.8439C36.517 13.0573 36.7706 13.3178 37.0575 13.585C37.0575 13.585 40.0293 16.4831 40.3899 16.8972C42.0325 18.7937 42.7472 20.6636 42.8138 23.2414C42.8541 24.8974 42.5398 26.3533 41.7588 28.0428C40.37 31.0746 37.4383 34.4202 32.9173 38.1328L33.5786 37.913C34.0058 37.592 34.5866 37.2517 35.949 36.5035C39.0944 34.7808 42.6335 33.1981 46.9743 31.5684C53.2248 29.2179 63.5022 26.4666 69.3519 25.5719L69.9594 25.4782L69.866 25.3314C69.3316 24.5034 68.9646 23.9892 68.5235 23.4416C67.2416 21.8522 65.6856 20.5634 63.7826 19.4949C61.1646 18.0327 57.7787 16.8904 53.4917 16.0424C52.6839 15.8821 50.9075 15.5749 49.4652 15.3547C47.0577 14.9844 44.6535 14.5925 42.253 14.1793C41.4716 14.0457 40.303 13.8455 39.5284 13.6787C39.1276 13.5918 38.3597 13.4115 37.7587 13.2045C37.278 13.0174 36.5836 12.83 36.4365 12.2625ZM38.1595 13.9324C38.1663 13.9256 38.2728 13.9655 38.4132 14.0126C38.6669 14.0992 38.9943 14.1993 39.3816 14.3062C39.6747 14.3868 39.9685 14.4647 40.2631 14.5399C40.6639 14.64 40.9978 14.7337 41.0042 14.7337C41.0512 14.7804 41.7257 16.9371 41.9526 17.7651C42.0392 18.0793 42.1062 18.3462 42.0994 18.3462C42.0927 18.353 42.0193 18.2393 41.9327 18.0858C41.1513 16.7101 39.9157 15.3145 38.4866 14.1925C38.2999 14.0592 38.1595 13.9392 38.1595 13.9324ZM41.4449 14.8406C41.4787 14.8406 41.6255 14.8606 41.8055 14.9005C42.941 15.1542 44.9776 15.5418 46.2799 15.762C46.5001 15.7955 46.6739 15.8354 46.6739 15.8489C46.6739 15.8624 46.5938 15.9088 46.4933 15.9622C46.2734 16.0759 45.3849 16.6032 45.0913 16.8038C44.3498 17.2976 43.6821 17.8321 43.2014 18.3131C43.0822 18.4321 42.9619 18.5501 42.8405 18.6669C42.8405 18.6669 42.8006 18.5532 42.7671 18.4132C42.527 17.4847 42.026 16.109 41.5718 15.141C41.4984 14.9874 41.4382 14.847 41.4382 14.8338C41.4382 14.8474 41.4382 14.8406 41.4449 14.8406ZM47.228 15.9423C47.2682 15.9558 47.3349 16.1824 47.4681 16.6834C47.7187 17.6828 47.8268 18.7125 47.7891 19.7422C47.7756 20.0226 47.7621 20.283 47.7489 20.3165L47.7286 20.3832L47.3815 20.2695C46.6672 20.0429 45.5053 19.7019 44.5101 19.4215C43.9426 19.2679 43.4819 19.1276 43.4819 19.1144C43.4819 19.0741 44.3099 18.2461 44.6637 17.9322C45.3382 17.3379 47.1678 15.9223 47.228 15.9423ZM47.6887 16.0089C47.709 15.989 50.4535 16.4632 51.7023 16.7037C52.6305 16.884 53.9794 17.1644 54.0596 17.1975C54.0995 17.2111 53.9595 17.2912 53.5116 17.4918C51.749 18.2863 50.4403 19.0004 49.1381 19.869C48.7975 20.0956 48.5103 20.283 48.5035 20.283C48.4968 20.283 48.49 20.0892 48.49 19.8555C48.49 18.587 48.2363 17.3047 47.7688 16.2227C47.7222 16.1158 47.6819 16.0157 47.6887 16.0089ZM54.7875 17.4116C54.8078 17.4316 54.7206 17.9725 54.6404 18.2928C54.4002 19.2879 53.7525 20.764 52.9579 22.1529C52.8176 22.3998 52.6907 22.6 52.6772 22.6068C52.6637 22.6136 52.4837 22.5135 52.2767 22.393C51.5021 21.9391 50.6206 21.5116 49.6586 21.1111C49.3918 20.9974 49.158 20.9041 49.1513 20.8905C49.1046 20.8506 51.2548 19.4283 52.39 18.747C53.2914 18.1994 54.7608 17.3846 54.7875 17.4116ZM55.2949 17.4915C55.3551 17.4915 56.5704 17.8256 57.2047 18.0124C58.7741 18.4798 60.577 19.1411 61.7524 19.6752L62.2395 19.8957L61.8992 19.9759C59.0278 20.6368 56.5704 21.3982 54.1996 22.3599C54.0062 22.4401 53.8323 22.5067 53.8191 22.5067C53.8056 22.5067 53.8726 22.3531 53.9595 22.1661C54.6739 20.6504 55.1346 19.0677 55.2482 17.7184C55.255 17.5916 55.2749 17.4915 55.2949 17.4915ZM43.1947 20.2695C43.2146 20.2496 44.1428 20.4701 44.6438 20.6101C45.4048 20.8239 47.021 21.3644 47.021 21.405C47.021 21.4118 46.8407 21.565 46.6272 21.7521C45.7522 22.48 44.911 23.2478 43.9023 24.223C43.6019 24.5101 43.3483 24.7439 43.3351 24.7439C43.3215 24.7439 43.3148 24.7036 43.3215 24.6502C43.4751 23.5282 43.4419 22.0862 43.2282 20.6237C43.2079 20.4366 43.1883 20.2763 43.1947 20.2695ZM62.7009 20.2898C62.7141 20.303 62.2733 20.9974 61.9929 21.3915C61.5921 21.9658 61.0046 22.7272 59.6756 24.3965C59.0901 25.1315 58.507 25.8683 57.9261 26.607C57.6589 26.9408 57.4384 27.2212 57.4316 27.2212C57.4249 27.2212 57.3386 27.1011 57.2449 26.954C56.497 25.8324 55.602 24.8508 54.5403 23.9693C54.3784 23.8323 54.2137 23.6987 54.0464 23.5685C53.9727 23.515 53.9125 23.4616 53.9125 23.4548C53.9125 23.4349 55.0476 22.9474 55.9092 22.6C57.4184 21.9858 59.475 21.2511 61.0178 20.7769C61.8262 20.5232 62.6874 20.2763 62.7009 20.2898ZM63.215 20.4231C63.2414 20.4163 63.4017 20.4968 63.5956 20.6101C65.2185 21.5383 66.8076 22.7337 68.0632 23.9622C68.417 24.3099 69.2917 25.2181 69.2785 25.2245C69.2785 25.2245 68.971 25.2516 68.6108 25.278C65.7993 25.4917 62.1999 26.0861 58.7407 26.9205C58.5899 26.9566 58.4386 26.9901 58.2867 27.021C58.2732 27.021 58.5336 26.7605 58.8611 26.4466C60.8912 24.4899 61.8194 23.2546 62.9143 21.0509C63.0679 20.7238 63.2018 20.4434 63.215 20.4231C63.2083 20.4231 63.2083 20.4231 63.215 20.4231ZM48.3432 21.9459C48.4369 21.9658 49.3048 22.3731 49.9593 22.7002C50.5604 23.0009 51.4619 23.4815 51.5085 23.5218C51.5153 23.5285 51.1946 23.6953 50.8009 23.8891C49.6237 24.4744 48.4718 25.1093 47.3484 25.7921C47.0277 25.9859 46.7605 26.1463 46.7541 26.1463C46.727 26.1463 46.7338 26.1192 46.9141 25.7921C47.5152 24.6972 47.9961 23.3882 48.2698 22.1126C48.2965 22.0125 48.3232 21.9459 48.3432 21.9459ZM47.4752 22.1059C47.4952 22.1262 47.2682 22.9474 47.1279 23.3946C46.8539 24.2429 46.3932 25.3047 45.946 26.106C45.8391 26.2931 45.6788 26.5667 45.5919 26.7203L45.4251 26.9875L45.051 26.6269C44.617 26.2061 44.2629 25.9457 43.8089 25.7119C43.6287 25.6186 43.4886 25.5384 43.4886 25.5252C43.4886 25.4718 44.6306 24.4367 45.5053 23.6885C46.1327 23.1477 47.4553 22.0859 47.4752 22.1059ZM52.7841 24.2896L53.1115 24.5034C53.859 24.9908 54.7405 25.6385 55.415 26.2061C55.7959 26.52 56.5302 27.1813 56.6773 27.3413L56.7572 27.4282L56.2166 27.5818C53.1582 28.4298 50.7941 29.1844 48.0361 30.1999C47.7289 30.3132 47.4685 30.4065 47.4485 30.4065C47.4083 30.4065 47.3748 30.44 48.0628 29.8055C49.8257 28.1829 51.3885 26.3932 52.5503 24.6505L52.7841 24.2896ZM51.3885 24.637C51.402 24.6505 50.487 25.9393 49.9394 26.6668C49.2849 27.5351 48.123 28.9906 47.3213 29.9391C46.9878 30.3331 46.7006 30.6602 46.6871 30.667C46.6668 30.6737 46.6604 30.5736 46.6604 30.4201C46.6604 29.6116 46.4534 28.7504 46.0928 28.0158C45.9392 27.7086 45.9125 27.6352 45.946 27.6018C46.0729 27.4884 48.0161 26.3797 49.2446 25.7187C50.073 25.278 51.3682 24.6235 51.3885 24.637ZM42.9474 26.7071C42.9677 26.7071 43.1213 26.7872 43.2948 26.8806C43.7013 27.102 44.0859 27.3614 44.4435 27.6552C44.4567 27.6687 44.2832 27.8091 44.0562 27.9759C43.3255 28.5033 42.6063 29.0466 41.8992 29.6052C41.3113 30.0727 41.2917 30.0862 41.358 29.9861C41.7991 29.3116 42.0193 28.9307 42.253 28.4437C42.4681 27.9901 42.6555 27.5239 42.8142 27.0477C42.8673 26.8539 42.9342 26.7071 42.9474 26.7071ZM45.1981 28.47C45.2313 28.4633 45.2715 28.5235 45.4518 28.7907C45.8324 29.3579 46.1263 30.1193 46.1997 30.7339L46.2132 30.8676L45.2983 31.2214C43.6621 31.8556 42.1529 32.4834 41.131 32.9508C40.8442 33.0844 40.3429 33.3249 40.0161 33.4853C39.6887 33.652 39.4215 33.7789 39.4215 33.7724C39.4215 33.7657 39.6285 33.6121 39.8825 33.4251C41.8792 31.976 43.6087 30.3866 44.9042 28.7971C45.0446 28.6304 45.1714 28.4768 45.1849 28.47H45.1981ZM44.1631 28.7237C44.1898 28.7508 43.4284 29.612 42.9075 30.1393C41.6188 31.4551 40.3432 32.4834 38.7606 33.4853C38.5603 33.6121 38.38 33.7254 38.3597 33.739C38.3131 33.7657 38.3733 33.6987 39.0677 32.9441C39.475 32.507 39.8605 32.0502 40.2228 31.5752C40.4765 31.2481 40.5235 31.2014 40.8909 30.941C41.8725 30.233 44.1364 28.697 44.1631 28.7237Z" fill="url(#paint2_radial_47_4314)"/>
<path d="M15.2467 56.3706C15.1229 56.3706 14.9998 56.3825 14.8779 56.3825C12.3898 56.515 10.7117 57.61 9.73044 59.7487C8.89107 61.6825 8.98294 64.21 9.73982 66.1562C10.6198 68.0575 12.0423 69.0612 14.4167 69.44C14.9186 69.5225 15.2554 69.7981 16.2292 70.9337L17.4261 72.3369H19.5973L18.1536 70.8806C17.3554 70.0831 16.7098 69.3881 16.7098 69.3269C16.7098 69.2662 17.0148 69.1325 17.3848 69.02C18.6029 68.6512 19.6142 67.71 20.3223 66.2675C20.8948 65.1094 20.9773 64.7512 21.0598 63.31C21.2742 59.0206 19.0123 56.3387 15.2461 56.3694L15.2467 56.3706ZM17.1498 67.5881C16.0936 68.0994 14.5598 68.2019 13.5586 67.8344C12.5236 67.4544 11.5211 66.3794 11.0704 65.1625C10.5698 63.8312 10.6411 61.3762 11.2142 60.2706C12.1348 58.51 13.3536 57.7006 15.1329 57.7006C17.7742 57.7006 19.2767 59.3175 19.4723 62.3569C19.6273 64.8944 18.7779 66.7981 17.1511 67.5875L17.1498 67.5881ZM54.6561 60.035C53.7454 60.035 53.0486 60.4037 52.5786 61.13L52.2098 61.705V60.2094H50.6342V69.1756H52.2092V66.3094C52.2092 63.6887 52.2423 63.3825 52.6086 62.6656C53.1129 61.6819 53.9817 61.1919 54.8211 61.4262L55.3836 61.5906V60.0369H54.6567L54.6561 60.035ZM45.3961 59.9525C45.0722 59.9558 44.7495 59.9935 44.4336 60.065C42.3248 60.6169 41.1361 62.6356 41.2086 64.7125C41.2086 66.4519 41.5473 67.3219 42.3861 68.2337C44.1054 69.6444 45.6611 69.7569 47.7592 69C48.1167 68.8475 48.5067 68.6712 48.5067 68.6712V67.2606L47.7592 67.6481C46.0611 68.3875 44.7817 68.3875 43.7567 67.5169C43.1036 66.8512 42.8154 66.0531 42.6836 65.1419H49.0386V63.9337C49.0386 61.4687 47.5548 59.9125 45.3948 59.9525H45.3961ZM42.8261 63.8837C42.8261 63.8837 43.0611 62.3462 43.9323 61.7437C44.3328 61.4591 44.8116 61.3056 45.3029 61.3044C45.7748 61.3044 46.2448 61.4569 46.6336 61.7544C47.4317 62.3681 47.5648 63.8731 47.5648 63.8731H42.8267L42.8261 63.8837ZM4.82794 62.2675C3.11919 61.2319 2.36107 60.4856 2.45419 59.605C2.71919 57.17 5.72794 57.5069 7.39482 58.4281L7.40669 56.79C7.40669 56.79 6.48544 56.3906 5.16482 56.3694C3.13919 56.3394 1.82919 57.0031 1.21607 58.355C0.314192 60.3506 1.11232 61.855 3.99732 63.5337C5.61669 64.4756 6.33232 65.2937 6.33232 66.1856C6.33232 68.0281 4.11107 68.6719 1.81919 67.5156C1.34794 67.2806 0.948567 67.0844 0.926692 67.0844C0.844192 67.6069 0.886692 68.8569 0.886692 68.8569C0.886692 68.8569 1.59107 69.1525 2.64732 69.3569C5.26607 69.8787 7.65044 68.65 7.87544 66.655C8.07169 64.7819 7.39419 63.7987 4.82794 62.2656V62.2675ZM68.6061 59.9319C68.2783 59.9362 67.9518 59.9741 67.6317 60.045C65.5254 60.5969 64.3386 62.6156 64.4192 64.6931C64.4192 66.43 64.7567 67.2912 65.5954 68.2019C67.3148 69.6144 68.8704 69.7269 70.9786 68.9694C71.2279 68.8626 71.4764 68.754 71.7242 68.6437V67.2306L70.9779 67.62C69.2761 68.3575 67.9967 68.3575 66.9754 67.4862C66.3186 66.8219 66.0336 66.0331 65.9004 65.1119H72.2454V63.9031C72.2454 61.4506 70.7617 59.8925 68.6023 59.9344L68.6061 59.9319ZM66.0354 63.8631C66.0354 63.8631 66.2729 62.3281 67.1423 61.7131C67.542 61.4278 68.0206 61.274 68.5117 61.2731C68.9817 61.2731 69.4542 61.4256 69.8429 61.7231C70.6411 62.3375 70.7748 63.8525 70.7748 63.8525H66.0373L66.0354 63.8631ZM37.1454 62.2869C35.4367 61.2544 34.6804 60.5056 34.7723 59.6244C35.0373 57.1887 38.0467 57.5269 39.7129 58.4475L39.7254 56.81C39.7254 56.81 38.8036 56.41 37.4836 56.3912C35.4573 56.3612 34.1479 57.0256 33.5336 58.3775C32.6329 60.3725 33.4417 61.8775 36.3167 63.5556C37.9342 64.4969 38.6498 65.3044 38.6498 66.1962C38.6498 68.0387 36.4292 68.6925 34.1373 67.5256C33.6679 67.2912 33.2686 67.0975 33.2454 67.0975C33.1636 67.6194 33.2054 68.87 33.2054 68.87C33.2054 68.87 33.9017 69.155 34.9542 69.37C37.5761 69.8931 39.9604 68.665 40.1854 66.67C40.3798 64.8062 39.7042 63.8244 37.1454 62.2887V62.2869ZM77.8661 60.0137C76.9554 60.0137 76.2504 60.3825 75.7886 61.11L75.4198 61.6825V60.19H73.8442V69.1537H75.4192V66.2881C75.4192 63.6681 75.4504 63.3606 75.8179 62.6444C76.3229 61.6625 77.1917 61.1712 78.0304 61.4075L78.5942 61.5712V60.0137H77.8661ZM24.6111 62.2356V56.5244H23.0223V69.1737H29.7048V67.68H24.6111V62.2356ZM61.3592 64.0156L60.0498 67.4237L58.7898 63.9962L57.5111 60.1987H55.8842C56.9514 63.2094 58.0703 66.2015 59.2404 69.1737C59.7423 69.185 60.2442 69.1737 60.7454 69.1737L62.5142 64.7325L64.3154 60.2H62.7611C62.7611 60.2 62.0736 62 61.3579 64.0162L61.3592 64.0156ZM28.2736 53.0775C28.5292 53.0775 28.7429 52.9956 28.9186 52.8194C29.0042 52.7378 29.072 52.6394 29.1177 52.5303C29.1635 52.4212 29.1861 52.3039 29.1842 52.1856C29.1842 51.9294 29.0929 51.7162 28.9186 51.5519C28.8346 51.4708 28.7353 51.4072 28.6265 51.3648C28.5177 51.3225 28.4015 51.3021 28.2848 51.305C28.0267 51.305 27.8136 51.3875 27.6398 51.5612C27.4636 51.735 27.3836 51.9487 27.3836 52.195C27.3836 52.4531 27.4661 52.6669 27.6398 52.8287C27.8042 52.9931 28.0173 53.075 28.2736 53.075V53.0775ZM27.7098 51.6219C27.8623 51.47 28.0479 51.3987 28.2848 51.3987C28.5079 51.3987 28.6936 51.47 28.8486 51.6219C29.0011 51.775 29.0836 51.9606 29.0836 52.1856C29.0851 52.292 29.065 52.3975 29.0246 52.4959C28.9842 52.5943 28.9243 52.6835 28.8486 52.7581C28.6936 52.9106 28.5079 52.9831 28.2848 52.9831C28.0586 52.9831 27.8742 52.9131 27.7223 52.7581C27.6465 52.6835 27.5867 52.5943 27.5463 52.4959C27.5059 52.3975 27.4858 52.292 27.4873 52.1856C27.4873 51.9606 27.5567 51.775 27.7098 51.6219ZM28.0886 52.2681H28.1923C28.2654 52.2681 28.3367 52.3381 28.3979 52.4719L28.5211 52.7487H28.7148L28.5623 52.4412C28.4998 52.3181 28.4392 52.2469 28.3673 52.2269C28.4579 52.2056 28.5298 52.175 28.5811 52.1144C28.6058 52.0863 28.6247 52.0537 28.6367 52.0183C28.6488 51.9829 28.6536 51.9454 28.6511 51.9081C28.6536 51.8676 28.6466 51.827 28.6308 51.7896C28.615 51.7522 28.5907 51.7189 28.5598 51.6925C28.4892 51.6337 28.3767 51.6025 28.2311 51.6025H27.9054V52.7487H28.0692V52.2675L28.0886 52.2681ZM28.0886 51.735H28.2323C28.3354 51.735 28.4079 51.7562 28.4486 51.7869C28.4867 51.8169 28.4979 51.8569 28.4979 51.9294C28.4979 52.0625 28.4154 52.1244 28.2629 52.1244H28.0873V51.735H28.0886ZM1.84044 52.1662C1.84044 51.7662 1.82857 51.4694 1.81919 51.295H1.82857C1.86919 51.5013 1.92044 51.655 1.96169 51.7575L3.48669 55.1656H3.74294L5.26794 51.7269C5.30982 51.6331 5.35044 51.4919 5.40107 51.2956H5.41294C5.38633 51.5857 5.37257 51.8768 5.37169 52.1681V55.1756H5.89419V50.7044H5.23919L3.83669 53.8156C3.78482 53.9387 3.71357 54.1219 3.62169 54.3669H3.60044C3.54659 54.1849 3.47846 54.0075 3.39669 53.8362L2.02544 50.6944H1.32982V55.1662H1.83169V52.1681L1.84044 52.1662ZM7.03794 52.1737H7.48919V54.9587H7.03794V52.1737ZM7.26357 51.1525C7.30696 51.1537 7.35014 51.146 7.39045 51.1299C7.43076 51.1137 7.46734 51.0895 7.49794 51.0587C7.53019 51.0287 7.55601 50.9925 7.57385 50.9522C7.59168 50.9119 7.60115 50.8684 7.60169 50.8244C7.60346 50.7801 7.59523 50.7359 7.57759 50.6952C7.55995 50.6546 7.53337 50.6184 7.49982 50.5894C7.46848 50.5587 7.43133 50.5346 7.39054 50.5185C7.34975 50.5024 7.30616 50.4946 7.26232 50.4956C7.21894 50.4946 7.17582 50.5024 7.13553 50.5185C7.09525 50.5346 7.05865 50.5587 7.02794 50.5894C6.99593 50.6197 6.97031 50.6561 6.9526 50.6964C6.93489 50.7368 6.92544 50.7803 6.92482 50.8244C6.92482 50.9262 6.95607 50.9975 7.02794 51.0587C7.09104 51.1191 7.17502 51.1527 7.26232 51.1525H7.26357ZM10.7023 55.02V54.5294C10.4554 54.7137 10.1898 54.805 9.91544 54.805C9.58732 54.805 9.32044 54.6925 9.12607 54.4769C8.93232 54.2631 8.82857 53.9662 8.82857 53.5962C8.82857 53.2087 8.93232 52.9012 9.14607 52.6669C9.35107 52.4419 9.61794 52.3287 9.94419 52.3287C10.2104 52.3287 10.4661 52.4112 10.7023 52.5756V52.0531C10.4873 51.9406 10.2423 51.8887 9.96482 51.8887C9.45357 51.8887 9.05419 52.0531 8.75607 52.37C8.46044 52.6869 8.30794 53.1175 8.30794 53.6375C8.30794 54.1 8.44044 54.4887 8.71669 54.7856C9.00419 55.0906 9.37169 55.2456 9.82169 55.2456C10.1704 55.2356 10.4554 55.1631 10.7023 55.02ZM11.9917 53.535C11.9917 53.1681 12.0742 52.8713 12.2267 52.6663C12.3698 52.4825 12.5436 52.39 12.7486 52.39C12.9223 52.39 13.0461 52.4212 13.1361 52.4931V51.96C13.0661 51.9294 12.9636 51.9194 12.8311 51.9194C12.6467 51.9194 12.4829 51.9819 12.3379 52.0956C12.1854 52.2162 12.0636 52.4006 11.9917 52.635H11.9798V51.9812H11.4698V55.1737H11.9811V53.5356L11.9917 53.535ZM14.9292 55.2369C15.4104 55.2369 15.7979 55.0819 16.0854 54.7744C16.3717 54.4694 16.5148 54.0587 16.5148 53.5469C16.5148 53.025 16.3836 52.6256 16.1161 52.3287C15.8504 52.0319 15.4823 51.8881 15.0011 51.8881C14.5198 51.8881 14.1323 52.0319 13.8448 52.3087C13.5373 52.6137 13.3754 53.045 13.3754 53.5975C13.3754 54.0787 13.5067 54.4775 13.7842 54.7744C14.0704 55.0819 14.4492 55.2356 14.9298 55.2356L14.9292 55.2369ZM14.2017 52.6362C14.3967 52.4306 14.6523 52.3287 14.9692 52.3287C15.2979 52.3287 15.5442 52.4306 15.7273 52.6362C15.9117 52.8512 16.0036 53.1569 16.0036 53.5675C16.0036 53.9562 15.9211 54.2631 15.7473 54.4681C15.5742 54.6831 15.3179 54.7969 14.9798 54.7969C14.6517 54.7969 14.3967 54.6831 14.2017 54.4681C14.0079 54.2525 13.9154 53.9562 13.9154 53.5669C13.8954 53.1794 13.9979 52.8631 14.2017 52.6362ZM18.7554 54.9587C18.9504 54.785 19.0536 54.5712 19.0536 54.3037C19.0558 54.1957 19.0361 54.0884 18.9957 53.9881C18.9554 53.8879 18.8951 53.7969 18.8186 53.7206C18.6942 53.5975 18.5023 53.4856 18.2236 53.3731C17.9773 53.27 17.8248 53.1787 17.7423 53.1069C17.6985 53.0644 17.6641 53.0131 17.6413 52.9565C17.6185 52.8999 17.6077 52.8391 17.6098 52.7781C17.6098 52.6456 17.6617 52.5437 17.7629 52.4612C17.8661 52.3794 17.9973 52.3394 18.1736 52.3394C18.4486 52.3394 18.6854 52.4119 18.9004 52.5662V52.0537C18.687 51.9494 18.4518 51.8973 18.2142 51.9019C17.8861 51.9019 17.6086 51.9925 17.4048 52.1669C17.3037 52.2451 17.2223 52.346 17.1672 52.4614C17.112 52.5767 17.0847 52.7034 17.0873 52.8313C17.0873 53.0656 17.1579 53.2606 17.2917 53.4037C17.4042 53.5256 17.5967 53.6506 17.8648 53.7619C18.1211 53.8744 18.2942 53.9762 18.3867 54.0587C18.4299 54.0967 18.4641 54.1437 18.487 54.1964C18.5099 54.2492 18.5209 54.3063 18.5192 54.3637C18.5192 54.6619 18.3148 54.8156 17.9161 54.8156C17.6086 54.8156 17.3329 54.715 17.0861 54.5106V55.0619C17.3092 55.1962 17.5767 55.2569 17.8729 55.2569C18.2517 55.2369 18.5486 55.1444 18.7529 54.96L18.7554 54.9587ZM21.1917 51.8887C20.7104 51.8887 20.3229 52.0319 20.0354 52.3087C19.7304 52.6144 19.5667 53.045 19.5667 53.5975C19.5667 54.0787 19.6992 54.4775 19.9748 54.7744C20.2623 55.0819 20.6404 55.2362 21.1217 55.2362C21.6142 55.2362 21.9898 55.0812 22.2773 54.7737C22.5648 54.4681 22.7086 54.0575 22.7086 53.5456C22.7086 53.0237 22.5742 52.625 22.3086 52.3275C22.0323 52.0306 21.6636 51.8875 21.1942 51.8875L21.1917 51.8887ZM22.1848 53.5669C22.1848 53.9562 22.1023 54.2631 21.9286 54.4681C21.7548 54.6831 21.4992 54.7969 21.1611 54.7969C20.8323 54.7969 20.5779 54.6831 20.3829 54.4681C20.1892 54.2525 20.0967 53.9562 20.0967 53.5669C20.0967 53.1562 20.1986 52.8394 20.4042 52.6256C20.5979 52.4212 20.8542 52.3181 21.1717 52.3181C21.4886 52.3181 21.7436 52.4212 21.9279 52.6256C22.0917 52.8506 22.1848 53.1575 22.1848 53.5669ZM23.5673 55.1644H24.0779V52.4006H24.8254V51.9706H24.0779V51.4781C24.0779 51.0294 24.2511 50.8044 24.6104 50.8044C24.7311 50.8044 24.8548 50.835 24.9461 50.8862V50.4256C24.8548 50.3844 24.7311 50.375 24.5773 50.375C24.3023 50.375 24.0773 50.4575 23.8923 50.6312C23.6773 50.835 23.5636 51.1 23.5636 51.4594V51.9825H23.0236V52.4125H23.5636V55.1656L23.5673 55.1644ZM25.6648 54.2931C25.6648 54.9181 25.9398 55.2356 26.5036 55.2356C26.7079 55.2356 26.8617 55.2031 26.9848 55.1294V54.6919C26.8896 54.7616 26.774 54.7979 26.6561 54.795C26.4823 54.795 26.3604 54.7537 26.2892 54.6612C26.2161 54.5694 26.1748 54.415 26.1748 54.2012V52.3994H26.9848V51.97H26.1748V51.0287C25.9992 51.0894 25.8267 51.1412 25.6629 51.1925V51.9694H25.1117V52.3994H25.6629V54.2925L25.6648 54.2931ZM80.5898 60.1781C80.5058 60.097 80.4065 60.0335 80.2977 59.9912C80.1889 59.9489 80.0728 59.9288 79.9561 59.9319C79.6979 59.9319 79.4842 60.0144 79.3104 60.19C79.1367 60.3625 79.0542 60.5775 79.0542 60.8237C79.0542 61.08 79.1367 61.2925 79.3092 61.4575C79.4829 61.6219 79.6967 61.7037 79.9548 61.7037C80.2092 61.7037 80.4236 61.6219 80.6004 61.4475C80.7729 61.2725 80.8642 61.0694 80.8642 60.8144C80.8548 60.5562 80.7623 60.3425 80.5886 60.1787L80.5898 60.1781ZM80.5079 61.3869C80.4344 61.4609 80.3464 61.519 80.2494 61.5575C80.1524 61.596 80.0485 61.6141 79.9442 61.6106C79.7211 61.6106 79.5361 61.5394 79.3811 61.3869C79.3053 61.3117 79.2455 61.222 79.2051 61.1233C79.1648 61.0245 79.1447 60.9186 79.1461 60.8119C79.1461 60.5887 79.2167 60.4037 79.3711 60.2487C79.5236 60.0962 79.7086 60.0256 79.9442 60.0256C80.1673 60.0256 80.3529 60.0962 80.5079 60.2487C80.6598 60.4037 80.7423 60.5887 80.7423 60.8112C80.7423 61.0494 80.6717 61.2319 80.5079 61.3869ZM80.0479 60.865C80.1285 60.8483 80.2028 60.8093 80.2623 60.7525C80.3122 60.6958 80.3376 60.6216 80.3329 60.5462C80.3329 60.4544 80.3036 60.3812 80.2417 60.3312C80.1711 60.2725 80.0573 60.2406 79.9129 60.2406H79.5861V61.3856H79.7504V60.9044H79.8529C79.9229 60.9044 79.9936 60.975 80.0573 61.1087L80.1792 61.385H80.3742L80.2217 61.0769C80.1686 60.9431 80.1073 60.8819 80.0454 60.8619L80.0479 60.865ZM79.9348 60.7619H79.7586V60.3744H79.9029C80.0054 60.3744 80.0767 60.3931 80.1179 60.4244C80.1592 60.4556 80.1679 60.495 80.1679 60.5681C80.1679 60.7006 80.0867 60.7619 79.9336 60.7619H79.9348ZM51.3823 51.8387H51.5248V50.6919H51.9042V50.5481H51.0029V50.6919H51.3823V51.8387ZM52.2504 50.9762C52.2504 50.8656 52.2504 50.7744 52.2423 50.7225C52.2517 50.7831 52.2729 50.8244 52.2823 50.855L52.7223 51.8387H52.7923L53.2342 50.845C53.2461 50.815 53.2554 50.775 53.2748 50.7225C53.2654 50.8244 53.2654 50.9062 53.2654 50.9687V51.8375H53.4179V50.5481H53.2342L52.8348 51.4381C52.8254 51.4694 52.7936 51.5319 52.7742 51.6025H52.7617C52.7542 51.5612 52.7329 51.52 52.7036 51.45L52.3042 50.5487H52.0979V51.8394H52.2417V50.9781L52.2504 50.9762Z" fill="#231F1F"/>
</g>
<defs>
<linearGradient id="paint0_linear_47_4314" x1="36.3057" y1="47.4151" x2="39.4991" y2="45.5282" gradientUnits="userSpaceOnUse">
<stop stop-color="#909CA9"/>
<stop offset="1" stop-color="#EDEDEE"/>
</linearGradient>
<linearGradient id="paint1_linear_47_4314" x1="36.3795" y1="11.8421" x2="38.949" y2="11.8421" gradientUnits="userSpaceOnUse">
<stop stop-color="#939FAB"/>
<stop offset="1" stop-color="#DCDEE1"/>
</linearGradient>
<radialGradient id="paint2_radial_47_4314" cx="0" cy="0" r="1" gradientUnits="userSpaceOnUse" gradientTransform="translate(49.3466 23.6213) rotate(-171.461) scale(3.31462 6.63105)">
<stop stop-color="#EE352C"/>
<stop offset="1" stop-color="#A91D22"/>
</radialGradient>
<clipPath id="clip0_47_4314">
<rect width="80" height="80" fill="white" transform="translate(0.864136)"/>
</clipPath>
</defs>
</svg>
