<svg width="81" height="80" viewBox="0 0 81 80" fill="none" xmlns="http://www.w3.org/2000/svg">
<path d="M18.2131 12.7669C13.6181 19.37 14.19 27.9619 17.7006 34.9794L17.9575 35.4782L18.1219 35.7944L18.2244 35.9763L18.4075 36.3038C18.5163 36.4957 18.6281 36.6863 18.7425 36.8782L18.9338 37.1932C19.0606 37.3969 19.19 37.5994 19.3225 37.8013L19.4881 38.0569C19.6713 38.33 19.8581 38.6019 20.0513 38.87L20.0675 38.8907L20.1625 39.0188C20.3294 39.2488 20.5013 39.4763 20.6756 39.7019L20.8688 39.9475C21.0244 40.1432 21.1825 40.3369 21.3431 40.5313L21.5244 40.7475C21.74 41.0013 21.9606 41.255 22.185 41.5025L22.1981 41.5163L22.2238 41.5444C22.4431 41.7838 22.6675 42.0181 22.8956 42.2525L23.1106 42.4694C23.2869 42.6469 23.4663 42.8213 23.6469 42.995L23.8663 43.2038C24.1081 43.4313 24.3519 43.655 24.6013 43.8725L24.6125 43.8825L24.7406 43.9913C24.96 44.1819 25.1831 44.3694 25.4081 44.555L25.6844 44.7757C25.8681 44.9225 26.0538 45.0682 26.2406 45.2107L26.5388 45.4363C26.745 45.5882 26.9531 45.7375 27.1631 45.8844L27.39 46.0456L27.4531 46.0906C27.6519 46.2281 27.8563 46.36 28.0594 46.4919L28.3219 46.6669C28.6344 46.8638 28.9513 47.0594 29.2713 47.2482L29.5338 47.3963C29.7694 47.5319 30.0063 47.6657 30.2463 47.7957L30.6406 47.9994L31.1506 48.2644L31.2681 48.3213L31.4769 48.4219C31.7438 48.5494 32.0131 48.675 32.285 48.7963L32.4556 48.8725C32.7669 49.0088 33.0813 49.1394 33.3981 49.265L33.6281 49.355C33.9213 49.4688 34.2188 49.5794 34.5175 49.6844L34.6294 49.7232C34.9569 49.8382 35.2881 49.9438 35.6213 50.0481L35.8606 50.1194C36.1994 50.2219 36.535 50.3432 36.8844 50.4082C59.105 54.46 65.5594 37.0557 65.5594 37.0557C60.1381 44.1182 50.5163 45.9807 41.3994 43.9069C41.0538 43.8288 40.7188 43.7207 40.3819 43.6219L40.1281 43.5444C39.7995 43.4442 39.4728 43.3379 39.1481 43.2256L39.0138 43.1775C38.7243 43.0749 38.4363 42.9681 38.15 42.8569L37.9075 42.7619C37.5944 42.6382 37.2825 42.5088 36.975 42.3744L36.7888 42.2913C36.525 42.1727 36.2626 42.0508 36.0019 41.9256L35.7744 41.8163C35.57 41.7169 35.3681 41.6113 35.1656 41.5069L34.76 41.2938C34.5131 41.1625 34.2713 41.025 34.0306 40.885L33.7844 40.7482C33.4648 40.5588 33.1481 40.3647 32.8344 40.1657L32.5781 39.995C32.3505 39.8489 32.1253 39.699 31.9025 39.5457L31.6844 39.3925C31.4697 39.2413 31.2568 39.0875 31.0456 38.9313L30.7625 38.7169C30.5688 38.5688 30.3763 38.4194 30.1863 38.2663L29.9294 38.06C29.6869 37.8613 29.4475 37.66 29.2113 37.4544L29.1325 37.3888C28.8775 37.1638 28.6258 36.935 28.3775 36.7025L28.165 36.4975C27.9809 36.3236 27.8001 36.1462 27.6225 35.9657L27.41 35.7532C27.1838 35.5219 26.9619 35.2875 26.7444 35.0494L26.7113 35.0138C26.4813 34.7621 26.2562 34.5061 26.0363 34.2457L25.8594 34.0357C25.6947 33.8377 25.5329 33.6375 25.3738 33.435L25.1956 33.2132C25.005 32.9669 24.8179 32.7179 24.6344 32.4663C19.5731 25.5619 17.7544 16.0394 21.8 8.2194M32.4756 7.20315C29.1531 11.9844 29.3331 18.3863 31.9256 23.4425C32.3594 24.2925 32.8503 25.1121 33.395 25.8956C33.8925 26.61 34.445 27.4588 35.1056 28.0319C35.345 28.2957 35.5956 28.5532 35.8513 28.8057L36.0475 29C36.2956 29.2407 36.5481 29.4775 36.8088 29.7075L36.84 29.7344L36.8475 29.7419C37.1363 29.995 37.4344 30.2382 37.7369 30.4782L37.9388 30.6357C38.2425 30.8682 38.5519 31.0969 38.8694 31.315L38.8963 31.3357L39.3213 31.615L39.5225 31.7482C39.7494 31.8938 39.9788 32.035 40.2125 32.1707L40.31 32.2282C40.5113 32.3438 40.715 32.4575 40.9194 32.5688L41.1363 32.6813L41.5625 32.9025L41.6269 32.9319C41.92 33.0757 42.215 33.215 42.5169 33.3463L42.7131 33.4275C42.9544 33.5294 43.1975 33.6294 43.4425 33.7232L43.755 33.8382C43.9775 33.9207 44.2 33.9963 44.425 34.0713L44.7275 34.1682C45.0469 34.2669 45.3631 34.3925 45.6956 34.4482C62.8519 37.29 66.8125 24.0807 66.8125 24.0807C63.2425 29.2232 56.3281 31.6763 48.95 29.7613C48.6239 29.6753 48.2999 29.5817 47.9781 29.4807L47.6863 29.3863C47.4583 29.3129 47.2318 29.2349 47.0069 29.1525L46.7 29.0382C46.4545 28.9436 46.2105 28.845 45.9681 28.7425L45.7713 28.6594C45.4696 28.5279 45.1712 28.3891 44.8763 28.2432L44.4275 28.015L44.1688 27.8819C43.9775 27.7782 43.7875 27.6707 43.6006 27.5607L43.465 27.4838C43.2329 27.3486 43.0037 27.2086 42.7775 27.0638L42.57 26.9257L42.125 26.6307C41.8103 26.4123 41.5011 26.1861 41.1975 25.9525L40.9888 25.7875C37.7594 23.2382 35.1994 19.7531 33.9825 15.8019C32.7069 11.7038 32.9819 7.10377 35.1919 3.37002M44.4713 3.04627C42.5125 5.92877 42.32 9.5094 43.6794 12.6931C45.1125 16.0725 48.0494 18.7231 51.4775 19.9806L51.9038 20.1275L52.0913 20.1875C52.2931 20.2513 52.4938 20.325 52.7025 20.3638C62.1756 22.1944 64.745 15.5031 65.4288 14.5175C63.1781 17.7581 59.3956 18.5363 54.7544 17.4094C54.3747 17.3125 54 17.1968 53.6319 17.0625C53.178 16.9011 52.7329 16.7163 52.2981 16.5088C51.4736 16.1117 50.6904 15.6339 49.96 15.0825C45.8069 11.9313 43.2275 5.92065 45.9375 1.02502" fill="#0868AC"/>
<path d="M42.3394 60.1875H39.6982C39.6234 60.1904 39.5516 60.2174 39.4934 60.2643C39.4352 60.3113 39.3937 60.3757 39.375 60.4482L38.4375 64.7857L37.5 69.1232C37.4816 69.1956 37.4402 69.2601 37.3821 69.3071C37.324 69.3541 37.2522 69.381 37.1775 69.3838H35.3082C33.4588 69.3838 33.6725 68.1044 34.0513 66.3519L34.0625 66.2988L34.1038 66.0776L34.1113 66.0363L34.1957 65.5863L34.2863 65.1044L34.3825 64.6138L34.8088 62.5313L35.2357 60.4488C35.2438 60.417 35.2444 60.3837 35.2373 60.3517C35.2303 60.3196 35.2158 60.2896 35.1951 60.2641C35.1744 60.2387 35.148 60.2184 35.118 60.205C35.088 60.1916 35.0553 60.1854 35.0225 60.1869H32.3119C32.2372 60.1896 32.1655 60.2166 32.1075 60.2638C32.0496 60.3109 32.0085 60.3756 31.9907 60.4482L31.4075 63.2132L30.825 65.9788L30.8238 65.9826L30.77 66.24C30.0988 69.3044 30.2763 72.2276 33.925 72.3194L34.0313 72.3213H39.7582C39.8328 72.3185 39.9046 72.2916 39.9627 72.2446C40.0209 72.1976 40.0622 72.1331 40.0807 72.0607L41.3157 66.255L42.5507 60.4488C42.5813 60.305 42.4863 60.1882 42.3394 60.1875ZM14.0544 60.1569H11.1544C11.0795 60.1598 11.0075 60.1866 10.9489 60.2334C10.8903 60.2802 10.8482 60.3445 10.8288 60.4169L10.5538 61.6307L10.2788 62.8444C10.2469 62.9875 10.34 63.1044 10.4869 63.1044H13.4094C13.4843 63.1017 13.5562 63.0748 13.6145 63.0278C13.6729 62.9809 13.7145 62.9163 13.7332 62.8438L13.9988 61.6307L14.2644 60.4176C14.295 60.2744 14.2013 60.1569 14.0544 60.1569ZM13.2132 63.9344H10.29C10.2151 63.9374 10.1432 63.9643 10.0846 64.011C10.026 64.0578 9.98392 64.1221 9.96441 64.1944L9.55379 66.0132L9.14379 67.8313L9.02941 68.3526L8.63504 70.2088L8.24129 72.0657C8.21066 72.2088 8.14754 72.4401 8.10066 72.5788C8.10066 72.5788 7.55441 74.2038 6.63629 74.1851L6.52129 74.1825L5.72691 74.1682C5.65229 74.1699 5.57957 74.1956 5.52062 74.2414C5.46167 74.2872 5.41896 74.3507 5.39879 74.4225L5.09566 75.6969L4.79316 76.9707C4.75879 77.1132 4.85129 77.2307 4.99691 77.2332C5.51754 77.2394 6.68379 77.2525 7.38941 77.2525C9.68254 77.2525 10.8919 75.9819 11.6663 72.3257L12.5732 68.1294L13.4238 64.1938C13.4544 64.0519 13.3594 63.9344 13.2132 63.9344ZM67.0363 62.9507L66.915 62.4501L66.7957 61.9376L66.735 61.6788C66.4975 60.7557 65.8007 60.2238 64.2869 60.2238L61.9307 60.2213L59.7607 60.2182H57.3188C57.2442 60.2209 57.1724 60.2478 57.1144 60.2948C57.0564 60.3418 57.0151 60.4064 56.9969 60.4788L56.8888 60.9888L56.7613 61.5913L56.7257 61.7607L55.6263 66.9107L54.5825 71.7994C54.5513 71.9432 54.5413 72.1194 54.5588 72.1907C54.5763 72.2625 54.8582 72.3213 55.0044 72.3213H57.2069C57.3538 72.3213 57.5394 72.295 57.6194 72.2625C57.6994 72.23 57.8175 71.9419 57.8469 71.7988L58.2382 69.8619L58.63 67.9244L58.6307 67.9213L58.6832 67.6632L59.1582 65.4382L59.5775 63.4732C59.596 63.4009 59.6373 63.3365 59.6953 63.2896C59.7533 63.2426 59.8249 63.2156 59.8994 63.2126L66.83 63.2094C66.9769 63.2107 67.0694 63.0938 67.0363 62.9507ZM75.9582 58.4257L75.4244 58.4275H73.2063C73.125 58.4321 73.0457 58.4542 72.9737 58.4923C72.9018 58.5304 72.8389 58.5835 72.7894 58.6482L67.8838 65.8344C67.8013 65.9557 67.7069 65.9382 67.6744 65.7957L67.3132 64.2126C67.2937 64.14 67.2515 64.0757 67.1928 64.0289C67.1341 63.9821 67.0619 63.9553 66.9869 63.9526H63.8338C63.6869 63.9526 63.6 64.0675 63.64 64.2082L65.0532 69.1588C65.0932 69.3001 65.0963 69.5313 65.06 69.6738L64.4444 72.0694C64.4075 72.2119 64.4975 72.3276 64.6444 72.3276H67.7613C67.8367 72.3245 67.9092 72.298 67.9688 72.2517C68.0284 72.2054 68.0721 72.1417 68.0938 72.0694L68.71 69.6738C68.7588 69.505 68.8355 69.3455 68.9369 69.2019L76.9007 58.6326C76.9894 58.5151 76.9413 58.4194 76.795 58.4207L75.9582 58.4257ZM50.9044 64.625V64.6225C50.8936 64.698 50.8563 64.7672 50.7991 64.8177C50.742 64.8682 50.6688 64.8967 50.5925 64.8982H46.5944C46.4557 64.8982 46.3857 64.8044 46.4063 64.6882L46.41 64.6788L46.4075 64.6801L46.4094 64.6669L46.4275 64.5988C46.8094 63.5838 47.5869 62.9176 49.0488 62.9176C50.695 62.9169 51.0163 63.7207 50.9044 64.625ZM49.7313 60.0101C44.5994 60.0101 43.3832 63.1251 42.7007 66.2694C42.0188 69.4744 42.0769 72.47 47.3882 72.47H48.0319L48.1919 72.4694H48.2294L48.8669 72.4676H48.8782C50.2807 72.4619 51.6875 72.4513 52.2569 72.4469C52.3311 72.4432 52.4021 72.4156 52.4594 72.3683C52.5167 72.321 52.5573 72.2566 52.575 72.1844L52.79 71.1338L52.8319 70.9294L53.0882 69.6757C53.0963 69.6439 53.0969 69.6106 53.0899 69.5786C53.0828 69.5466 53.0684 69.5166 53.0476 69.4912C53.0269 69.4658 53.0005 69.4456 52.9705 69.4322C52.9405 69.4189 52.9078 69.4128 52.875 69.4144H48.1007C46.2013 69.4144 45.6375 68.91 45.8457 67.4263H53.4775L53.4769 67.4269L53.4819 67.4263C53.5423 67.4237 53.6006 67.4037 53.65 67.3688C53.6993 67.3339 53.7375 67.2855 53.76 67.2294L53.7782 67.1632L53.7775 67.1638C54.9107 62.8894 54.5857 60.0107 49.7313 60.0101ZM25.475 64.6088L25.4025 64.8644L24.8263 66.9075L24.25 68.9494C24.2265 69.0218 24.1813 69.0852 24.1206 69.1311C24.06 69.177 23.9867 69.2033 23.9107 69.2063H20.8607C18.5469 69.2063 17.9832 67.3963 18.5469 64.7275C19.11 61.9975 20.2144 60.3007 22.4919 60.1288C25.6044 59.8938 26.2269 62.0826 25.475 64.6088ZM27.5675 69.0494C27.5675 69.0494 29.0057 65.5569 29.3319 63.5407C29.7775 60.8413 28.4257 56.925 23.2044 56.925C18.0132 56.925 15.7582 60.6632 14.8982 64.7275C14.0382 68.8213 15.165 72.4107 20.3269 72.3813L24.3994 72.3663L28.205 72.3526C28.2805 72.3488 28.3529 72.322 28.4126 72.2757C28.4723 72.2294 28.5164 72.1659 28.5388 72.0938L29.2019 69.5651C29.2388 69.4226 29.1494 69.3063 29.0025 69.3051L28.3669 69.3013L27.7313 69.2976C27.6069 69.2969 27.5357 69.2157 27.5507 69.1088L27.5675 69.0494ZM53.2675 66.7113C53.2676 66.7343 53.2631 66.757 53.2543 66.7783C53.2456 66.7995 53.2327 66.8189 53.2165 66.8351C53.2003 66.8514 53.181 66.8643 53.1598 66.8732C53.1386 66.882 53.1158 66.8866 53.0928 66.8866C53.0699 66.8867 53.0471 66.8822 53.0259 66.8734C53.0046 66.8647 52.9853 66.8518 52.969 66.8356C52.9527 66.8194 52.9398 66.8001 52.931 66.7789C52.9221 66.7577 52.9176 66.7349 52.9175 66.7119C52.9175 66.6655 52.9358 66.621 52.9686 66.5881C53.0013 66.5552 53.0458 66.5367 53.0922 66.5366C53.1386 66.5365 53.1832 66.5549 53.2161 66.5876C53.2489 66.6204 53.2675 66.6649 53.2675 66.7113Z" fill="#131B28"/>
</svg>
