<svg width="81" height="80" viewBox="0 0 81 80" fill="none" xmlns="http://www.w3.org/2000/svg">
<g clip-path="url(#clip0_47_4240)">
<path d="M56.3015 3.66185H51.6865L56.4858 8.86998V11.3494H46.6008V8.44623H51.3996L46.6008 3.2381V0.756226L56.3015 0.756226V3.66185ZM44.6408 3.66185H40.0258L44.8252 8.86998V11.3494H34.9396V8.44623H39.739L34.9396 3.2381V0.756226H44.6408V3.66185ZM33.0946 3.7806H28.1146V8.32498H33.0946V11.3494H24.5746V0.756226L33.0946 0.756226V3.7806Z" fill="#131313"/>
<path d="M17.7883 72.9394L12.7277 16.1813H68.332L63.267 72.93L40.4958 79.2438L17.7883 72.9394Z" fill="#1572B6"/>
<path d="M40.5308 74.4206L58.9302 69.3193L63.2589 20.825H40.5308V74.4206Z" fill="#33A9DC"/>
<path d="M40.5308 41.3894H49.7421L50.379 34.2613H40.5308V27.3H57.9864L57.8196 29.1676L56.109 48.3501H40.5308V41.3894Z" fill="white"/>
<path d="M40.572 59.4618L40.5414 59.4706L32.7889 57.3768L32.2927 51.825H25.3058L26.2814 62.7549L40.5402 66.7131L40.5727 66.7037L40.572 59.4618Z" fill="#EBEBEB"/>
<path d="M49.1489 48.0563L48.3102 57.3788L40.5464 59.4744V66.7169L54.8171 62.7619L54.9221 61.5856L56.1333 48.0563H49.1489Z" fill="white"/>
<path d="M40.5564 27.3V34.2607H23.742L23.602 32.6963L23.2852 29.1676L23.1183 27.3H40.5564ZM40.532 41.3901V48.3513H32.8777L32.7383 46.7869L32.4208 43.2576L32.2539 41.3901H40.532Z" fill="#EBEBEB"/>
</g>
<defs>
<clipPath id="clip0_47_4240">
<rect width="80" height="80" fill="white" transform="translate(0.530823)"/>
</clipPath>
</defs>
</svg>
