<svg width="81" height="80" viewBox="0 0 81 80" fill="none" xmlns="http://www.w3.org/2000/svg">
<path d="M8.75739 66.9587H13.7868V77.8469H11.6043V69.0806L9.65676 69.0881H9.18864C8.10114 69.0881 7.49676 69.1337 7.37614 69.2244C6.72676 69.4006 6.17801 69.7756 5.72989 70.3494C5.24739 71.0394 5.00551 71.7262 5.00551 72.4112C5.00551 73.2569 5.33239 74.035 5.98676 74.7444C6.42489 75.1619 6.80239 75.4137 7.11989 75.4994C7.43676 75.6606 7.98301 75.7412 8.75801 75.7412H10.2761V77.8475H8.45676C7.10739 77.8475 5.96739 77.4931 5.03551 76.7831C4.36114 76.2494 3.91051 75.7662 3.68426 75.3337C3.12051 74.4375 2.83801 73.5212 2.83801 72.585V72.2681C2.83801 70.9587 3.32864 69.7581 4.31051 68.6662C4.90426 68.0869 5.39051 67.7219 5.76739 67.5712C6.03989 67.42 6.41426 67.2762 6.89301 67.1412C7.32051 67.0187 7.94239 66.9587 8.75739 66.9587ZM24.773 69.1331C24.9893 69.425 25.1455 69.6737 25.2411 69.88C25.3824 70.1275 25.5149 70.4594 25.6418 70.8769C25.7924 71.3806 25.868 72.065 25.868 72.9306V77.8462H23.6855V72.6969C23.6855 70.965 22.903 69.8075 21.3374 69.2231C20.9799 69.1225 20.6655 69.07 20.393 69.0644C20.1211 69.07 19.8093 69.1225 19.4568 69.2231C17.8911 69.8075 17.1086 70.965 17.1086 72.6969V77.8462H14.9186V72.9306C14.9186 72.065 14.9943 71.3806 15.1449 70.8769C15.2705 70.4594 15.4043 70.1275 15.5455 69.88C15.6411 69.6687 15.7993 69.42 16.0211 69.1331C17.1943 67.6931 18.6518 66.9731 20.393 66.9731C22.1355 66.9731 23.5949 67.6931 24.773 69.1331ZM30.8968 66.9656C32.3624 66.9656 33.2024 66.9987 33.4193 67.0637C34.013 67.1344 34.6824 67.3837 35.4274 67.8112C35.8349 68.0625 36.2686 68.4481 36.7261 68.9662C37.5418 69.9781 37.9493 71.1287 37.9493 72.4169C37.9535 73.1518 37.8045 73.8796 37.5118 74.5537C36.938 75.8575 35.9936 76.7994 34.6805 77.3781C34.0711 77.6906 33.1349 77.8462 31.8718 77.8462H27.243L27.0011 77.8012V75.7319H32.1055C32.6493 75.7319 33.0693 75.6844 33.3668 75.5887C34.1574 75.3219 34.7355 74.9244 35.103 74.3956C35.5511 73.7269 35.7749 73.0744 35.7749 72.44C35.7749 71.8012 35.5811 71.1719 35.1936 70.5519C34.9518 70.195 34.6855 69.9231 34.3936 69.7362C33.8599 69.2987 33.0974 69.0794 32.1055 69.0794H27.0011V66.965L30.8968 66.9656ZM39.0824 66.9656H46.0749C47.308 66.9656 48.2749 67.3356 48.9743 68.0756C49.2868 68.3675 49.503 68.6494 49.6236 68.9212C49.8961 69.465 50.0311 69.9962 50.0311 70.515V70.8244C50.0311 71.6194 49.6861 72.3975 48.9974 73.1575C48.5543 73.58 48.1511 73.8519 47.7886 73.9731C48.7049 74.95 49.163 76.2406 49.163 77.8462H46.9655V77.68C46.9655 76.4925 46.4843 75.5481 45.523 74.8487C44.9743 74.4612 44.2568 74.2669 43.3711 74.2669H39.0824V72.1681H46.2105C46.9905 72.1681 47.5193 71.7831 47.7961 71.0125C47.8222 70.8826 47.8423 70.7517 47.8561 70.62C47.8561 70.1919 47.678 69.8044 47.3205 69.4575C47.0136 69.2156 46.6861 69.095 46.3393 69.095C46.3393 69.075 46.2336 69.0644 46.0218 69.0644H39.0824V66.9656ZM56.608 66.9731H56.683C58.3549 66.9731 59.7818 67.6581 60.9649 69.0269C61.7305 70.0544 62.1124 71.1719 62.1124 72.3794V72.455C62.1124 74.1262 61.413 75.5456 60.0136 76.7131C58.9968 77.4687 57.8818 77.8462 56.6686 77.8462H56.593C54.9318 77.8462 53.5093 77.1669 52.3268 75.8075C51.9143 75.2287 51.6249 74.6975 51.458 74.2144C51.2673 73.6418 51.1679 73.0428 51.1636 72.4394V72.3644C51.1636 70.7231 51.8405 69.3187 53.1949 68.1506C54.1111 67.4962 54.9468 67.1287 55.7018 67.0481C55.933 66.9987 56.2349 66.9731 56.608 66.9731ZM53.338 72.395C53.338 73.3419 53.708 74.1725 54.448 74.8869C55.1074 75.45 55.7993 75.7325 56.5243 75.7325H56.7355C57.3199 75.7325 57.9136 75.5337 58.518 75.1362C59.1418 74.6781 59.5649 74.0944 59.7861 73.3844C59.8561 73.1981 59.9068 72.8781 59.9368 72.4256C59.9368 71.4994 59.5774 70.6812 58.8568 69.9712C58.1824 69.3719 57.4424 69.0725 56.6368 69.0725C55.6955 69.0725 54.8599 69.465 54.1299 70.2506C53.823 70.6537 53.6286 70.995 53.548 71.2775C53.4086 71.67 53.338 72.0425 53.338 72.395ZM63.2449 66.9731H65.4268V77.8462H63.2449V66.9731ZM70.5011 66.9656C71.9661 66.9656 72.8061 66.9987 73.023 67.0637C73.6168 67.1344 74.2861 67.3837 75.0311 67.8112C75.4386 68.0625 75.8724 68.4481 76.3299 68.9662C77.1455 69.9781 77.553 71.1287 77.553 72.4169C77.5573 73.1518 77.4083 73.8796 77.1155 74.5537C76.5418 75.8575 75.5974 76.7994 74.2843 77.3781C73.6749 77.6906 72.7386 77.8462 71.4755 77.8462H66.8468L66.6049 77.8012V75.7319H71.7093C72.253 75.7319 72.673 75.6844 72.9705 75.5887C73.7611 75.3219 74.3393 74.9244 74.7068 74.3956C75.1549 73.7269 75.3786 73.0744 75.3786 72.44C75.3786 71.8012 75.1849 71.1719 74.7974 70.5519C74.5555 70.195 74.2893 69.9231 73.9974 69.7362C73.4636 69.2987 72.7011 69.0794 71.7093 69.0794H66.6049V66.965L70.5011 66.9656ZM18.4355 22.7244C17.4506 22.7247 16.506 23.1161 15.8096 23.8127C15.1132 24.5092 14.7219 25.4538 14.7218 26.4387L14.7243 41.9944C14.7249 44.0512 16.388 45.7112 18.4399 45.7112C20.4918 45.7112 22.1549 44.0512 22.153 41.9956V26.4381C22.1522 25.4528 21.7601 24.5081 21.063 23.8117C20.3659 23.1153 19.4209 22.7242 18.4355 22.7244ZM48.3924 8.75498L50.9849 4.02123C51.0509 3.90099 51.0665 3.75951 51.0285 3.62774C50.9904 3.49598 50.9017 3.38465 50.7818 3.31811C50.6615 3.2534 50.5206 3.23876 50.3897 3.27739C50.2587 3.31601 50.1483 3.40476 50.0824 3.52436L47.4636 8.30811C45.1716 7.29331 42.6915 6.77304 40.1849 6.78123C37.6843 6.77316 35.2101 7.29147 32.923 8.30248L30.3018 3.53061C30.2697 3.47109 30.2262 3.41851 30.1737 3.3759C30.1212 3.33328 30.0608 3.30147 29.9959 3.2823C29.9311 3.26313 29.8631 3.25697 29.7959 3.26419C29.7287 3.27141 29.6635 3.29186 29.6043 3.32436C29.5446 3.35634 29.4919 3.3999 29.4492 3.45247C29.4065 3.50505 29.3748 3.56559 29.3557 3.63058C29.3367 3.69556 29.3308 3.76368 29.3384 3.83097C29.346 3.89826 29.3669 3.96336 29.3999 4.02248L31.993 8.75373C26.8968 11.3819 23.4536 16.3881 23.4568 22.1337L56.9186 22.13C56.9186 16.3844 53.4818 11.3906 48.3924 8.75498ZM32.5743 16.0719C32.2021 16.0716 31.8453 15.9235 31.5824 15.6602C31.3194 15.3969 31.1718 15.0399 31.1721 14.6678C31.1723 14.2957 31.3204 13.9389 31.5837 13.6759C31.847 13.4129 32.204 13.2654 32.5761 13.2656C32.9483 13.2668 33.3049 13.4152 33.5679 13.6785C33.8309 13.9417 33.9791 14.2984 33.9799 14.6706C33.9792 15.0428 33.8308 15.3995 33.5672 15.6623C33.3036 15.925 32.9465 16.0724 32.5743 16.0719ZM47.8111 16.0694C47.6269 16.0695 47.4444 16.0334 47.2741 15.9629C47.1039 15.8925 46.9492 15.7892 46.8188 15.659C46.6885 15.5287 46.5852 15.374 46.5147 15.2038C46.4442 15.0336 46.4079 14.8511 46.408 14.6669C46.4101 14.2951 46.5586 13.9391 46.8211 13.6759C47.0837 13.4128 47.4394 13.2636 47.8111 13.2606C48.1827 13.2639 48.538 13.4135 48.8001 13.6769C49.0622 13.9404 49.2098 14.2965 49.2111 14.6681C49.2113 14.8521 49.1752 15.0342 49.1049 15.2042C49.0346 15.3742 48.9316 15.5287 48.8015 15.6589C48.6715 15.789 48.5171 15.8922 48.3472 15.9627C48.1772 16.0331 47.9951 16.0694 47.8111 16.0694ZM23.5924 23.4262L23.598 47.5337C23.5974 48.0544 23.6996 48.57 23.8986 49.0511C24.0976 49.5322 24.3896 49.9693 24.7578 50.3374C25.126 50.7055 25.5632 50.9973 26.0443 51.1961C26.5255 51.395 27.0411 51.497 27.5618 51.4962L30.2605 51.4975L30.2643 59.7287C30.2646 60.7134 30.6557 61.6577 31.3516 62.3544C32.0475 63.051 32.9914 63.443 33.9761 63.4444C34.9618 63.4435 35.9067 63.0515 36.6035 62.3543C37.3002 61.6571 37.6916 60.7119 37.6918 59.7262L37.6893 51.4975L42.7043 51.4962L42.7061 59.7262C42.7061 61.7744 44.373 63.4431 46.4199 63.4394C47.4053 63.4394 48.3504 63.0479 49.0472 62.3511C49.7441 61.6543 50.1355 60.7092 50.1355 59.7237L50.133 51.495L52.8418 51.4925C53.3625 51.4926 53.8782 51.3901 54.3593 51.1908C54.8404 50.9916 55.2776 50.6996 55.6459 50.3314C56.0141 49.9632 56.3062 49.5261 56.5055 49.045C56.7048 48.5639 56.8074 48.0482 56.8074 47.5275L56.803 23.42L23.5924 23.4262ZM65.6655 26.4344C65.6658 25.9465 65.5699 25.4634 65.3833 25.0126C65.1967 24.5619 64.9231 24.1523 64.5782 23.8073C64.2332 23.4624 63.8236 23.1888 63.3729 23.0022C62.9221 22.8156 62.439 22.7197 61.9511 22.72C61.4633 22.72 60.9803 22.8161 60.5296 23.0029C60.079 23.1896 59.6695 23.4634 59.3247 23.8084C58.9799 24.1535 58.7064 24.5631 58.5199 25.0139C58.3335 25.4647 58.2377 25.9478 58.238 26.4356L58.2411 41.9925C58.2408 42.4802 58.3367 42.9633 58.5232 43.414C58.7097 43.8647 58.9833 44.2741 59.3282 44.619C59.6731 44.9639 60.0826 45.2374 60.5334 45.4238C60.9841 45.6103 61.4671 45.706 61.9549 45.7056C62.4428 45.7058 62.9259 45.6098 63.3766 45.4231C63.8274 45.2364 64.2369 44.9626 64.5817 44.6175C64.9266 44.2724 65.2 43.8628 65.3864 43.4119C65.5728 42.961 65.6685 42.4779 65.668 41.99L65.6655 26.4344Z" fill="#7CB342"/>
</svg>
