<svg width="81" height="80" viewBox="0 0 81 80" fill="none" xmlns="http://www.w3.org/2000/svg">
<g clip-path="url(#clip0_47_4306)">
<path d="M9.89702 9.46812C9.74889 5.20875 13.067 1.28125 17.5526 1.28125L63.5151 1.28125C68.0008 1.28125 71.3189 5.20875 71.1708 9.46812C71.0283 13.5594 71.2133 18.8594 72.547 23.1806C73.8851 27.5156 76.1414 30.255 79.837 30.6075V34.5994C76.1414 34.9513 73.8851 37.6912 72.547 42.0262C71.2133 46.3475 71.0283 51.6475 71.1708 55.7387C71.3189 59.9981 68.0008 63.925 63.5151 63.925H17.5526C13.067 63.925 9.74889 59.9975 9.89702 55.7387C10.0395 51.6475 9.85452 46.3475 8.52014 42.0262C7.18264 37.6919 4.92014 34.9519 1.22452 34.5994V30.6075C4.92014 30.2556 7.18264 27.5156 8.52014 23.1806C9.85452 18.8594 10.0389 13.5594 9.89702 9.46812Z" fill="url(#paint0_linear_47_4306)"/>
<g filter="url(#filter0_d_47_4306)">
<path d="M42.4739 49.48C49.7357 49.48 54.1114 45.9244 54.1114 40.06C54.1114 35.6269 50.9895 32.4175 46.3532 31.9094V31.7244C49.7595 31.1706 52.432 28.0075 52.432 24.4744C52.432 19.4412 48.4582 16.1625 42.4026 16.1625H28.7776V49.48H42.4739ZM34.0764 20.3881H41.1257C44.957 20.3881 47.1339 22.0962 47.1339 25.1906C47.1339 28.4919 44.6026 30.3394 40.0139 30.3394H34.0764V20.3881ZM34.0764 45.255V34.2875H41.0782C46.0926 34.2875 48.6945 36.1344 48.6945 39.7362C48.6945 43.3381 46.1639 45.255 41.3857 45.255H34.0764Z" fill="url(#paint1_linear_47_4306)"/>
<path d="M42.4739 49.48C49.7357 49.48 54.1114 45.9244 54.1114 40.06C54.1114 35.6269 50.9895 32.4175 46.3532 31.9094V31.7244C49.7595 31.1706 52.432 28.0075 52.432 24.4744C52.432 19.4412 48.4582 16.1625 42.4026 16.1625H28.7776V49.48H42.4739ZM34.0764 20.3881H41.1257C44.957 20.3881 47.1339 22.0962 47.1339 25.1906C47.1339 28.4919 44.6026 30.3394 40.0139 30.3394H34.0764V20.3881ZM34.0764 45.255V34.2875H41.0782C46.0926 34.2875 48.6945 36.1344 48.6945 39.7362C48.6945 43.3381 46.1639 45.255 41.3857 45.255H34.0764Z" fill="white"/>
</g>
<path d="M7.65576 75.8925V64.8063H10.8101C11.7683 64.8063 12.5289 65.0406 13.0908 65.51C13.6526 65.9788 13.9333 66.5894 13.9333 67.3419C13.9333 67.9713 13.7633 68.5175 13.4233 68.9813C13.0826 69.445 12.6139 69.775 12.0158 69.9706V70.0019C12.7633 70.0894 13.3614 70.3725 13.8095 70.8519C14.2576 71.3263 14.482 71.9444 14.482 72.7075C14.482 73.6556 14.142 74.4238 13.462 75.0113C12.7814 75.5988 11.9233 75.8925 10.887 75.8925H7.65576ZM8.95451 65.9813V69.5607H10.2845C10.9958 69.5607 11.5551 69.3906 11.962 69.0506C12.3689 68.705 12.5726 68.22 12.5726 67.5969C12.5726 66.52 11.8639 65.9813 10.4464 65.9813H8.95451ZM8.95451 70.7281V74.7175H10.717C11.4795 74.7175 12.0701 74.5369 12.4876 74.1763C12.9101 73.8156 13.1214 73.3206 13.1214 72.6919C13.1214 71.3825 12.2295 70.7281 10.4464 70.7281H8.95451ZM19.8708 76.08C18.7008 76.08 17.7651 75.7113 17.0645 74.9744C16.3689 74.2325 16.0208 73.2506 16.0208 72.0288C16.0208 70.6994 16.3839 69.6606 17.1108 68.9131C17.8376 68.1663 18.8195 67.7925 20.0564 67.7925C21.2364 67.7925 22.1564 68.1556 22.8164 68.8825C23.4808 69.6094 23.8133 70.6169 23.8133 71.905C23.8133 73.1682 23.4551 74.1807 22.7383 74.9438C22.0276 75.7013 21.0714 76.08 19.8708 76.08ZM19.9633 68.8594C19.1489 68.8594 18.5051 69.1375 18.0308 69.6944C17.5564 70.2456 17.3195 71.0082 17.3195 71.9825C17.3195 72.9207 17.5589 73.6606 18.0383 74.2013C18.5176 74.7431 19.1589 75.0138 19.9633 75.0138C20.7826 75.0138 21.412 74.7481 21.8501 74.2169C22.2933 73.6863 22.5145 72.9313 22.5145 71.9519C22.5145 70.9625 22.2933 70.1994 21.8501 69.6631C21.412 69.1275 20.7826 68.8594 19.9633 68.8594ZM29.1483 76.08C27.9783 76.08 27.0426 75.7113 26.342 74.9744C25.6464 74.2325 25.2983 73.2506 25.2983 72.0288C25.2983 70.6994 25.6614 69.6606 26.3883 68.9131C27.1151 68.1663 28.097 67.7925 29.3339 67.7925C30.5139 67.7925 31.4339 68.1556 32.0939 68.8825C32.7589 69.6094 33.0914 70.6169 33.0914 71.905C33.0914 73.1682 32.7333 74.1807 32.0164 74.9438C31.3051 75.7013 30.3495 76.08 29.1483 76.08ZM29.2408 68.8594C28.4264 68.8594 27.7826 69.1375 27.3083 69.6944C26.8339 70.2456 26.597 71.0082 26.597 71.9825C26.597 72.9207 26.8364 73.6606 27.3158 74.2013C27.7951 74.7431 28.4364 75.0138 29.2408 75.0138C30.0601 75.0138 30.6895 74.7481 31.1276 74.2169C31.5708 73.6863 31.792 72.9313 31.792 71.9519C31.792 70.9625 31.5708 70.1994 31.1276 69.6631C30.6895 69.1275 30.0608 68.8594 29.2408 68.8594ZM38.7883 75.8175C38.4895 75.9825 38.0951 76.065 37.6051 76.065C36.2189 76.065 35.5258 75.2919 35.5258 73.7457V69.0606H34.1651V67.9781H35.5258V66.0457L36.7939 65.6356V67.9781H38.7876V69.0606H36.7939V73.5213C36.7939 74.0519 36.8839 74.4313 37.0645 74.6582C37.2445 74.885 37.5433 74.9981 37.9608 74.9981C38.2801 74.9981 38.5564 74.9107 38.7883 74.7357V75.8175ZM40.002 75.605V74.2444C40.6926 74.7544 41.4526 75.0094 42.2826 75.0094C43.3958 75.0094 43.9526 74.6388 43.9526 73.8969C43.9526 73.685 43.9039 73.5075 43.8058 73.3632C43.7057 73.2062 43.5739 73.0718 43.4189 72.9688C43.241 72.8459 43.049 72.7447 42.847 72.6675C42.6141 72.568 42.3795 72.4726 42.1433 72.3813C41.8274 72.2575 41.5178 72.1182 41.2158 71.9638C40.9737 71.8344 40.75 71.6732 40.5508 71.4844C40.3788 71.3086 40.2423 71.1013 40.1489 70.8738C40.0614 70.6469 40.0176 70.3819 40.0176 70.0775C40.0176 69.7069 40.1026 69.3794 40.2726 69.0956C40.442 68.8077 40.6745 68.5619 40.9526 68.3769C41.2474 68.1758 41.5744 68.0266 41.9195 67.9356C42.2877 67.8373 42.6672 67.7879 43.0483 67.7888C43.7339 67.7888 44.347 67.9075 44.8883 68.145V69.4281C44.3058 69.0463 43.6358 68.8556 42.8776 68.8556C42.6401 68.8556 42.427 68.8838 42.2364 68.9406C42.0595 68.9861 41.892 69.0623 41.7414 69.1656C41.6108 69.2591 41.5025 69.3803 41.4245 69.5206C41.3515 69.6588 41.3143 69.8131 41.3164 69.9694C41.3164 70.175 41.3526 70.3475 41.4245 70.4869C41.5014 70.6263 41.612 70.75 41.757 70.8581C41.9008 70.9663 42.0764 71.0644 42.2826 71.1519C42.4889 71.2394 42.7233 71.335 42.9864 71.4381C43.3364 71.5719 43.6508 71.7113 43.9295 71.8556C44.1879 71.9813 44.4273 72.1427 44.6408 72.335C44.8364 72.51 44.9858 72.7138 45.0889 72.9456C45.197 73.1775 45.2514 73.4532 45.2514 73.7725C45.2514 74.1644 45.1639 74.5044 44.9889 74.7931C44.8183 75.0819 44.5889 75.3213 44.3001 75.5119C43.9947 75.7099 43.6575 75.8539 43.3033 75.9375C42.916 76.0319 42.5187 76.0787 42.1201 76.0769C41.3058 76.0769 40.6001 75.9194 40.002 75.605ZM50.8708 75.8175C50.5726 75.9825 50.1783 76.065 49.6883 76.065C48.302 76.065 47.6089 75.2919 47.6089 73.7457V69.0606H46.2483V67.9781H47.6089V66.0457L48.877 65.6356V67.9781H50.8708V69.0606H48.877V73.5213C48.877 74.0519 48.967 74.4313 49.1476 74.6582C49.3276 74.885 49.6264 74.9981 50.0439 74.9981C50.3633 74.9981 50.6395 74.9107 50.8714 74.7357L50.8708 75.8175ZM56.6933 69.2613C56.4714 69.0913 56.152 69.0063 55.7345 69.0063C55.1933 69.0063 54.7395 69.2613 54.3739 69.7713C54.0133 70.2819 53.8326 70.9775 53.8326 71.8588V75.8944H52.5651V67.9781H53.8326V69.6094H53.8639C54.0445 69.0525 54.3201 68.62 54.6908 68.3107C55.0614 67.9963 55.4764 67.8388 55.9358 67.8388C56.2651 67.8388 56.5176 67.875 56.6933 67.9475V69.2613ZM63.7376 75.8925H62.4695V74.655H62.4383C61.8876 75.6038 61.0758 76.0781 60.0045 76.0781C59.2158 76.0781 58.597 75.8694 58.1483 75.4519C57.7051 75.0344 57.4839 74.48 57.4839 73.7894C57.4839 72.31 58.3545 71.45 60.0964 71.2081L62.4701 70.875C62.4701 69.53 61.9264 68.8575 60.8389 68.8575C59.8858 68.8575 59.0251 69.1819 58.257 69.8313V68.5325C59.0351 68.0381 59.932 67.7907 60.9476 67.7907C62.8083 67.7907 63.7383 68.775 63.7383 70.7438L63.7376 75.8925ZM62.4689 71.8882L60.5601 72.1506C59.9726 72.2331 59.5289 72.38 59.2301 72.5913C58.9314 72.7975 58.782 73.1663 58.782 73.6969C58.782 74.0838 58.9189 74.4007 59.192 74.6482C59.4701 74.89 59.8389 75.0106 60.2976 75.0106C60.9264 75.0106 61.4445 74.7919 61.8514 74.3544C62.2639 73.9113 62.4701 73.3519 62.4701 72.6763L62.4689 71.8882ZM67.4251 74.7488H67.3939V79.5344H66.1264V67.9763H67.3945V69.3675H67.4251C68.0489 68.3163 68.9614 67.7907 70.162 67.7907C71.1826 67.7907 71.9789 68.1463 72.5508 68.8575C73.1226 69.5632 73.4089 70.5119 73.4089 71.7025C73.4089 73.0269 73.087 74.0888 72.4426 74.8875C71.7983 75.6813 70.917 76.0781 69.7989 76.0781C68.7733 76.0781 67.982 75.6356 67.4251 74.7488ZM67.3939 71.5556V72.6619C67.3939 73.3163 67.6051 73.8725 68.0283 74.3313C68.4564 74.785 68.997 75.0119 69.6514 75.0119C70.4195 75.0119 71.0201 74.7181 71.4533 74.1306C71.8908 73.5431 72.1095 72.7263 72.1095 71.6794C72.1095 70.7982 71.9064 70.1075 71.4995 69.6075C71.0926 69.1075 70.5408 68.8575 69.8451 68.8575C69.1076 68.8575 68.5151 69.115 68.067 69.6307C67.6183 70.1413 67.3939 70.7825 67.3939 71.5556Z" fill="#7952B3"/>
</g>
<defs>
<filter id="filter0_d_47_4306" x="23.8651" y="12.4787" width="35.1587" height="43.1425" filterUnits="userSpaceOnUse" color-interpolation-filters="sRGB">
<feFlood flood-opacity="0" result="BackgroundImageFix"/>
<feColorMatrix in="SourceAlpha" type="matrix" values="0 0 0 0 0 0 0 0 0 0 0 0 0 0 0 0 0 0 127 0" result="hardAlpha"/>
<feOffset dy="1.22875"/>
<feGaussianBlur stdDeviation="2.45625"/>
<feColorMatrix type="matrix" values="0 0 0 0 0 0 0 0 0 0 0 0 0 0 0 0 0 0 0.15 0"/>
<feBlend mode="normal" in2="BackgroundImageFix" result="effect1_dropShadow_47_4306"/>
<feBlend mode="normal" in="SourceGraphic" in2="effect1_dropShadow_47_4306" result="shape"/>
</filter>
<linearGradient id="paint0_linear_47_4306" x1="12.9064" y1="2.93938" x2="81.5989" y2="57.4681" gradientUnits="userSpaceOnUse">
<stop stop-color="#9013FE"/>
<stop offset="1" stop-color="#6610F2"/>
</linearGradient>
<linearGradient id="paint1_linear_47_4306" x1="31.1751" y1="18.355" x2="46.5289" y2="44.3225" gradientUnits="userSpaceOnUse">
<stop stop-color="white"/>
<stop offset="1" stop-color="#F1E5FC"/>
</linearGradient>
<clipPath id="clip0_47_4306">
<rect width="80" height="80" fill="white" transform="translate(0.530762)"/>
</clipPath>
</defs>
</svg>
