<svg width="81" height="80" viewBox="0 0 81 80" fill="none" xmlns="http://www.w3.org/2000/svg">
<path d="M17.939 72.7194L12.9121 16.3375H68.1484L63.1165 72.7106L40.4965 78.9813L17.939 72.7194Z" fill="#E44D26"/>
<path d="M40.5308 74.19L58.8083 69.1225L63.1089 20.95H40.5308V74.19Z" fill="#F16529"/>
<path d="M40.5296 41.8656H31.3789L30.7477 34.7838H40.5296V27.8688H23.1902L23.3552 29.7244L25.0552 48.78H40.5296V41.8656ZM40.5296 59.8238L40.4989 59.8319L32.7983 57.7519L32.3058 52.2375H25.3639L26.3327 63.095L40.4977 67.0275L40.5296 67.0182V59.8238Z" fill="#EBEBEB"/>
<path d="M18.0527 1.0188H21.5665V4.4913H24.7815V1.0188H28.2959V11.5325H24.7815V8.01192H21.5671V11.5325H18.0527V1.0188ZM32.9165 4.50567H29.8227V1.0188L39.5259 1.0188V4.50567H36.4309V11.5325H32.9165V4.50567ZM41.0659 1.0188H44.7296L46.984 4.71317L49.2359 1.0188H52.9015V11.5325H49.4009V6.3213L46.984 10.0594H46.9227L44.504 6.3213V11.5325H41.0652V1.0188H41.0659ZM54.6509 1.0188H58.1659V8.05755H63.1077V11.5332H54.6509V1.0188Z" fill="black"/>
<path d="M40.509 41.8656V48.78H49.024L48.2215 57.7481L40.509 59.83V67.0238L54.6852 63.095L54.789 61.9263L56.414 43.7219L56.5827 41.8656H54.719H40.509ZM40.509 27.8688V34.7838H57.2121L57.3502 33.2294L57.6658 29.7244L57.8315 27.8688H40.509Z" fill="white"/>
</svg>
