<svg width="81" height="80" viewBox="0 0 81 80" fill="none" xmlns="http://www.w3.org/2000/svg">
<g clip-path="url(#clip0_47_4257)">
<path d="M40.4101 0.643799L3.37451 13.6775L9.22639 62.2007L40.4495 79.3613L71.8333 61.9688L77.6833 13.4469L40.4101 0.643799Z" fill="#B3B3B3"/>
<path d="M73.9927 16.2494L40.3277 4.7688V75.2594L68.5408 59.6451L73.9927 16.2494Z" fill="#A6120D"/>
<path d="M7.53076 16.4575L12.547 59.8538L40.3245 75.2607V4.7688L7.53076 16.4575Z" fill="#DD1B16"/>
<path d="M49.5933 42.2912L40.3264 46.6249H30.5589L25.967 58.1087L17.4276 58.2675L40.3264 7.32495L49.5933 42.2912ZM48.697 40.1093L40.3876 23.6587L33.5714 39.8262H40.3258L48.697 40.1093Z" fill="#F2F2F2"/>
<path d="M40.3245 7.32495L40.3858 23.6587L48.1202 39.8387H40.3414L40.3245 46.6143L51.0802 46.6249L56.1064 58.2687L64.2777 58.4199L40.3245 7.32495Z" fill="#B3B3B3"/>
</g>
<defs>
<clipPath id="clip0_47_4257">
<rect width="80" height="80" fill="white" transform="translate(0.530762)"/>
</clipPath>
</defs>
</svg>
