<svg width="81" height="80" viewBox="0 0 81 80" fill="none" xmlns="http://www.w3.org/2000/svg">
<path d="M18.2723 72.7194L13.2454 16.3375H68.4817L63.4498 72.7106L40.8298 78.9813L18.2723 72.7194Z" fill="#E44D26"/>
<path d="M40.8641 74.19L59.1416 69.1225L63.4423 20.95H40.8641V74.19Z" fill="#F16529"/>
<path d="M40.8629 41.8656H31.7122L31.081 34.7838H40.8629V27.8688H23.5235L23.6885 29.7244L25.3885 48.78H40.8629V41.8656ZM40.8629 59.8238L40.8322 59.8319L33.1316 57.7519L32.6391 52.2375H25.6972L26.666 63.095L40.831 67.0275L40.8629 67.0182V59.8238Z" fill="#EBEBEB"/>
<path d="M18.386 1.0188H21.8998V4.4913H25.1148V1.0188H28.6292V11.5325H25.1148V8.01192H21.9004V11.5325H18.386V1.0188ZM33.2498 4.50567H30.156V1.0188L39.8592 1.0188V4.50567H36.7642V11.5325H33.2498V4.50567ZM41.3992 1.0188H45.0629L47.3173 4.71317L49.5692 1.0188H53.2348V11.5325H49.7342V6.3213L47.3173 10.0594H47.256L44.8373 6.3213V11.5325H41.3985V1.0188H41.3992ZM54.9842 1.0188H58.4992V8.05755H63.441V11.5332H54.9842V1.0188Z" fill="black"/>
<path d="M40.8422 41.8656V48.78H49.3572L48.5547 57.7481L40.8422 59.83V67.0238L55.0185 63.095L55.1222 61.9263L56.7472 43.7219L56.916 41.8656H55.0522H40.8422ZM40.8422 27.8688V34.7838H57.5453L57.6835 33.2294L57.9991 29.7244L58.1647 27.8688H40.8422Z" fill="white"/>
</svg>
