<svg width="81" height="80" viewBox="0 0 81 80" fill="none" xmlns="http://www.w3.org/2000/svg">
<path d="M19.4245 48.6937H18.337V42.4669C18.337 41.975 18.3688 41.3762 18.427 40.67H18.4026C18.3001 41.0831 18.207 41.3825 18.1251 41.5675L14.962 48.6937H14.432L11.2626 41.6194C11.1738 41.4219 11.0801 41.1037 10.9857 40.67H10.962C10.9957 41.0412 11.0145 41.6437 11.0145 42.4794V48.6937H9.96509V39.4206H11.4001L14.2451 45.8875C14.4595 46.3744 14.5982 46.745 14.6657 46.9975H14.7101C14.8963 46.4906 15.0438 46.11 15.1545 45.86L18.0613 39.4206H19.4232V48.6937H19.4245ZM22.772 48.6937H21.7145V42.0719H22.772V48.6937ZM22.9545 39.6975C22.9545 39.8931 22.8857 40.0556 22.7495 40.1894C22.6854 40.2547 22.6087 40.3063 22.524 40.3409C22.4393 40.3755 22.3484 40.3924 22.257 40.3906C22.0676 40.3906 21.9032 40.3256 21.7682 40.1962C21.6332 40.0662 21.567 39.9006 21.567 39.6969C21.567 39.5056 21.6332 39.3425 21.7682 39.21C21.9032 39.0775 22.0676 39.0137 22.257 39.0137C22.4507 39.0137 22.6163 39.0781 22.7495 39.21C22.8857 39.3431 22.9545 39.5062 22.9545 39.6975ZM29.3801 48.3875C28.8726 48.6994 28.267 48.8538 27.5663 48.8538C26.6163 48.8538 25.8526 48.5387 25.2688 47.9094C24.7013 47.2981 24.4163 46.5094 24.4163 45.5431C24.4163 44.4581 24.7263 43.58 25.352 42.9125C25.9745 42.2444 26.8107 41.9106 27.8632 41.9106C28.4382 41.9106 28.9488 42.0231 29.3957 42.2469V43.335C28.9013 42.9881 28.3788 42.8156 27.8176 42.8156C27.1432 42.8156 26.5945 43.0512 26.1695 43.5206C25.7263 44.0019 25.502 44.6444 25.502 45.4469C25.502 46.2169 25.707 46.8275 26.1138 47.2775C26.522 47.7256 27.0657 47.95 27.752 47.95C28.3307 47.95 28.8732 47.7594 29.3807 47.3806L29.3801 48.3875ZM34.4395 43.1462C34.2526 43.0025 33.9838 42.9331 33.6295 42.9331C33.1988 42.9331 32.8363 43.1256 32.5438 43.5144C32.2113 43.9481 32.0463 44.5494 32.0463 45.3181V48.6937H30.9857V42.0712H32.0463V43.4369H32.072C32.2276 42.9538 32.4682 42.5819 32.7895 42.3181C33.0749 42.0825 33.4338 41.9543 33.8038 41.9556C34.0863 41.9556 34.2957 41.9863 34.4388 42.0463V43.1456L34.4395 43.1462ZM40.3463 45.3944C40.3463 44.5469 40.1551 43.8988 39.7726 43.455C39.4013 43.0281 38.882 42.815 38.2132 42.815C37.5545 42.815 37.0257 43.0306 36.6301 43.4625C36.2126 43.9244 36.0038 44.5756 36.0038 45.4212C36.0038 46.2137 36.202 46.8356 36.6038 47.2794C37.0026 47.7256 37.5395 47.9494 38.2132 47.9494C38.9101 47.9494 39.4438 47.7219 39.8095 47.2712C40.1676 46.8287 40.3463 46.2044 40.3463 45.3944ZM41.4332 45.3575C41.4332 46.4125 41.1351 47.2606 40.5413 47.8956C39.9451 48.5337 39.1432 48.8525 38.1338 48.8525C37.1401 48.8525 36.3488 48.5337 35.7688 47.8956C35.2001 47.2812 34.9151 46.4688 34.9151 45.4594C34.9151 44.3069 35.2376 43.4194 35.8851 42.7887C36.4838 42.2037 37.2851 41.9094 38.2888 41.9094C39.2763 41.9094 40.0476 42.2175 40.6038 42.8275C41.1551 43.44 41.4332 44.2837 41.4332 45.3575ZM46.6901 46.9225C46.6901 47.465 46.4882 47.9131 46.082 48.2719C45.6388 48.6594 45.0301 48.8531 44.2645 48.8531C43.6382 48.8531 43.0888 48.7219 42.622 48.4544V47.3144C43.1407 47.7362 43.7145 47.9487 44.3432 47.9487C45.1826 47.9487 45.6032 47.6394 45.6032 47.0237C45.6068 46.9033 45.5837 46.7835 45.5356 46.673C45.4875 46.5625 45.4157 46.4639 45.3251 46.3844C45.1388 46.215 44.7763 46.0131 44.2382 45.7756C43.6838 45.5331 43.2882 45.2838 43.0551 45.0256C42.7751 44.7188 42.6345 44.32 42.6345 43.8287C42.6345 43.2794 42.8545 42.8219 43.2882 42.4575C43.7238 42.0919 44.2832 41.9094 44.9701 41.9094C45.4963 41.9094 45.9676 42.0119 46.3863 42.22V43.2869C45.9495 42.9719 45.4501 42.815 44.8832 42.815C44.532 42.815 44.2501 42.9025 44.0401 43.0725C43.9387 43.1513 43.8571 43.2526 43.8017 43.3685C43.7464 43.4844 43.7189 43.6116 43.7213 43.74C43.7213 44.0331 43.8101 44.2613 43.987 44.425C44.1445 44.5756 44.4782 44.76 44.9813 44.9744C45.5463 45.2113 45.9551 45.4569 46.2038 45.7081C46.527 46.0256 46.6901 46.4306 46.6901 46.9225ZM53.1688 45.3944C53.1688 44.5469 52.977 43.8988 52.5938 43.455C52.2226 43.0281 51.7026 42.815 51.0351 42.815C50.3757 42.815 49.8476 43.0306 49.4501 43.4625C49.0332 43.9244 48.8251 44.5756 48.8251 45.4212C48.8251 46.2137 49.0245 46.8356 49.4213 47.2794C49.8251 47.7256 50.3626 47.9494 51.0351 47.9494C51.7332 47.9494 52.2651 47.7219 52.6313 47.2712C52.9888 46.8287 53.1688 46.2044 53.1688 45.3944ZM54.2576 45.3575C54.2576 46.4125 53.957 47.2606 53.362 47.8956C52.7682 48.5337 51.9663 48.8525 50.957 48.8525C49.962 48.8525 49.1713 48.5337 48.5907 47.8956C48.0226 47.2812 47.737 46.4688 47.737 45.4594C47.737 44.3069 48.0626 43.4194 48.7063 42.7887C49.3051 42.2037 50.107 41.9094 51.112 41.9094C52.1001 41.9094 52.8701 42.2175 53.4245 42.8275C53.9763 43.44 54.2576 44.2837 54.2576 45.3575ZM58.9282 39.8212C58.7126 39.7036 58.4701 39.6437 58.2245 39.6475C57.482 39.6475 57.1138 40.1144 57.1138 41.0506V42.0712H58.6657V42.97H57.1138V48.6937H56.0526V42.97H54.9263V42.0712H56.0526V40.9981C56.0526 40.2694 56.2757 39.6975 56.7301 39.2856C57.1188 38.9275 57.5945 38.75 58.1607 38.75C58.4882 38.75 58.7432 38.7894 58.9282 38.865V39.8212ZM63.112 48.6275C62.862 48.7706 62.5282 48.8419 62.1163 48.8419C60.9601 48.8419 60.3826 48.1906 60.3826 46.8869V42.9706H59.2463V42.0712H60.3826V40.4556C60.7213 40.3487 61.0732 40.2325 61.4451 40.1119V42.0712H63.112V42.9706H61.4451V46.7075C61.4451 47.1512 61.5176 47.4687 61.6695 47.6531C61.8226 47.8437 62.0732 47.9369 62.4263 47.9369C62.6907 47.9369 62.9188 47.8662 63.112 47.7231V48.6275ZM5.80947 74.5406C5.80947 75.06 5.62509 75.5081 5.25009 75.8875C5.07535 76.0705 4.86468 76.2154 4.6313 76.3132C4.39791 76.411 4.14685 76.4594 3.89384 76.4556C3.64586 76.4592 3.3999 76.4104 3.17203 76.3126C2.94415 76.2147 2.73947 76.0698 2.57134 75.8875C2.39617 75.7102 2.258 75.4998 2.16486 75.2685C2.07173 75.0373 2.02549 74.7899 2.02884 74.5406C2.02884 74.0069 2.20947 73.5563 2.57134 73.1838C2.74041 73.0032 2.94546 72.86 3.17325 72.7636C3.40103 72.6671 3.64651 72.6195 3.89384 72.6237C4.42509 72.6237 4.87759 72.8119 5.25009 73.1906C5.62509 73.57 5.80947 74.02 5.80947 74.5406ZM29.5438 76.0656H26.0863L13.537 56.6856C13.2351 56.2024 12.9804 55.6913 12.7763 55.1594H12.6732C12.7632 55.6787 12.8082 56.7925 12.8082 58.4988V76.0656H9.95884V51.7513H13.6576L25.8313 70.8263C26.3157 71.5831 26.6476 72.1256 26.8157 72.4519H26.8832C26.7707 71.7525 26.712 70.56 26.712 68.8769V51.7519H29.5445L29.5438 76.0656ZM47.8145 76.0656H34.9276V51.7513H47.2551V54.3281H37.7751V62.4162H46.5588V64.9937H37.7751V73.4881H47.8145V76.0656ZM67.3607 54.3281H60.357V76.0663H57.5082V54.3281H50.4907V51.75H67.3607V54.3281Z" fill="black"/>
<path d="M28.5787 9.74998C31.3281 18.1575 32.3687 33.1556 40.4087 33.1556C41.0206 33.1556 41.6393 33.0962 42.2599 32.9775C34.9518 31.2731 34.0856 16.4387 29.6262 8.75623C29.2706 9.08069 28.9214 9.412 28.5787 9.74998Z" fill="url(#paint0_linear_47_4263)"/>
<path d="M29.6224 8.76315C34.0818 16.4456 34.948 31.28 42.2562 32.9844C42.8427 32.8737 43.4199 32.7178 43.9824 32.5182C37.4224 29.3038 35.6093 14.8981 30.5449 7.96252C30.238 8.21877 29.9299 8.48565 29.6224 8.76315Z" fill="url(#paint1_linear_47_4263)"/>
<path d="M36.0518 4.18754C35.4412 4.18754 34.8212 4.24754 34.1993 4.36567C32.5724 4.67254 30.9199 5.37254 29.2537 6.43317C29.7263 6.90501 30.1596 7.41462 30.5493 7.95692C32.2437 6.55129 33.9268 5.51254 35.6037 4.88754C36.2159 4.65882 36.8468 4.48358 37.4893 4.36379C37.0194 4.24489 36.5365 4.18567 36.0518 4.18754Z" fill="#14559A"/>
<path d="M49.1049 29.5487C49.804 28.9903 50.4772 28.4003 51.1224 27.7806C48.3287 19.4125 47.3287 4.19995 39.233 4.19995C38.6543 4.19995 38.0699 4.2537 37.488 4.36183C44.8618 6.19558 45.8062 22.24 49.1049 29.5487Z" fill="url(#paint2_linear_47_4263)"/>
<path d="M37.4856 4.36316C37.0154 4.24475 36.5323 4.18574 36.0474 4.18754L39.2312 4.19941C38.6518 4.19941 38.0681 4.25316 37.4856 4.36316Z" fill="#3092C4"/>
<path d="M48.9643 31.3244C48.6419 31.0128 48.3372 30.6833 48.0518 30.3375C46.6899 31.3019 45.3324 32.0331 43.9849 32.5094C44.4643 32.7438 44.9674 32.9175 45.5012 33.0256C45.9263 33.1121 46.3592 33.1551 46.7931 33.1538C48.3062 33.1538 49.5018 32.975 50.5199 32.4863C49.9593 32.1831 49.4449 31.7913 48.9643 31.3244Z" fill="#1969BC"/>
<path d="M35.6005 4.8888C42.2062 8.3438 42.7799 23.9888 48.0505 30.3407C48.4037 30.0919 48.7537 29.8282 49.103 29.55C45.8037 22.2407 44.8605 6.19505 37.4874 4.36255C36.8445 4.48341 36.2132 4.65948 35.6005 4.8888Z" fill="url(#paint3_linear_47_4263)"/>
<path d="M30.5474 7.95558C35.6118 14.8912 37.4249 29.2968 43.9849 32.5112C45.3337 32.035 46.6899 31.3037 48.0518 30.3393C42.7812 23.9875 42.2068 8.34245 35.6018 4.88745C33.9249 5.5112 32.2418 6.54995 30.5474 7.95558Z" fill="url(#paint4_linear_47_4263)"/>
<path d="M25.3356 9.54873C24.5412 11.3437 23.7305 13.7025 22.7505 16.7825C24.6993 14.0356 26.643 11.6694 28.5755 9.75123C28.3316 8.98722 28.0445 8.23769 27.7155 7.50623C26.886 8.14373 26.0916 8.82556 25.3356 9.54873Z" fill="url(#paint5_linear_47_4263)"/>
<path d="M28.4193 6.98755C28.1862 7.15442 27.9512 7.32505 27.7162 7.50505C28.045 8.23646 28.332 8.986 28.5756 9.75005C28.9191 9.4127 29.2685 9.0814 29.6237 8.7563C29.2674 8.13718 28.8648 7.54591 28.4193 6.98755Z" fill="#2B74B1"/>
<path d="M29.2512 6.4375C28.9743 6.61312 28.6987 6.79813 28.4193 6.99188C28.8656 7.55041 29.2685 8.14236 29.6243 8.7625C29.9324 8.48375 30.2399 8.21563 30.5468 7.96125C30.1573 7.4188 29.7239 6.90918 29.2512 6.4375Z" fill="#125A9E"/>
<path d="M74.3049 3.5538C70.5693 17.96 62.7668 29.5319 56.2255 32.4488H56.2124L55.8593 32.5994L55.8168 32.6163L55.7162 32.655L55.6712 32.6738L55.5081 32.7313L55.4405 32.755L55.3593 32.7819L55.2806 32.8094L55.2106 32.8325L55.0712 32.875L55.0118 32.8907L54.9174 32.9163L54.8537 32.9338L54.7512 32.96L54.6255 32.9875C54.9212 33.0969 55.2293 33.1519 55.5612 33.1519C61.7637 33.1519 68.0187 22.0357 78.3668 3.55005H74.3037L74.3049 3.5538Z" fill="url(#paint6_linear_47_4263)"/>
<path d="M21.4037 4.77938L21.4149 4.76875L21.4293 4.75937H21.4374L21.5381 4.72063L21.5581 4.71063L21.5837 4.69938L21.6918 4.66062H21.6974L21.9356 4.5775L21.9706 4.56813L22.073 4.5375L22.1199 4.5225L22.2224 4.49188L22.2618 4.48188L22.6024 4.39313L22.6493 4.3825L22.7487 4.36313L22.798 4.34812L22.898 4.32938H22.9212L23.1287 4.29062H23.1699L23.2655 4.27437L23.3193 4.26438L23.4105 4.25063L23.4618 4.24125L23.6849 4.22125C23.4654 4.19978 23.2449 4.18851 23.0243 4.1875C16.0387 4.1875 6.4143 17.1487 2.07868 33.9337H2.9143C4.21028 31.617 5.46816 29.2792 6.68743 26.9213C9.7243 15.0325 15.9087 6.92375 21.4024 4.77563" fill="url(#paint7_linear_47_4263)"/>
<path d="M25.3349 9.54745C26.0911 8.82444 26.8855 8.14262 27.7149 7.50495C27.5463 7.1296 27.357 6.76383 27.1481 6.40933C26.5093 7.18495 25.9256 8.20745 25.3349 9.54745ZM25.9093 4.87058C26.3656 5.25245 26.7737 5.77933 27.1481 6.40933C27.262 6.26908 27.3825 6.13434 27.5093 6.00558C27.0074 5.5316 26.4386 5.13382 25.8212 4.82495L25.8956 4.86058L25.9093 4.87058Z" fill="#0D82CA"/>
<path d="M6.69117 26.9206C13.0605 14.6456 16.0787 6.87752 21.4062 4.77502C15.913 6.9244 9.72742 15.0325 6.69117 26.9206Z" fill="url(#paint8_linear_47_4263)"/>
<path d="M27.5087 6.01245C27.3843 6.13933 27.2668 6.27183 27.1474 6.4162C27.3474 6.7512 27.5337 7.11558 27.7155 7.51183C27.9505 7.3312 28.1855 7.1612 28.4187 6.9937C28.1386 6.64582 27.8345 6.31794 27.5087 6.01245Z" fill="#127BCA"/>
<path d="M9.58243 33.8731L9.4668 33.8869H9.44493L9.3468 33.8969H9.33055L9.0968 33.9125H9.07243C15.5187 33.7319 18.4662 30.5044 19.9287 25.8225C21.0393 22.2738 21.9524 19.2838 22.7524 16.775C20.0524 20.5756 17.3393 25.1063 14.6124 30.1819C13.2974 32.6281 11.2974 33.65 9.58243 33.8681" fill="url(#paint9_linear_47_4263)"/>
<path d="M9.5818 33.8769C11.2968 33.6582 13.2968 32.6375 14.6118 30.19C17.3387 25.1163 20.053 20.5844 22.7505 16.7832C23.7324 13.7025 24.5418 11.345 25.3368 9.55005C19.9593 14.6682 14.5618 23.1788 9.5818 33.8744" fill="url(#paint10_linear_47_4263)"/>
<path d="M6.69055 26.9187C5.47071 29.2766 4.21242 31.6144 2.91618 33.9312H5.3468C5.65337 31.5693 6.10189 29.228 6.68993 26.92" fill="#05A1E6"/>
<path d="M23.4643 4.2463L23.4124 4.2563L23.3212 4.26942L23.2681 4.2788L23.1724 4.29567L23.1312 4.30567L22.9237 4.34192H22.9006L22.7993 4.36192L22.7487 4.37505L22.6506 4.39442L22.6043 4.40567L22.2631 4.49442L22.2237 4.5063L22.1206 4.53692L22.0737 4.5488L21.9718 4.5788L21.9343 4.5888L21.6974 4.67192L21.5899 4.70942L21.5449 4.72817L21.4449 4.76567L21.4118 4.78192C16.0849 6.88442 13.0668 14.6526 6.69743 26.9269C6.10869 29.2348 5.65996 31.5762 5.35368 33.9382H5.69493L8.0318 33.9282H9.10305L9.3368 33.9125H9.3518L9.44993 33.9026H9.47368L9.5893 33.8888C14.5687 23.1938 19.9668 14.6832 25.3443 9.56505C25.9349 8.22505 26.5181 7.20192 27.1556 6.42755C26.7824 5.79755 26.3743 5.26942 25.9181 4.88692L25.9049 4.87692L25.8287 4.84005L25.7537 4.80192L25.6806 4.7663L25.5943 4.73005L25.5268 4.70067L25.3856 4.64192L25.3256 4.6188L25.2206 4.57692L25.1637 4.55817L25.0174 4.50817H25.0056L24.8362 4.46005L24.7981 4.44817L24.6556 4.40817L24.6224 4.3988C24.5054 4.36805 24.3872 4.34219 24.2681 4.3213L24.2312 4.3113L24.0774 4.2863L24.0474 4.27692L23.8656 4.25317H23.8337L23.6937 4.23755L23.4706 4.25817" fill="url(#paint11_linear_47_4263)"/>
<path d="M59.7137 11.525C58.4881 15.4506 57.4956 18.6894 56.6318 21.3544C59.9949 16.7269 63.3068 10.9056 66.4618 4.1875C62.7812 5.34313 60.8187 7.98813 59.7137 11.525Z" fill="url(#paint12_linear_47_4263)"/>
<path d="M56.7381 32.2C56.5668 32.2875 56.3943 32.37 56.2256 32.4457C62.7668 29.5282 70.5699 17.9563 74.3049 3.55005H73.5481C64.9649 18.8813 62.2049 29.145 56.7381 32.2Z" fill="url(#paint13_linear_47_4263)"/>
<path d="M52.4656 30.9137C53.8887 29.1768 55.0481 26.2237 56.6312 21.3562C54.8056 23.8637 52.9681 26.02 51.1287 27.7775L51.1193 27.7931C51.5206 28.995 51.9606 30.0568 52.4624 30.9131" fill="#079AE1"/>
<path d="M52.4674 30.9125C51.9831 31.5037 51.4699 31.9537 50.8993 32.2875C50.7743 32.3606 50.6481 32.4294 50.5193 32.4912C51.1218 32.8162 51.7793 33.0337 52.5149 33.1206L52.8412 33.1493H52.8606L53.0174 33.1594H53.5499L53.6099 33.1493L53.7274 33.1394H53.7843L53.9124 33.1256H53.9218L53.9612 33.1162L54.0974 33.095H54.1374L54.2906 33.0694H54.3149L54.6206 33.0044C53.7762 32.6962 53.0699 31.9669 52.4612 30.9294" fill="#1969BC"/>
<path d="M40.4068 33.155C41.0187 33.155 41.6368 33.095 42.2574 32.9757C42.8318 32.8713 43.4074 32.7119 43.9837 32.5107C44.8577 32.9393 45.819 33.1599 46.7924 33.155H40.4068ZM46.7924 33.155C48.3043 33.155 49.5012 32.9757 50.5187 32.4875C51.1375 32.8231 51.8149 33.0368 52.5143 33.1169L52.8405 33.145H52.8599L53.0168 33.155H53.2049H46.7924Z" fill="#1E5CB3"/>
<path d="M53.2037 33.1569H53.5531L53.6131 33.1469L53.7318 33.1369H53.7899L53.9168 33.1231H53.9274L53.9662 33.1138L54.1024 33.0931L54.1437 33.0838L54.2974 33.0588H54.3218L54.6274 32.9938C54.9272 33.104 55.2443 33.1597 55.5637 33.1581L53.2056 33.1681L53.2037 33.1569Z" fill="#1D60B5"/>
<path d="M51.1249 27.7912V27.7812C50.4798 28.4013 49.8066 28.9915 49.1074 29.55C48.7568 29.8281 48.4074 30.0919 48.0537 30.3406C48.3393 30.6864 48.6442 31.0159 48.9668 31.3275C49.4481 31.7938 49.9612 32.1863 50.5218 32.4894C50.6499 32.4269 50.7768 32.3581 50.9012 32.2856C51.4731 31.9519 51.9849 31.5019 52.4699 30.9106C51.9681 30.0544 51.5281 28.9925 51.1274 27.7906" fill="#175FAB"/>
<path d="M71.1493 3.55005H67.3393L66.7356 3.57942L66.4543 4.18067C63.3006 10.8988 59.9881 16.72 56.6249 21.3482C55.0437 26.2144 53.8831 29.1675 52.4599 30.905C53.0681 31.9432 53.7762 32.6732 54.6174 32.9825L54.6837 32.9682H54.6974L54.7437 32.9575L54.8493 32.9313L54.9118 32.9132L55.0062 32.8882L55.0649 32.8719L55.2049 32.8294L55.2749 32.8063L55.3537 32.7775L55.4343 32.7519L55.4999 32.7269L55.6643 32.6694L55.7099 32.6525L55.8106 32.6132L55.8537 32.5975L56.2068 32.4469H56.2187C56.3881 32.3719 56.5599 32.2888 56.7306 32.2013C62.1993 29.1463 64.9593 18.8825 73.5418 3.5513H71.1449L71.1493 3.55005Z" fill="url(#paint14_linear_47_4263)"/>
<path d="M23.6849 4.22002L23.7243 4.23002L23.8237 4.24065H23.8574L24.0387 4.26377L24.0699 4.27377L24.2231 4.2994L24.2612 4.30877L24.6149 4.3869L24.6468 4.3969L24.7887 4.4369L24.828 4.44877L24.9962 4.4969L25.0087 4.5069L25.1562 4.55752L25.2124 4.57565L25.318 4.61877L25.378 4.64002L25.518 4.69877L25.5868 4.72815L25.6712 4.76502L25.7462 4.80002L25.8205 4.83877C26.4383 5.14771 27.0073 5.54571 27.5093 6.02002C27.6999 5.81877 27.8999 5.63877 28.108 5.47627C26.9737 4.67127 25.6868 4.21252 24.2043 4.21252C24.0324 4.21252 23.8612 4.22252 23.6862 4.23565" fill="#7DCBEC"/>
<path d="M27.5099 6.0125C27.8274 6.30812 28.1318 6.63812 28.4199 6.99375C28.698 6.8 28.9743 6.61375 29.2518 6.43937C28.899 6.08347 28.5161 5.75872 28.1074 5.46875C27.8946 5.63442 27.6949 5.8162 27.5099 6.0125Z" fill="#5EC5ED"/>
<path d="M23.5224 4.26629L24.04 4.24415C25.5229 4.24415 26.8099 4.7017 27.9426 5.50623C29.1415 4.56288 30.5867 4.23154 32.5996 4.23154H22.863L23.5224 4.26629Z" fill="url(#paint15_linear_47_4263)"/>
<path d="M32.5982 4.23178C30.5885 4.23178 29.1401 4.56312 27.9412 5.50647C28.3387 5.78726 28.7206 6.11215 29.0835 6.47498C30.7493 5.4149 32.4025 4.71456 34.0305 4.40537C34.652 4.28864 35.2705 4.22869 35.8826 4.22869L32.5982 4.23178Z" fill="url(#paint16_linear_47_4263)"/>
<path d="M56.6324 21.3581C57.4974 18.6913 58.4874 15.4538 59.7156 11.5269C60.8224 7.98877 62.7812 5.34315 66.4606 4.18877L66.7443 3.58752C60.7462 3.9469 57.9431 6.99815 56.5324 11.5169C54.0656 19.4056 52.5706 24.5188 51.1318 27.7775C52.9693 26.02 54.8068 23.8631 56.6324 21.3581Z" fill="url(#paint17_linear_47_4263)"/>
<defs>
<linearGradient id="paint0_linear_47_4263" x1="-77704.6" y1="4.11534" x2="-77704.6" y2="40.4261" gradientUnits="userSpaceOnUse">
<stop stop-color="#0994DC"/>
<stop offset="0.35" stop-color="#66CEF5"/>
<stop offset="0.846" stop-color="#127BCA"/>
<stop offset="1" stop-color="#127BCA"/>
</linearGradient>
<linearGradient id="paint1_linear_47_4263" x1="36.8445" y1="3.02333" x2="36.8445" y2="40.3554" gradientUnits="userSpaceOnUse">
<stop stop-color="#0E76BC"/>
<stop offset="0.36" stop-color="#36AEE8"/>
<stop offset="0.846" stop-color="#00ADEF"/>
<stop offset="1" stop-color="#00ADEF"/>
</linearGradient>
<linearGradient id="paint2_linear_47_4263" x1="44.2928" y1="32.2527" x2="44.2928" y2="2.62453" gradientUnits="userSpaceOnUse">
<stop stop-color="#1C63B7"/>
<stop offset="0.5" stop-color="#33BDF2"/>
<stop offset="1" stop-color="#33BDF2" stop-opacity="0.42"/>
</linearGradient>
<linearGradient id="paint3_linear_47_4263" x1="42.2971" y1="-0.759701" x2="42.2971" y2="38.0005" gradientUnits="userSpaceOnUse">
<stop stop-color="#166AB8"/>
<stop offset="0.4" stop-color="#36AEE8"/>
<stop offset="0.846" stop-color="#0798DD"/>
<stop offset="1" stop-color="#0798DD"/>
</linearGradient>
<linearGradient id="paint4_linear_47_4263" x1="39.4795" y1="-0.491834" x2="39.4795" y2="40.7247" gradientUnits="userSpaceOnUse">
<stop stop-color="#124379"/>
<stop offset="0.39" stop-color="#1487CB"/>
<stop offset="0.78" stop-color="#165197"/>
<stop offset="1" stop-color="#165197"/>
</linearGradient>
<linearGradient id="paint5_linear_47_4263" x1="22.4379" y1="11.6462" x2="28.2627" y2="11.6462" gradientUnits="userSpaceOnUse">
<stop stop-color="#33BDF2" stop-opacity="0.698"/>
<stop offset="1" stop-color="#1DACD8"/>
</linearGradient>
<linearGradient id="paint6_linear_47_4263" x1="66.5233" y1="31.5038" x2="66.5233" y2="2.56759" gradientUnits="userSpaceOnUse">
<stop stop-color="#136AB4"/>
<stop offset="0.6" stop-color="#59CAF5" stop-opacity="0.549"/>
<stop offset="1" stop-color="#59CAF5" stop-opacity="0.235"/>
</linearGradient>
<linearGradient id="paint7_linear_47_4263" x1="1.7709" y1="18.5644" x2="23.3717" y2="18.5644" gradientUnits="userSpaceOnUse">
<stop stop-color="#05A1E6" stop-opacity="0.247"/>
<stop offset="1" stop-color="#05A1E6"/>
</linearGradient>
<linearGradient id="paint8_linear_47_4263" x1="63438.3" y1="32.2944" x2="63438.3" y2="2.74217" gradientUnits="userSpaceOnUse">
<stop stop-color="#318ED5"/>
<stop offset="1" stop-color="#38A7E4"/>
</linearGradient>
<linearGradient id="paint9_linear_47_4263" x1="15.8183" y1="32.3652" x2="15.8183" y2="3.56461" gradientUnits="userSpaceOnUse">
<stop stop-color="#05A1E6"/>
<stop offset="1" stop-color="#05A1E6" stop-opacity="0.549"/>
</linearGradient>
<linearGradient id="paint10_linear_47_4263" x1="17.5516" y1="33.9311" x2="17.5516" y2="9.5943" gradientUnits="userSpaceOnUse">
<stop stop-color="#1959A6"/>
<stop offset="0.5" stop-color="#05A1E6"/>
<stop offset="0.918" stop-color="#7EC5EA"/>
<stop offset="1" stop-color="#7EC5EA"/>
</linearGradient>
<linearGradient id="paint11_linear_47_4263" x1="18.3461" y1="32.2865" x2="13.7051" y2="5.96633" gradientUnits="userSpaceOnUse">
<stop stop-color="#165096"/>
<stop offset="1" stop-color="#0D82CA"/>
</linearGradient>
<linearGradient id="paint12_linear_47_4263" x1="61.421" y1="17.361" x2="61.421" y2="3.57066" gradientUnits="userSpaceOnUse">
<stop stop-color="#05A1E6"/>
<stop offset="0.874" stop-color="#0495D6"/>
<stop offset="1" stop-color="#0495D6"/>
</linearGradient>
<linearGradient id="paint13_linear_47_4263" x1="68.1016" y1="2.37989" x2="62.5089" y2="34.0977" gradientUnits="userSpaceOnUse">
<stop stop-color="#38A7E4" stop-opacity="0.329"/>
<stop offset="0.962" stop-color="#0E88D3"/>
<stop offset="1" stop-color="#0E88D3"/>
</linearGradient>
<linearGradient id="paint14_linear_47_4263" x1="62.8446" y1="3.50048" x2="62.8446" y2="33.5079" gradientUnits="userSpaceOnUse">
<stop stop-color="#168CD4"/>
<stop offset="0.5" stop-color="#1C87CC"/>
<stop offset="1" stop-color="#154B8D"/>
</linearGradient>
<linearGradient id="paint15_linear_47_4263" x1="22.158" y1="0.505189" x2="57.1401" y2="15.0141" gradientUnits="userSpaceOnUse">
<stop stop-color="#97D6EE"/>
<stop offset="0.703" stop-color="#55C1EA"/>
<stop offset="1" stop-color="#55C1EA"/>
</linearGradient>
<linearGradient id="paint16_linear_47_4263" x1="31.725" y1="8.84038" x2="59.3542" y2="-3.68496" gradientUnits="userSpaceOnUse">
<stop stop-color="#7ACCEC"/>
<stop offset="1" stop-color="#3FB7ED"/>
</linearGradient>
<linearGradient id="paint17_linear_47_4263" x1="58.8172" y1="5.09297" x2="58.8172" y2="34.5189" gradientUnits="userSpaceOnUse">
<stop stop-color="#1DA7E7"/>
<stop offset="1" stop-color="#37ABE7" stop-opacity="0"/>
</linearGradient>
</defs>
</svg>
