<svg width="81" height="80" viewBox="0 0 81 80" fill="none" xmlns="http://www.w3.org/2000/svg">
<path d="M20.7016 55.9784C20.3693 56.2624 19.9648 56.4486 19.533 56.5164C19.1013 56.5842 18.6592 56.531 18.2559 56.3626L13.9611 54.5606C13.5327 54.3819 13.1665 54.0811 12.908 53.6955C12.6496 53.31 12.5104 52.8569 12.5079 52.3928V27.1916C12.5104 26.7274 12.6495 26.2743 12.908 25.8887C13.1664 25.5031 13.5327 25.2022 13.9611 25.0235L18.2559 23.2513C18.6592 23.0828 19.1013 23.0295 19.533 23.0973C19.9648 23.1651 20.3693 23.3513 20.7016 23.6352L21.6643 24.4327C21.4691 24.2923 21.2388 24.2086 20.999 24.1907C20.7591 24.1729 20.5191 24.2217 20.3052 24.3317C20.0913 24.4417 19.912 24.6086 19.787 24.8141C19.662 25.0195 19.5962 25.2555 19.5968 25.496V54.0881C19.5962 54.3286 19.662 54.5646 19.787 54.7701C19.912 54.9755 20.0913 55.1424 20.3052 55.2524C20.5191 55.3624 20.7591 55.4112 20.999 55.3934C21.2388 55.3756 21.4691 55.2918 21.6643 55.1515L20.7016 55.9784Z" fill="#52218A"/>
<path d="M13.9611 54.5622C13.5327 54.3835 13.1665 54.0826 12.908 53.6971C12.6496 53.3116 12.5104 52.8584 12.5079 52.3943V52.1994C12.5108 52.4721 12.5954 52.7378 12.7507 52.962C12.9061 53.1862 13.125 53.3587 13.3794 53.4573C13.6337 53.5558 13.9118 53.5759 14.1776 53.5148C14.4435 53.4538 14.685 53.3145 14.8709 53.1149L51.497 12.6194C52.0157 12.1033 52.6814 11.7604 53.4028 11.6377C54.1241 11.515 54.8658 11.6186 55.5259 11.9342L67.2107 17.558C67.8126 17.8474 68.3205 18.3009 68.6759 18.8663C69.0312 19.4318 69.2196 20.0861 69.2193 20.754V20.8898C69.2189 20.4661 69.0983 20.0513 68.8716 19.6934C68.6448 19.3355 68.3211 19.0494 67.9382 18.8681C67.5553 18.6869 67.1288 18.618 66.7082 18.6695C66.2877 18.721 65.8904 18.8907 65.5625 19.159L21.6643 55.153L20.7016 55.98C20.3693 56.2639 19.9648 56.4501 19.533 56.518C19.1013 56.5858 18.6592 56.5325 18.2559 56.3641L13.9611 54.5622Z" fill="#6C33AF"/>
<path d="M13.9611 25.0271C13.5327 25.2058 13.1664 25.5068 12.908 25.8923C12.6495 26.2779 12.5104 26.7311 12.5079 27.1952V27.3902C12.5107 27.1174 12.5953 26.8517 12.7506 26.6275C12.9059 26.4032 13.1249 26.2307 13.3793 26.1321C13.6336 26.0335 13.9117 26.0135 14.1776 26.0745C14.4435 26.1355 14.685 26.2748 14.8709 26.4744L51.497 66.9699C52.0157 67.486 52.6814 67.829 53.4027 67.9517C54.1241 68.0745 54.8658 67.9709 55.5259 67.6553L67.2107 62.0313C67.8126 61.742 68.3205 61.2884 68.6759 60.723C69.0312 60.1575 69.2196 59.5032 69.2193 58.8353V58.6996C69.2189 59.1232 69.0983 59.5381 68.8716 59.8959C68.6448 60.2538 68.3211 60.54 67.9382 60.7212C67.5553 60.9024 67.1288 60.9713 66.7082 60.9198C66.2877 60.8684 65.8904 60.6986 65.5625 60.4304L21.6643 24.4363L20.7016 23.6093C20.3663 23.3303 19.9604 23.1495 19.5287 23.0869C19.0971 23.0244 18.6565 23.0825 18.2559 23.2549L13.9611 25.0271Z" fill="#854CC7"/>
<path d="M55.5274 67.6532C54.8673 67.9688 54.1256 68.0724 53.4042 67.9497C52.6829 67.827 52.0172 67.484 51.4985 66.9678C51.7896 67.2568 52.1597 67.4533 52.5622 67.5324C52.9647 67.6116 53.3817 67.5699 53.7605 67.4126C54.1394 67.2554 54.4633 66.9896 54.6915 66.6487C54.9197 66.3079 55.042 65.9071 55.043 65.4969V14.1021C55.0443 13.6909 54.9237 13.2885 54.6964 12.9458C54.4691 12.6031 54.1453 12.3355 53.766 12.1769C53.3866 12.0182 52.9687 11.9755 52.5651 12.0543C52.1615 12.1331 51.7903 12.3297 51.4985 12.6194C52.0172 12.1033 52.6829 11.7604 53.4043 11.6377C54.1256 11.515 54.8673 11.6186 55.5274 11.9342L67.2122 17.5522C67.8141 17.8416 68.3219 18.2951 68.6773 18.8605C69.0327 19.4259 69.2211 20.0802 69.2208 20.748V58.8393C69.2211 59.5071 69.0327 60.1614 68.6774 60.7269C68.322 61.2923 67.8141 61.7459 67.2122 62.0353L55.5274 67.6532Z" fill="#B179F1"/>
</svg>
